<?xml version="1.0" encoding="utf-8"?>
<!-- Generator: Adobe Illustrator 25.4.1, SVG Export Plug-In . SVG Version: 6.00 Build 0)  -->
<svg version="1.1" id="Layer_1" xmlns="http://www.w3.org/2000/svg" xmlns:xlink="http://www.w3.org/1999/xlink" x="0px" y="0px"
	 viewBox="0 0 1700.79 226.67" style="enable-background:new 0 0 1700.79 226.67;" xml:space="preserve">
<style type="text/css">
	.st0{fill:#FFFFFF;}
	.st1{fill:#231F20;}
	.st2{fill:#71CCDB;stroke:#000000;stroke-width:3.2698;stroke-miterlimit:10;}
	.st3{fill:#F69320;}
	.st4{fill:#D91F26;}
	.st5{fill:#6FCBDB;}
	.st6{fill:#BC202E;}
	.st7{fill:#F7B5C2;}
	.st8{fill:#F3B71D;}
	.st9{fill:none;stroke:#000000;stroke-width:3.5414;stroke-miterlimit:10;}
	.st10{fill:none;stroke:#000000;stroke-width:3.5018;stroke-linejoin:round;stroke-miterlimit:10;}
	.st11{fill:none;stroke:#000000;stroke-width:2.5758;stroke-linejoin:round;stroke-miterlimit:10;}
	.st12{fill:#FFFFFF;stroke:#000000;stroke-width:3.7996;stroke-miterlimit:10;}
	.st13{fill:none;stroke:#000000;stroke-width:2.8618;stroke-linejoin:round;stroke-miterlimit:10;}
	.st14{fill:none;stroke:#000000;stroke-width:2.3125;stroke-linejoin:round;stroke-miterlimit:10;}
	.st15{stroke:#000000;stroke-width:2.5197;stroke-linejoin:round;stroke-miterlimit:10;}
	.st16{fill:none;stroke:#000000;stroke-width:3.8699;stroke-linejoin:round;stroke-miterlimit:10;}
	.st17{fill:#FFFFFF;stroke:#000000;stroke-width:1.1562;stroke-linejoin:round;stroke-miterlimit:10;}
	.st18{stroke:#000000;stroke-width:0.9912;stroke-miterlimit:10;}
</style>
<g>
	<path d="M1460.19,202.69c0.12-5.72,0.31-20.92-0.82-23.92c-0.17-0.46-0.37-0.96-0.58-1.47c-0.89-2.23-2.39-5.95-1.27-6.87
		c2.07-1.7,19.34-21.53,24.3-27.23c1.93,2.23,4.79,5.48,5.56,6.02c0.73,0.52,16.43,13.01,27.23,21.61l-4.89,29.9L1460.19,202.69z"/>
	<path d="M1481.82,145.42c2.51,2.88,4.09,4.56,4.71,4.98c0.88,0.65,15.85,12.56,26.51,21.04l-4.56,27.89l-46.8,1.84
		c0.12-7.03,0.17-19.93-0.95-22.92c-0.17-0.47-0.38-0.97-0.59-1.49c-0.57-1.42-1.73-4.32-1.56-5.33
		C1461.07,169.18,1475.56,152.6,1481.82,145.42 M1481.83,140.97c0,0-22.99,26.48-25.24,28.34c-2.25,1.86,0.19,6.73,1.41,9.98
		c1.23,3.25,0.69,24.93,0.69,24.93l52.27-2.06l5.23-31.93c0,0-27.07-21.55-27.97-22.19C1487.32,147.4,1481.83,140.97,1481.83,140.97
		L1481.83,140.97z"/>
</g>
<g>
	<g>
		<path class="st0" d="M1166.5,44.75c0,0,7.94-1.82,10.16-0.24c2.22,1.57,0.4,14.63,0.4,14.63l-13.16,0.31
			C1163.92,59.44,1165.95,50.72,1166.5,44.75z"/>
		<polygon class="st0" points="1201.52,106.12 1203.7,89.76 1212.25,89.55 1212.77,108.14 		"/>
		<polygon class="st0" points="1201.27,84.19 1203.94,67.5 1214.14,67.26 1214.67,86.2 		"/>
		<path class="st0" d="M1183.59,59.65l-0.43-15.34l14.59-0.35c0,0-4.13,13.29-2.98,15.42C1195.91,61.52,1183.59,59.65,1183.59,59.65
			z"/>
		<polygon class="st0" points="1178.68,82.56 1182.88,66.14 1198.03,65.78 1198.55,84.37 		"/>
		<polygon class="st0" points="1165.53,106.34 1168.51,89.96 1179.69,89.68 1180.21,108.27 		"/>
	</g>
	<path class="st1" d="M1159.63,29.68c-5.12,22,2.15,165.27,2.15,165.27l6.72-0.16c0,0,1.53-15.86,1.85-26.76
		c0,0,6.84-3.13,8.82-0.21c1.98,2.93,0.75,26.7,0.75,26.7l39.73-0.96c0.54-13.39,1.05-159.27,1.05-159.27
		C1210.22,21.17,1159.63,29.68,1159.63,29.68z M1204.12,117.53l7.42-0.17l0.4,14.3l-9.76-1.53L1204.12,117.53z M1201.52,106.12
		l1.87-14.92l7.42-0.17l0.47,16.94L1201.52,106.12z M1178.91,153.19l-11.41,0.28c0,0,1.75-7.94,2.22-13.39c0,0,6.89-1.64,8.82-0.21
		C1180.47,141.3,1178.91,153.19,1178.91,153.19z M1178.25,129.51l-11.41,0.28c0,0,1.75-7.94,2.22-13.39c0,0,6.89-1.64,8.82-0.21
		C1179.81,117.62,1178.25,129.51,1178.25,129.51z M1177.58,105.82l-11.41,0.28c0,0,1.75-7.94,2.22-13.39c0,0,6.89-1.64,8.82-0.21
		C1179.14,93.93,1177.58,105.82,1177.58,105.82z M1176.92,82.14l-11.41,0.28c0,0,1.75-7.94,2.22-13.39c0,0,6.89-1.64,8.82-0.21
		C1178.48,70.25,1176.92,82.14,1176.92,82.14z M1176.25,58.46l-11.41,0.28c0,0,1.75-7.94,2.22-13.39c0,0,6.89-1.64,8.82-0.21
		C1177.81,46.57,1176.25,58.46,1176.25,58.46z M1195.91,152.77c0.99,1.95-9.71,0.23-9.71,0.23l-0.39-13.98l12.67-0.3
		C1198.48,138.72,1194.91,150.83,1195.91,152.77z M1195.24,129.09c0.99,1.95-9.71,0.23-9.71,0.23l-0.39-13.98l12.67-0.3
		C1197.81,115.05,1194.25,127.14,1195.24,129.09z M1194.58,105.41c0.99,1.95-9.71,0.23-9.71,0.23l-0.39-13.98l12.67-0.3
		C1197.15,91.37,1193.58,103.46,1194.58,105.41z M1193.91,81.73c0.99,1.95-9.71,0.23-9.71,0.23l-0.39-13.98l12.67-0.3
		C1196.48,67.69,1192.92,79.78,1193.91,81.73z M1194.48,58.02c1.12,1.94-10.93,0.27-10.93,0.27l-0.39-13.98l14.27-0.35
		C1197.42,43.96,1193.36,56.08,1194.48,58.02z M1215.61,155.27l-12.75-1.78l2.57-14.93l9.71-0.23L1215.61,155.27z M1213.62,84.22
		l-12.75-1.78l2.57-14.93l9.71-0.23L1213.62,84.22z M1212.95,60.54l-12.75-1.78l2.57-14.93l9.71-0.23L1212.95,60.54z"/>
</g>
<path class="st2" d="M965.12,185.69c0,0-4.84-70.66-6.01-73.7c-1.17-3.04-33.98-22.06-35.82-22.34
	c-1.84-0.28-12.81,15.52-13.5,12.49c-0.69-3.03-0.95-18.72-2.82-20.25c-1.87-1.53-13.77-2.98-13.05,4.15
	c0.71,7.13,4.96,16.78,4.73,21.02s-12.42,11.27-14.66,12.55c-2.24,1.27-0.91,1.72,0.79,19.26c1.7,17.54-0.38,48.62-0.38,48.62
	L965.12,185.69z"/>
<g>
	<path class="st0" d="M1140.35,189.73c0.35-4.32,2.31-29.15,2.06-34.12c-0.05-0.96-0.13-1.82-0.18-2.58
		c-0.3-3.5-0.39-4.56,2.37-5.34c2.07-0.59,8.98-3.8,15.66-6.91c5.32-2.47,11.34-5.27,12.08-5.38c0.49,0.06,2.93,1.63,4.71,2.77
		c3.64,2.35,6.12,3.88,7.24,3.88c0.38,0,0.6-0.16,0.72-0.29c0.59-0.65,0.75-2.6,0.98-5.99c0.15-2.2,0.34-4.93,0.73-5.58
		c0.44-0.74,4.28-1.55,7.34-1.55c0.58,0,0.9,0.03,1.08,0.07c0,0.95-0.37,4.87-0.65,7.78c-0.39,4.19-0.64,6.79-0.57,7.35
		c0.21,1.57,7.1,7.42,9.48,7.6c0.64,0.05,1.86,0.3,2.86,1.48c1.09,1.29,1.53,3.32,1.27,5.86c-0.53,5.24-2.2,29.24-2.46,33.22
		L1140.35,189.73z"/>
	<path d="M1194.04,129.2c0.19,0,0.34,0,0.46,0.01c-0.07,1.46-0.38,4.71-0.61,7.2c-0.46,4.86-0.64,6.89-0.55,7.49
		c0.16,1.23,2.61,3.43,4.06,4.65c1.48,1.24,4.21,3.32,5.95,3.45c0.56,0.03,1.6,0.25,2.45,1.27c0.98,1.18,1.38,3.05,1.14,5.43
		c-0.51,5.04-2.07,27.4-2.43,32.67l-63.55-2.21c0.45-5.65,2.25-28.79,2.01-33.6c-0.05-0.97-0.13-1.84-0.19-2.6
		c-0.31-3.62-0.27-4.1,1.95-4.74c2.12-0.6,9.05-3.84,15.76-6.95c4.97-2.31,10.58-4.93,11.79-5.3c0.71,0.27,2.84,1.64,4.43,2.66
		c4.2,2.71,6.31,3.98,7.55,3.98c0.62,0,0.98-0.3,1.14-0.49c0.68-0.75,0.86-2.43,1.12-6.34c0.13-1.9,0.32-4.76,0.62-5.3
		C1187.69,129.94,1191.19,129.2,1194.04,129.2 M1194.04,128.04c-2.51,0-7.15,0.66-7.84,1.84c-0.94,1.6-0.69,10.43-1.64,11.48
		c-0.06,0.07-0.16,0.1-0.29,0.1c-1.9,0-10.67-6.65-11.98-6.65h-0.01c-1.36,0.03-23.95,11.19-27.87,12.31
		c-3.91,1.12-2.87,3.16-2.59,8.51c0.28,5.35-2.1,34.65-2.1,34.65l65.87,2.29c0,0,1.93-28.02,2.51-33.76
		c0.58-5.73-2.31-7.8-4.66-7.98c-2.35-0.17-8.79-5.95-8.95-7.09c-0.15-1.13,1.43-14.77,1.17-15.44
		C1195.58,128.12,1194.96,128.04,1194.04,128.04L1194.04,128.04z"/>
</g>
<g>
	<polygon class="st0" points="1170.65,164.07 1161.04,164.3 1160.82,156.25 1170.43,156.02 	"/>
	<polygon class="st0" points="1193.23,166.89 1183.43,167.12 1183.17,158.05 1192.98,157.81 	"/>
	<polygon class="st0" points="1155.96,180.41 1147.33,180.61 1147.09,171.84 1155.71,171.63 	"/>
	<polygon class="st0" points="1172.73,190.05 1163.59,190.27 1163.11,173.04 1172.26,172.82 	"/>
	<polygon class="st0" points="1192.69,182.72 1184.92,182.9 1184.7,174.81 1192.46,174.61 	"/>
</g>
<path class="st3" d="M177.43,212.7c0,0,0.62-25.81-0.83-29.68c-1.46-3.87-4.37-9.67-1.69-11.87c2.68-2.21,30.05-33.74,30.05-33.74
	s6.54,7.65,7.62,8.42c1.08,0.75,26,25.9,26,25.9l2.06,19.92l-0.97,18.6L177.43,212.7z"/>
<g>
	<polygon class="st0" points="201.17,182.44 189.79,182.72 189.52,173.32 200.9,173.04 	"/>
	<polygon class="st0" points="224.45,181.88 213.07,182.15 212.81,172.75 224.19,172.48 	"/>
	<polygon class="st0" points="228.6,202.95 217.23,203.23 216.96,193.83 228.34,193.56 	"/>
	<polygon class="st0" points="204.46,210.26 193.08,210.53 192.51,190.12 203.89,189.84 	"/>
</g>
<path id="rect3000-6_00000060715958081807425460000010147914041808343479_" d="M519.17,169.99c16.53-0.91,19.22,10.63,24.54,11.18
	c14.3,0.35,22.62,2.89,17.59,13.45c-0.15,1.54-3.64,1.43-6.52,1.48l-1.01,0.02c-0.42-3.49-3.83-6.17-7.91-6.08
	c-4.08,0.1-7.35,2.95-7.56,6.46l-25.26,0.62c-0.42-3.49-3.8-6.17-7.89-6.08c-4.07,0.1-7.34,2.94-7.56,6.44
	c-9.34,0.23-4.67-9.32-1.1-15.42c3.48-6.39,1.05-10.19,9.04-11.03C512.01,170.37,514.87,170.05,519.17,169.99L519.17,169.99z
	 M515.17,171.89c-3.97,0.14-7.93,0.57-11.7,1.46c-3.45,1.2-2.53,6.66-4.06,9.26l18.25-0.45l-1.03-10.27
	C516.15,171.87,515.66,171.87,515.17,171.89L515.17,171.89z M518.95,171.87l1.05,10.21l13.49-0.34c2.49-0.06,3.72,0.08,2.96-1.06
	C529.95,172.78,528.51,171.93,518.95,171.87L518.95,171.87z M545.91,191.33c3.72-0.09,6.82,2.59,6.93,5.99
	c0.1,3.39-2.84,6.21-6.57,6.3c-3.72,0.09-6.82-2.58-6.93-5.97C539.25,194.26,542.18,191.43,545.91,191.33L545.91,191.33z
	 M505.2,192.34c3.72-0.09,6.82,2.59,6.93,5.99c0.1,3.39-2.84,6.21-6.57,6.3c-3.72,0.09-6.84-2.58-6.94-5.97
	C498.51,195.28,501.47,192.43,505.2,192.34L505.2,192.34z M545.95,193.63c-2.28,0.06-4.08,1.82-4.02,3.93
	c0.06,2.12,1.97,3.78,4.24,3.72s4.08-1.82,4.02-3.93C550.14,195.25,548.24,193.58,545.95,193.63z M505.27,194.64
	c-2.28,0.06-4.08,1.82-4.02,3.93c0.06,2.12,1.97,3.78,4.24,3.72s4.08-1.82,4.02-3.93C509.44,196.26,507.54,194.59,505.27,194.64z"/>
<path class="st4" d="M978.76,185.74c0,0-10.75-142.37-2.71-148.69c0,0,10.12,1.08,10.7-1.57c0.58-2.66-2.99-12.07-0.38-13.72
	c2.61-1.65,13.55-0.59,13.42-3.49c-0.12-2.9-2.89-13.4,1.33-13.77c4.22-0.37,7.33-3.65,7.32,2.31s-4.05,10.93,0.42,12.29
	c4.47,1.36,3.12,16.04,3.12,16.04s42.53,2.94,43.27,4.76c0.75,1.83,4.25,74.88,2.53,90.12c-1.72,15.24-7.55,52.27-4.65,58.71
	S978.76,185.74,978.76,185.74z"/>
<g>
	<polygon class="st0" points="1001.76,64.22 988.64,64.53 988.2,48.99 1001.32,48.68 	"/>
	<polygon class="st0" points="1023.79,63.69 1010.68,64.01 1010.24,48.47 1023.35,48.15 	"/>
	<polygon class="st0" points="1046.97,64.66 1033.85,64.97 1033.42,49.43 1046.53,49.12 	"/>
	<polygon class="st0" points="997.71,97.67 984.59,97.98 984.15,82.44 997.27,82.13 	"/>
	<polygon class="st0" points="1019.74,97.14 1006.63,97.46 1006.19,81.92 1019.31,81.6 	"/>
	<polygon class="st0" points="1042.92,98.11 1029.8,98.42 1029.37,82.88 1042.48,82.57 	"/>
	<polygon class="st0" points="1001.41,128.37 988.3,128.68 987.86,113.14 1000.97,112.83 	"/>
	<polygon class="st0" points="1023.45,127.83 1010.33,128.15 1009.89,112.61 1023.01,112.29 	"/>
	<polygon class="st0" points="1046.59,127.28 1033.46,127.59 1033.03,112.05 1046.15,111.74 	"/>
	<polygon class="st0" points="998.73,160.49 987.09,160.76 986.66,145.47 998.3,145.19 	"/>
	<polygon class="st0" points="1019.34,160.58 1006.21,160.89 1005.78,145.35 1018.9,145.04 	"/>
	<polygon class="st0" points="1005.81,185.09 992.7,185.4 992.26,169.86 1005.38,169.55 	"/>
	<polygon class="st0" points="1042.85,160.01 1029.73,160.32 1029.3,144.78 1042.41,144.47 	"/>
</g>
<path class="st5" d="M582.98,204.03c0,0-6.84-24-6.17-38.61c0.67-14.6,2.02-26.94,4.3-28.28c2.28-1.34,40.99-5.13,48.06-4.73
	s35.22-2.27,39.18-0.23c3.97,2.03,1.38,11.12,1.51,16.2c0.14,5.08-5.79,52.12-5.75,53.7C664.17,203.65,582.98,204.03,582.98,204.03z
	"/>
<g>
	<polygon class="st0" points="600.17,150.85 592.8,151.03 592.58,143.16 599.95,142.99 	"/>
	<polygon class="st0" points="617.2,150.44 609.83,150.61 609.61,142.75 616.98,142.58 	"/>
	<polygon class="st0" points="636.3,149.97 626.88,150.21 626.63,141.48 636.05,141.25 	"/>
	<polygon class="st0" points="655.32,149.52 644.65,149.78 644.41,140.84 655.07,140.59 	"/>
	<polygon class="st0" points="600.43,164.52 593.07,164.69 592.85,156.83 600.21,156.66 	"/>
	<polygon class="st0" points="617.48,164.12 610.11,164.29 609.88,156.43 617.25,156.25 	"/>
	<polygon class="st0" points="635.57,164.76 626.15,164.98 625.91,156.25 635.33,156.03 	"/>
	<polygon class="st0" points="654.75,164.35 644.08,164.6 643.84,155.68 654.51,155.42 	"/>
	<polygon class="st0" points="600.89,180.53 593.52,180.71 593.3,172.85 600.67,172.67 	"/>
	<polygon class="st0" points="617.92,180.12 610.55,180.3 610.33,172.44 617.7,172.26 	"/>
	<polygon class="st0" points="635.8,179.15 626.39,179.37 626.14,170.64 635.56,170.42 	"/>
	<polygon class="st0" points="631.49,200.94 622.07,201.17 621.66,187.06 631.09,186.82 	"/>
	<polygon class="st0" points="654.46,179.24 643.79,179.49 643.54,170.57 654.21,170.31 	"/>
</g>
<path id="path3553_00000032635863741179004710000011533055504824398229_" d="M1218.29,191.36c-5.46-0.16-10.93-0.34-16.39-0.52
	c0.51-19.56,1.55-26.37,1.94-38.49c0.02-0.66-0.39-1.32-1.01-1.63l-11.65-5.91c0-0.02,0.01-0.06,0.01-0.08
	c0.33-4.56,0.92-11.57,1.06-16.22c0.02-0.87-0.71-1.7-1.63-1.84c-1.35-0.2-3.89-0.64-6.39-0.5c-1.25,0.07-2.52,0.27-3.7,0.88
	s-2.23,1.82-2.46,3.26c0,0.06-0.01,0.12-0.01,0.17c-0.15,2.47-0.28,4.97-0.4,7.48l-10.35-5.25c-0.55-0.28-1.25-0.29-1.82-0.02
	l-31.29,15.02c-0.76,0.37-1.2,1.25-0.99,2.03c1.76,6.63,0.81,18.05-0.12,27.75c-0.37,3.97-0.71,7.65-0.82,10.72
	c-9.68-0.38-19.37-0.75-29.12-1.1c-3.15-9.68-1.75-17.96-0.83-24.29c2.46-0.12,4.98-1.1,6.56-2.59c3.74-1.46,2.95-8.2,7.49-5.09
	c6.21,1.79,7.62-4.67,7.64-8.14c-1.44-5.34,4.58-9.16,3.41-14.38c-0.15-4.39-5.67-6.08-10.16-4.12c0.75-4.57-1.75-10.41-7.85-11.74
	c-3.85-0.83-5.84,3.35-7.86,3.91c-1.33-3.36-5.73-6.41-10.26-6.26c-1.05,0.03-2.11,0.23-3.13,0.64c-3.03,2.2-6.2,4.65-10.69,3.64
	c-5.66-0.34-6.89,4.5-9.16,7.49c-9.2,1.66-7.52,12.5-3.09,18.74c-1.77,6.57,4.36,12.42,10.76,11.68c1.59,3.11,5.57,5.92,7.81,6.71
	c6.33,3.17,7.58,8.13,8.7,21c0,0.72-0.15,1.54-0.39,2.42c-14.24-0.47-28.58-0.88-43.02-1.17c0.94-38.41,12.7-54.79,3.93-145.27
	c-0.08-0.84-0.72-1.62-1.59-1.88c-10.93-3.41-27.61-4.37-41.77-4.57c-0.35-4.5-0.75-10.54-1.59-14.93c-0.18-0.94-1.08-1.71-2.09-1.8
	c-0.2-4.16-0.41-8.94-0.74-12.5c-0.09-1.05-1.1-1.97-2.23-2.01c-0.79-0.03-2.11-0.1-3.56-0.06l0,0c-1.58,0.05-3.32,0.2-5,0.89
	c-1.67,0.69-3.37,2.36-3.45,4.5c0,0.07,0,0.14,0,0.21c0.18,3.09,0.41,6.19,0.66,9.31c-2.58,0.17-5.1,0.42-7.23,0.87
	c-1.39,0.29-2.62,0.64-3.72,1.21c-1.1,0.58-2.28,1.57-2.5,3.09c-0.02,0.17-0.02,0.35-0.01,0.52c0.41,3.67,0.94,7.34,1.63,11.09
	c-3.2,0.09-6.12,0.21-7.97,0.57c-1.36,0.27-1.88,1.09-2.21,1.68s-0.53,1.18-0.72,1.87c-0.38,1.39-0.68,3.19-0.93,5.41
	c-0.51,4.45-0.84,10.61-1.04,17.97c-0.4,14.72-0.24,34.15,0.29,53.57c0.52,19.41,1.4,38.79,2.49,53.37
	c0.51,6.81,1.05,12.55,1.62,16.81c-6.02,0.12-131.14,3.17-137.22,3.35c1.37-14.04,9.42-26.72,10.02-56.79
	c-4.67-0.51-10.45-0.87-16.8-1.12c-0.23-3.48-0.53-7.7-1.01-10.66c-1.45-0.01-3.59-0.03-5.87,0.03c-5,0.14-10.63,0.69-10.86,2.79
	c0.24,2.47,0.51,4.95,0.85,7.43c-11.32-0.12-23.06,0-33.01,0.25c-9.64,0.24-17.61,0.6-21.91,0.99c-6.12,0.55-4.45,45.04-0.58,62.21
	c-0.71,0.07-1.42,0.13-2.13,0.2c-4.48,0.44-9,0.84-13.52,1.23c0.11-30.05,3.04-43.51-3.99-115.96c-12.37-3.86-28.46-5.05-40.24-4.69
	c-4.61,0.14-8.56,0.51-11.37,1.05c-4.89,0.94-6.58,100.87-3.98,123.44c-5.43,0.24-10.88,0.47-16.37,0.68
	c0.79-17.46,4.96-33.28,5.65-67.7c0.01-0.88-0.77-1.71-1.71-1.82c-4.18-0.45-9.15-0.58-14.55-0.49c-16.22,0.28-36.54,2.4-52.31,2.81
	c-9.87,0.25-18.05,2.08-22.01,2.44c-1.24,0.12-2.15,0.9-2.72,1.69c-0.56,0.79-0.93,1.69-1.27,2.76c-0.66,2.14-1.09,4.94-1.38,8.24
	c-0.58,6.61-0.56,15.24-0.14,23.85c0.43,8.61,1.27,17.2,2.38,23.71c0.41,2.44,0.86,4.58,1.37,6.35
	c-5.29,0.06-98.61,2.23-103.92,2.27c2.74-32.8,1.02-101.76-0.58-120.41c-0.35-4-12.72-5.67-27.85-5.77
	c-0.43-5.65-0.92-13.62-1.88-18.93c-2.51-0.01-6.21-0.03-10.14,0.07c-8.64,0.23-18.35,1.1-18.75,4.31
	c0.58,5.28,1.21,10.54,2.22,15.93c-15.04,1.53-27.2,4.19-27.2,7.2l3.6,118.02c-2.8,0.01-5.59,0.03-8.4,0.06
	c-1.96-21.92-1.21-28.36-2.06-40.35l-33.89-17.45l-12.93,8.11c-0.22-5.26-0.48-11.32-0.82-15.76c-0.79-0.05-1.96-0.14-3.2-0.1
	c-2.73,0.09-5.78,0.81-5.84,4.01c0.31,5.75,0.63,11.46,1.12,17.34l-9.77,6.13c4.89,10.22,1.76,30.76,3.39,38.8
	c-10.18,0.19-20.36,0.42-30.53,0.69c-3.85-10.52-2.73-19.64-1.69-26.76c7.83,2.05,18.05-1.03,16.16-9.8
	c15.27-9.86,3.38-30.66-8.72-25.7c3.82-7.92-11.88-13.37-14.97-5.57c-1.55-3.05-4.27-4.31-6.81-4.25c-3.26,0.08-6.21,2.34-5.98,5.79
	c-7.11-3.62-21.96,2.66-14.17,14.4c-15.54,6.69-1.51,26.69,7.65,19.51c2.06,2.17,4.77,3.91,6.52,4.51c7.01,3.5,8.4,9,9.64,23.23
	c0,1.45-0.55,3.26-1.27,5.06c-11.15,0.36-22.27,0.79-33.39,1.31c-1.47-18.35-0.89-24.65-1.68-35.89c-0.02-0.42-0.22-0.81-0.52-1.11
	l-34.38-34.44c-0.39-0.39-0.99-0.61-1.56-0.57c-0.53,0.03-1.05,0.29-1.37,0.67l-30.97,36.73c-0.43,0.51-0.53,1.25-0.24,1.85
	c2.75,5.73,2.81,16.19,2.72,25.1c-0.05,4.46-0.1,8.53,0.28,11.69c0.01,0.13,0.05,0.25,0.06,0.38c-10.4,0.89-20.74,1.88-31.04,2.99
	c0-3.83,0.91-6.84,2.67-9.54c1.1,0.24,2.27,0.38,3.46,0.37c7.16-0.05,12.93-4.9,12.87-10.83c-0.05-5.28-4.71-9.62-10.78-10.46
	c0.08-0.52,0.14-1.06,0.14-1.61c-0.05-5.93-5.07-10.71-11.18-10.66c-0.2,0-0.38,0-0.56,0.01c-5.86,0.34-10.47,5.05-10.42,10.8
	c0,0.12,0.03,0.24,0.03,0.36c-0.33-0.02-0.69-0.03-1.04-0.03c-7.36,0.06-13.29,5.41-13.23,11.98c0.06,6.57,6.07,11.85,13.44,11.81
	c1.12-0.01,2.2-0.15,3.22-0.38c3.35,3.23,4.12,5.58,3.96,9.02c-28.03-3.6-88.59,0.44-134.06,10.08
	c-23.99,5.09,75.51,3.28,100.72,3.22c508.52-1.16,1090.04,0.84,1598.04-2.31c-5.95-2.15-178.33-29.91-377.52-35.06
	c-5.83-0.15-2.21-11.76,0.53-17.14c8.84,1.41,18.82-4.76,19.03-13.48c0.29-6.47-5.44-12.08-11.7-13.72
	c0.22-7.72-7.64-14.67-15.97-13.68c-6.66,0.59-12.09,6.07-12.89,12.15c-9.43,0.38-17.48,9.38-15.31,18.11
	c1.66,7.99,10.95,13.59,19.48,12.05c3.77,3.46,2.98,8.8,2.11,13.22c-0.2,0.98-0.22,1.94-0.39,2.83 M999.56,6.9
	c0.39-0.01,0.7,0.01,1.08,0.02c0.29,3.83,0.52,8.57,0.7,12.44c0.05,1.11,1.14,2.09,2.34,2.09c0.56,3.78,0.94,8.57,1.24,12.49
	c-0.95,0.42-1.52,1.49-1.29,2.45c0.23,0.96,1.22,1.71,2.28,1.72c14.01,0.07,31.71,1.06,42.52,4.06
	c8.44,88.61-3.09,104.55-4.04,143.3c-13.37-0.24-26.83-0.38-40.39-0.37c0.02-3.68,0.11-7.85-0.3-16.05c-0.05-0.98-0.9-1.9-1.94-2.06
	c-1.52-0.24-3.28-0.27-5.14-0.22c-1.9,0.05-3.97,0.03-5.81,0.06s-3.27-0.01-4.68,0.35c-0.92,0.23-1.31,0.79-1.51,1.11
	c-0.2,0.31-0.28,0.54-0.33,0.74c-0.12,0.4-0.15,0.74-0.18,1.12c-0.07,0.76-0.08,1.69-0.07,2.79c0.03,2.19,0.2,5.02,0.43,7.89
	c0.11,1.48,0.26,2.97,0.41,4.39c-2.92,0.03-5.86,0.08-8.79,0.14c-0.58-4.14-1.13-10-1.65-17.02c-1.07-14.48-1.97-33.82-2.49-53.17
	c-0.52-19.37-0.67-38.77-0.28-53.36c0.2-7.3,0.54-13.39,1.02-17.62c0.24-2.12,0.52-3.78,0.79-4.79c0.07-0.23,0.09-0.28,0.15-0.43
	c1.69-0.21,5.19-0.4,9-0.49c1.36-0.03,2.51-1.35,2.26-2.6c-0.87-4.21-1.43-8.34-1.91-12.53c0.02-0.01,0-0.01,0.03-0.02
	c0.43-0.23,1.31-0.53,2.45-0.77c2.27-0.47,5.51-0.77,8.79-0.92c1.25-0.06,2.34-1.2,2.23-2.37c-0.33-3.77-0.58-7.49-0.79-11.24
	c0.01-0.39,0-0.35,0.63-0.61C996.98,7.13,998.27,6.94,999.56,6.9L999.56,6.9z M987.04,45.91c-0.51,0.01-0.99,0.03-1.44,0.05
	c-1.21,0.05-2.19,0.1-2.89,0.18c-1.36,0.16-1.84,1.02-2.05,1.42c-0.21,0.4-0.28,0.71-0.35,1.03c-0.14,0.64-0.2,1.31-0.24,2.1
	c-0.09,1.58-0.08,3.58,0.01,5.57c0.08,1.99,0.24,3.97,0.45,5.52c0.1,0.77,0.21,1.43,0.36,2.01c0.08,0.29,0.15,0.54,0.33,0.9
	c0.09,0.17,0.2,0.39,0.48,0.68c0.28,0.29,0.87,0.74,1.76,0.76c0.02,0,0.05,0,0.07,0l13.23-0.06c1.23-0.01,2.35-1.05,2.34-2.2
	c-0.02-4.28,0.81-6.69,0.86-15.37c0.01-1.03-0.86-2-1.96-2.17C995.05,45.87,990.55,45.82,987.04,45.91L987.04,45.91z M1009.48,46.48
	c-0.52,0.01-1,0.03-1.43,0.05c-1.2,0.05-2.16,0.08-2.9,0.17c-1.36,0.16-1.84,1.02-2.05,1.42c-0.21,0.4-0.28,0.71-0.35,1.03
	c-0.14,0.64-0.2,1.31-0.24,2.1c-0.09,1.58-0.08,3.58,0.01,5.57c0.08,1.99,0.24,3.97,0.45,5.52c0.1,0.77,0.21,1.43,0.36,2.01
	c0.08,0.29,0.15,0.55,0.33,0.91c0.09,0.17,0.2,0.39,0.48,0.68c0.28,0.29,0.87,0.74,1.76,0.76c0.02,0,0.05,0,0.07,0l13.24-0.06
	c1.23-0.01,2.35-1.05,2.34-2.2c-0.02-4.28,0.81-6.69,0.86-15.37c0.01-1.03-0.86-2-1.96-2.17
	C1017.51,46.43,1013.01,46.41,1009.48,46.48L1009.48,46.48z M1030.98,47.85c-1.1,0.03-1.99,0.1-2.6,0.17
	c-1.36,0.15-1.82,1.01-2.02,1.4s-0.26,0.67-0.32,0.97c-0.13,0.59-0.18,1.2-0.23,1.91c-0.08,1.42-0.07,3.19,0,4.97
	c0.08,1.78,0.21,3.54,0.39,4.93c0.09,0.69,0.2,1.28,0.33,1.82c0.07,0.27,0.13,0.52,0.3,0.86c0.09,0.17,0.2,0.37,0.48,0.66
	c0.28,0.29,0.86,0.74,1.75,0.76c0.02,0,0.05,0,0.07,0l11.78-0.06c1.23-0.01,2.35-1.05,2.34-2.2c-0.02-3.78,0.71-5.94,0.77-13.68
	c0.01-1.03-0.86-2-1.96-2.17C1039.02,47.71,1034.23,47.73,1030.98,47.85z M985.77,50.33c2.77-0.1,6.64-0.02,9.43,0.2
	c-0.14,5.35-0.56,8.11-0.72,11.17l-9.18,0.05c-0.03-0.2-0.06-0.27-0.09-0.5c-0.18-1.36-0.33-3.27-0.41-5.17
	c-0.08-1.9-0.1-3.8-0.02-5.16c0.01-0.25,0.03-0.34,0.06-0.54C985.18,50.37,985.34,50.34,985.77,50.33z M1009.58,50.86
	c2.62-0.06,5.71,0.03,8.08,0.22c-0.14,5.36-0.56,8.13-0.72,11.19l-9.19,0.05c-0.03-0.2-0.06-0.28-0.09-0.51
	c-0.18-1.36-0.33-3.26-0.41-5.16c-0.08-1.9-0.1-3.82-0.02-5.17c0.01-0.24,0.03-0.32,0.06-0.53c0.37-0.02,0.52-0.05,0.95-0.06
	C1008.67,50.9,1009.11,50.87,1009.58,50.86z M1031.15,52.22c2.38-0.08,5.66-0.01,8.12,0.16c-0.13,4.47-0.48,6.9-0.63,9.49
	l-7.72,0.03c-0.01-0.1-0.03-0.13-0.05-0.23c-0.16-1.2-0.29-2.89-0.36-4.57c-0.07-1.69-0.09-3.38-0.02-4.57
	c0.01-0.13,0.02-0.16,0.02-0.28C1030.79,52.24,1030.88,52.23,1031.15,52.22L1031.15,52.22z M460.98,88.36
	c1.48-0.06,2.58,0.01,2.61,0.29c0.2,1.62,0.33,7.69-0.09,10.5c-6.03,0.32-7.66-0.17-10.86,0.03l-0.08-9.49
	C452.56,89.23,457.71,88.49,460.98,88.36z M426.18,89.72c0.64-0.01,1.05,0.06,1.07,0.22c0.29,1.6,0.79,7.63,0.53,10.45
	c-6.02,0.74-7.69,0.37-10.88,0.81l-0.66-9.45C416.23,91.2,423.41,89.77,426.18,89.72L426.18,89.72z M443.83,89.6
	c0.37,2.46,0.22,7.89,0.05,9.35c-0.09,0.81-9.83,0.72-9.84,0.12l0.1-8.48C436.99,90.46,438.45,89.87,443.83,89.6z M409.29,90.74
	c0.33,2.23,0.2,7.13,0.05,8.46c-0.09,0.73-8.89,0.65-8.9,0.1l0.1-7.67C403.11,91.53,404.42,91,409.29,90.74z M689.17,84.65
	c2.9-0.1,7.42-0.08,9.83,0.29c-0.05,7.02-0.72,8.93-0.71,12.66l-10.88,0.05c-0.78-0.01-1.46-12.75-0.44-12.87
	C687.42,84.73,688.2,84.68,689.17,84.65L689.17,84.65z M707.65,85.12c2.9-0.1,7.42-0.08,9.83,0.29c-0.05,7.02-0.72,8.93-0.71,12.66
	l-10.88,0.05c-0.78-0.01-1.46-12.75-0.44-12.87C705.9,85.2,706.68,85.16,707.65,85.12L707.65,85.12z M723.43,86.28
	c2.58-0.09,6.6-0.08,8.74,0.27c-0.05,6.26-0.64,7.94-0.63,11.27l-9.7,0.06c-0.69-0.01-1.3-11.35-0.38-11.46
	C721.87,86.36,722.57,86.31,723.43,86.28L723.43,86.28z M1004.27,79.87c-1.43,0.06-2.74,0.13-3.88,0.3
	c-1.09,0.16-1.98,1.12-1.99,2.16c-0.06,8.66,0.72,11.09,0.64,15.37c-0.02,1.14,1.08,2.2,2.3,2.22l13.22,0.22c0.02,0,0.05,0,0.07,0
	c0.89-0.01,1.5-0.45,1.78-0.73c0.29-0.29,0.4-0.5,0.49-0.68c0.18-0.36,0.26-0.61,0.33-0.9c0.16-0.58,0.26-1.24,0.38-2
	c0.23-1.55,0.41-3.53,0.53-5.52c0.11-1.99,0.15-3.98,0.09-5.56c-0.03-0.8-0.09-1.48-0.22-2.12c-0.07-0.32-0.13-0.62-0.33-1.03
	c-0.21-0.4-0.67-1.28-2.02-1.45C1013.54,79.88,1008.56,79.71,1004.27,79.87L1004.27,79.87z M1026.72,79.58
	c-1.43,0.06-2.74,0.13-3.88,0.3c-1.09,0.16-1.98,1.12-1.99,2.16c-0.06,8.66,0.72,11.08,0.64,15.35c-0.02,1.14,1.08,2.2,2.3,2.22
	l13.22,0.23c0.02,0,0.05,0,0.07,0c0.89-0.01,1.5-0.45,1.78-0.73c0.29-0.29,0.4-0.5,0.49-0.68c0.18-0.36,0.25-0.61,0.33-0.9
	c0.16-0.58,0.26-1.24,0.38-2c0.23-1.55,0.41-3.53,0.53-5.52c0.11-1.99,0.15-3.98,0.09-5.56c-0.03-0.8-0.09-1.48-0.22-2.12
	c-0.07-0.32-0.13-0.62-0.33-1.03c-0.21-0.4-0.67-1.28-2.02-1.45C1036,79.58,1031,79.42,1026.72,79.58z M982.21,81.17
	c-1.29,0.05-2.45,0.13-3.45,0.28c-1.09,0.16-1.98,1.12-1.99,2.16c-0.06,7.72,0.63,9.86,0.56,13.66c-0.02,1.14,1.08,2.2,2.3,2.22
	l11.78,0.21c0.02,0,0.05,0,0.07,0c0.89-0.01,1.5-0.45,1.77-0.73c0.29-0.28,0.39-0.49,0.48-0.66c0.18-0.35,0.24-0.59,0.31-0.86
	c0.15-0.53,0.26-1.12,0.36-1.82c0.21-1.39,0.37-3.14,0.47-4.93c0.1-1.78,0.14-3.56,0.08-4.98c-0.03-0.72-0.08-1.32-0.2-1.91
	c-0.06-0.29-0.13-0.58-0.32-0.97c-0.2-0.39-0.66-1.26-2-1.43C990.47,81.16,986.04,81.02,982.21,81.17L982.21,81.17z M1004.46,84.24
	c3.26-0.12,6.95,0.02,9.04,0.16c0.01,0.2,0.05,0.28,0.05,0.51c0.06,1.35,0.01,3.26-0.1,5.16c-0.12,1.9-0.28,3.8-0.47,5.17
	c-0.03,0.22-0.06,0.31-0.09,0.5l-9.19-0.16c-0.12-3.08-0.51-5.84-0.56-11.23C1003.61,84.31,1003.93,84.27,1004.46,84.24
	L1004.46,84.24z M1026.92,83.95c3.26-0.12,6.95,0.02,9.04,0.16c0.01,0.2,0.05,0.28,0.05,0.51c0.06,1.35,0.01,3.26-0.1,5.16
	c-0.12,1.9-0.28,3.8-0.47,5.17c-0.03,0.22-0.06,0.3-0.09,0.49l-9.19-0.16c-0.12-3.06-0.51-5.83-0.56-11.22
	C1026.06,84.02,1026.39,83.97,1026.92,83.95L1026.92,83.95z M982.41,85.54c2.78-0.1,5.93,0.01,7.82,0.13
	c0.01,0.1,0.01,0.13,0.02,0.23c0.05,1.19,0.02,2.89-0.08,4.57c-0.09,1.69-0.25,3.38-0.43,4.58c-0.01,0.1-0.02,0.13-0.05,0.23
	l-7.71-0.14c-0.12-2.59-0.44-5.02-0.49-9.52C981.83,85.6,982.04,85.55,982.41,85.54L982.41,85.54z M444.69,102.38
	c0.41,2.76,0.26,8.86,0.06,10.5c-0.1,0.9-11.03,0.8-11.04,0.12l0.13-9.5C437.04,103.38,438.66,102.71,444.69,102.38L444.69,102.38z
	 M409.9,104.01c0.37,2.51,0.22,8.01,0.05,9.49c-0.09,0.82-9.99,0.72-9.99,0.1l0.12-8.6C402.96,104.91,404.45,104.3,409.9,104.01z
	 M460.66,104.5c1.48-0.06,2.57,0.01,2.6,0.29c0.2,1.62,0.33,7.69-0.09,10.5c-6.03,0.32-7.66-0.17-10.86,0.03l-0.08-9.5
	C452.23,105.36,457.39,104.63,460.66,104.5L460.66,104.5z M426.8,105.8c0.64-0.01,1.06,0.06,1.08,0.22
	c0.29,1.6,0.78,7.63,0.52,10.45c-6.02,0.74-7.67,0.37-10.87,0.81l-0.66-9.45C416.86,107.29,424.03,105.84,426.8,105.8L426.8,105.8z
	 M704.38,106.63c3.39-0.13,7.66,0.05,9.05,0.22c1.02,0.13,0.17,12.86-0.61,12.86l-10.88-0.18c0.07-3.73-0.59-5.64-0.54-12.66
	C702.2,106.74,703.25,106.67,704.38,106.63L704.38,106.63z M722.86,106.39c3.39-0.13,7.66,0.05,9.05,0.22
	c1.02,0.13,0.17,12.86-0.61,12.86l-10.88-0.18c0.07-3.73-0.59-5.64-0.54-12.66C720.68,106.5,721.73,106.43,722.86,106.39z
	 M689.33,107.61c3.03-0.12,6.83,0.03,8.08,0.18c0.91,0.12,0.15,11.46-0.54,11.46l-9.7-0.17c0.06-3.32-0.52-5.01-0.47-11.27
	C687.41,107.71,688.32,107.66,689.33,107.61L689.33,107.61z M444.97,118.5c0.41,2.76,0.24,8.86,0.05,10.5
	c-0.1,0.9-11.02,0.81-11.03,0.13l0.12-9.52C437.3,119.49,438.94,118.81,444.97,118.5z M460,118.57c1.32-0.05,2.29,0.01,2.32,0.25
	c0.17,1.45,0.29,6.84-0.09,9.35c-5.37,0.29-6.81-0.15-9.66,0.03l-0.08-8.45C452.5,119.35,457.1,118.69,460,118.57z M426.82,119.86
	c0.58-0.01,0.92,0.06,0.95,0.21c0.25,1.42,0.7,6.79,0.48,9.31c-5.36,0.66-6.85,0.34-9.7,0.72l-0.58-8.42
	C417.96,121.17,424.36,119.89,426.82,119.86z M410.43,120.98c0.37,2.51,0.22,8.01,0.05,9.49c-0.09,0.82-9.97,0.73-9.97,0.12l0.1-8.6
	C403.49,121.88,404.97,121.27,410.43,120.98z M1014.76,110.39c-0.49,0.01-0.97,0.03-1.4,0.06c-3.73,0.14-7.42,0.46-9.18,0.77
	c-1.35,0.24-1.76,1.13-1.94,1.55c-0.18,0.42-0.23,0.73-0.28,1.04c-0.09,0.65-0.1,1.33-0.1,2.13c0.02,1.58,0.17,3.57,0.4,5.55
	c0.23,1.98,0.52,3.95,0.83,5.48c0.15,0.76,0.3,1.41,0.49,1.99c0.09,0.29,0.18,0.53,0.39,0.88c0.1,0.17,0.23,0.38,0.53,0.65
	c0.3,0.27,0.93,0.68,1.82,0.65c0.02,0,0.05,0,0.07,0l13.2-0.87c1.22-0.08,2.26-1.19,2.17-2.34c-0.32-4.27,0.33-6.72-0.21-15.37
	c-0.06-1.03-1-1.95-2.11-2.06c-1.25-0.13-2.77-0.15-4.43-0.12C1014.93,110.39,1014.85,110.39,1014.76,110.39L1014.76,110.39z
	 M992.34,111.18c-0.47,0.01-0.94,0.02-1.42,0.05c-3.73,0.14-7.43,0.47-9.18,0.79c-1.35,0.24-1.76,1.13-1.94,1.55
	c-0.18,0.42-0.23,0.73-0.28,1.04c-0.09,0.65-0.1,1.33-0.1,2.13c0.02,1.58,0.17,3.57,0.4,5.55c0.23,1.98,0.52,3.95,0.83,5.48
	c0.15,0.76,0.3,1.41,0.49,1.99c0.09,0.29,0.18,0.53,0.39,0.88c0.1,0.17,0.23,0.38,0.53,0.65c0.3,0.27,0.93,0.68,1.82,0.65
	c0.02,0,0.05,0,0.07,0l13.2-0.87c1.22-0.08,2.26-1.19,2.17-2.34c-0.32-4.27,0.33-6.73-0.21-15.38c-0.06-1.03-1-1.95-2.11-2.06
	c-1.28-0.13-2.78-0.14-4.43-0.1C992.5,111.17,992.42,111.17,992.34,111.18L992.34,111.18z M1037.17,110.61
	c-0.48,0.01-0.99,0.02-1.48,0.05c-3.32,0.13-6.62,0.42-8.21,0.69c-1.33,0.23-1.75,1.12-1.92,1.53c-0.17,0.4-0.22,0.69-0.26,0.98
	c-0.09,0.59-0.1,1.2-0.09,1.92c0.02,1.43,0.15,3.2,0.36,4.97c0.21,1.77,0.46,3.53,0.75,4.9c0.14,0.68,0.29,1.27,0.46,1.79
	c0.09,0.27,0.16,0.51,0.37,0.83c0.1,0.16,0.22,0.36,0.52,0.64c0.3,0.28,0.92,0.68,1.81,0.65c0.02,0,0.05,0,0.07,0l11.75-0.77
	c1.22-0.08,2.26-1.19,2.17-2.34c-0.28-3.77,0.31-5.97-0.17-13.69c-0.06-1.03-1-1.95-2.11-2.06
	C1039.99,110.59,1038.63,110.57,1037.17,110.61L1037.17,110.61z M1015.12,114.76c0.71-0.01,1.2,0.05,1.82,0.06
	c0.24,5.38,0,8.15,0.06,11.23l-9.17,0.6c-0.05-0.19-0.08-0.27-0.13-0.49c-0.28-1.35-0.55-3.25-0.76-5.13
	c-0.22-1.88-0.37-3.79-0.39-5.15c0-0.24,0.01-0.32,0.02-0.52c1.69-0.2,4.26-0.44,6.97-0.54
	C1014.13,114.79,1014.66,114.77,1015.12,114.76L1015.12,114.76z M992.68,115.54c0.71-0.02,1.2,0.03,1.82,0.05
	c0.24,5.38,0.01,8.16,0.06,11.23l-9.17,0.6c-0.05-0.18-0.08-0.27-0.13-0.49c-0.28-1.35-0.55-3.25-0.76-5.13
	c-0.22-1.88-0.37-3.79-0.39-5.15c0-0.24,0.01-0.32,0.02-0.52c1.69-0.2,4.26-0.45,6.97-0.55
	C991.66,115.58,992.19,115.55,992.68,115.54L992.68,115.54z M1035.87,115.02c1.08-0.05,1.84,0.02,2.76,0.03
	c0.18,4.47,0,6.91,0.02,9.5l-7.69,0.5c-0.02-0.09-0.03-0.13-0.06-0.22c-0.24-1.19-0.49-2.88-0.68-4.56
	c-0.2-1.68-0.32-3.36-0.33-4.56c0-0.12,0-0.14,0-0.24C1031.43,115.31,1033.58,115.11,1035.87,115.02L1035.87,115.02z M713.02,125.81
	c1.3-0.02,2.5,0,3.41,0.09c0.44,7.01-0.1,8.95,0.17,12.67l-10.86,0.72c-0.78,0.03-2.35-12.64-1.32-12.81
	c1.15-0.21,4.3-0.5,7.28-0.61C712.14,125.83,712.58,125.82,713.02,125.81L713.02,125.81z M694.55,126.46c1.3-0.02,2.5,0,3.41,0.09
	c0.44,7.01-0.1,8.95,0.17,12.67l-10.86,0.72c-0.78,0.03-2.35-12.64-1.32-12.81c1.15-0.21,4.3-0.5,7.28-0.61
	C693.68,126.48,694.12,126.47,694.55,126.46z M728.15,126.06c1.16-0.02,2.23,0.01,3.04,0.08c0.39,6.24-0.1,7.97,0.15,11.28
	l-9.66,0.62c-0.69,0.02-2.09-11.26-1.2-11.42c1.02-0.18,3.83-0.44,6.49-0.54C727.37,126.09,727.76,126.08,728.15,126.06z
	 M461.97,132.78c1.48-0.06,2.57,0.01,2.6,0.29c0.2,1.62,0.33,7.69-0.09,10.5c-6.03,0.32-7.65-0.17-10.85,0.03l-0.09-9.49
	C453.53,133.65,458.7,132.91,461.97,132.78L461.97,132.78z M427.17,134.15c0.64-0.01,1.05,0.06,1.07,0.22
	c0.29,1.6,0.78,7.63,0.52,10.45c-6.02,0.74-7.67,0.36-10.87,0.8l-0.66-9.43C417.22,135.63,424.39,134.19,427.17,134.15z
	 M444.79,134.02c0.37,2.46,0.23,7.89,0.06,9.35c-0.09,0.81-9.83,0.72-9.84,0.12l0.1-8.48C437.97,134.9,439.43,134.31,444.79,134.02z
	 M410.26,135.16c0.33,2.23,0.2,7.13,0.05,8.46c-0.09,0.73-8.88,0.65-8.89,0.1l0.09-7.67C404.08,135.96,405.4,135.42,410.26,135.16z
	 M204.39,140.18l32.33,32.42c0.7,10.57,0.25,17.34,1.69,35.23c-11.04,0.53-22.05,1.16-33.03,1.88c-0.16-7.23-0.61-16.01-0.89-19.07
	c-0.08-0.86-0.68-1.57-1.24-1.93c-0.56-0.36-1.13-0.51-1.69-0.64c-1.13-0.24-2.37-0.29-3.67-0.23c-1.67,0.07-3.38,0.31-4.82,0.71
	c-0.72,0.2-1.36,0.4-1.98,0.76c-0.31,0.17-0.62,0.38-0.92,0.72c-0.3,0.35-0.6,0.9-0.58,1.54v0.01l0.82,19.18
	c-4,0.3-8,0.61-11.98,0.95c-0.02-0.15-0.06-0.3-0.07-0.46c-0.33-2.76-0.29-6.8-0.24-11.26c0.09-8.5,0.28-18.46-2.63-25.53
	L204.39,140.18z M649.9,133.6c1.02-0.03,2.02-0.06,3.01-0.07c4.54-0.08,8.58,0.01,12.15,0.3c-0.79,33.08-4.81,48.56-5.56,66.21
	c-9.22,0.32-18.49,0.59-27.83,0.82c0-3.33,0.07-7.06-0.3-14.22c-0.03-0.82-0.75-1.56-1.61-1.7c-1.25-0.2-2.7-0.22-4.23-0.18
	c-3.38,0.09-6.89,0.5-8.64,0.94c-0.66,0.16-0.99,0.55-1.16,0.8s-0.24,0.42-0.3,0.57c-0.1,0.31-0.14,0.54-0.17,0.81
	c-0.07,0.52-0.09,1.11-0.09,1.82c-0.01,1.41,0.07,3.26,0.21,5.24c0.15,2.16,0.36,4.31,0.59,6.28c-11.68,0.22-23.45,0.38-35.29,0.51
	c-0.53-1.69-1.06-4.06-1.54-6.87c-1.08-6.3-1.92-14.8-2.35-23.31c-0.43-8.51-0.44-17.05,0.13-23.4c0.28-3.18,0.71-5.82,1.24-7.53
	c0.26-0.86,0.58-1.48,0.77-1.77c0.07-0.1,0.07-0.1,0.08-0.12c4.66-0.45,12.22-2.16,21.5-2.4
	C615.58,135.93,634.56,134.08,649.9,133.6L649.9,133.6z M649.17,137.52c-1.75,0.07-3.88,0.28-5.66,0.55
	c-0.9,0.14-1.68,0.29-2.34,0.45c-0.32,0.08-0.61,0.16-0.94,0.3c-0.17,0.07-0.36,0.16-0.61,0.37c-0.25,0.21-0.72,0.62-0.74,1.42
	c0,0.01,0,0.03,0,0.05l0.09,9.49c0.01,0.98,1.02,1.86,2.07,1.79c2.95-0.19,4.68,0.3,10.84-0.02c0.89-0.05,1.69-0.74,1.81-1.56
	c0.48-3.21,0.33-8.94,0.09-10.94c-0.07-0.57-0.44-1.04-0.72-1.28c-0.29-0.23-0.53-0.32-0.72-0.39c-0.4-0.14-0.7-0.18-1.02-0.21
	C650.67,137.49,649.96,137.5,649.17,137.52L649.17,137.52z M614.41,138.9c-1.71,0.03-4.16,0.42-6.39,0.87
	c-1.1,0.22-2.13,0.47-2.95,0.72c-0.4,0.13-0.76,0.23-1.12,0.4c-0.18,0.08-0.36,0.16-0.61,0.37c-0.25,0.2-0.81,0.61-0.77,1.56
	c0,0.01,0,0.03,0,0.05l0.66,9.43c0.07,0.99,1.16,1.82,2.22,1.68c2.95-0.39,4.71-0.05,10.86-0.81c0.86-0.1,1.6-0.82,1.68-1.63
	c0.3-3.24-0.21-8.91-0.56-10.9c-0.13-0.68-0.67-1.17-1.02-1.36c-0.36-0.2-0.6-0.24-0.82-0.29
	C615.15,138.89,614.8,138.89,614.41,138.9L614.41,138.9z M631.99,138.77c-5.5,0.29-7.06,0.88-9.66,0.99
	c-0.98,0.03-1.84,0.87-1.85,1.78l-0.1,8.48c0,0.01,0,0.03,0,0.05c0.01,0.58,0.33,1.05,0.58,1.28c0.24,0.23,0.44,0.34,0.6,0.42
	c0.31,0.15,0.52,0.19,0.74,0.23c0.43,0.09,0.86,0.15,1.37,0.2c1.01,0.09,2.27,0.13,3.54,0.13c1.28,0,2.54-0.05,3.58-0.15
	c0.52-0.06,0.98-0.12,1.45-0.24c0.23-0.06,0.47-0.13,0.81-0.31c0.32-0.18,0.93-0.6,1.04-1.48c0.22-1.84,0.39-6.91-0.05-9.8
	C633.89,139.43,632.94,138.71,631.99,138.77L631.99,138.77z M826.18,134.13c1.48-0.06,2.58,0.02,2.61,0.3
	c0.2,1.62,0.33,7.69-0.09,10.5c-6.03,0.32-7.66-0.19-10.86,0.02l-0.09-9.49c0-0.16,0.63-0.35,1.55-0.53
	c2.12-0.12,4.06-0.36,5.65-0.73C825.36,134.18,825.79,134.16,826.18,134.13L826.18,134.13z M597.44,139.92
	c-4.99,0.27-6.4,0.8-8.72,0.89c-0.98,0.03-1.84,0.87-1.85,1.78l-0.1,7.67c0,0.01,0,0.03,0,0.05c0.01,0.58,0.32,1.05,0.56,1.28
	s0.44,0.34,0.6,0.4c0.31,0.15,0.51,0.18,0.71,0.23c0.4,0.09,0.81,0.13,1.27,0.17c0.92,0.08,2.07,0.12,3.22,0.12
	c1.16,0,2.31-0.03,3.27-0.14c0.48-0.05,0.9-0.1,1.33-0.22c0.22-0.06,0.45-0.12,0.77-0.3c0.32-0.18,0.92-0.59,1.02-1.47
	c0.21-1.71,0.35-6.26-0.06-8.9C599.33,140.59,598.4,139.87,597.44,139.92z M791.38,135.51c0.64-0.01,1.05,0.05,1.07,0.21
	c0.29,1.6,0.79,7.63,0.53,10.45c-6.02,0.74-7.69,0.37-10.88,0.81l-0.66-9.43C781.43,136.99,788.61,135.56,791.38,135.51z
	 M809.03,135.37c0.37,2.46,0.22,7.89,0.05,9.35c-0.09,0.81-9.83,0.72-9.84,0.12l0.1-8.48C802.18,136.25,803.66,135.66,809.03,135.37
	z M774.47,136.53c0.33,2.23,0.21,7.12,0.06,8.45c-0.09,0.73-8.89,0.65-8.9,0.1l0.1-7.67C768.3,137.31,769.61,136.78,774.47,136.53z
	 M649.33,141.13c0.29-0.01,0.41,0.01,0.66,0.01c0.09,1.77,0.14,4.82-0.01,7.23c-3.28,0.09-5.22,0.01-7.13-0.01l-0.07-6.46
	c0.4-0.08,0.79-0.17,1.36-0.25C645.74,141.4,647.81,141.19,649.33,141.13L649.33,141.13z M613.74,142.58
	c0.2,1.78,0.41,4.79,0.4,7.17c-3.29,0.34-5.25,0.38-7.16,0.5l-0.45-6.39c0.61-0.17,1.39-0.37,2.31-0.55
	C610.6,142.95,612.5,142.68,613.74,142.58L613.74,142.58z M445.68,146.82c0.41,2.76,0.24,8.86,0.05,10.5
	c-0.1,0.9-11.02,0.8-11.03,0.12l0.12-9.5C438.01,147.8,439.65,147.13,445.68,146.82L445.68,146.82z M630.24,142.56
	c0.1,2.12,0.09,4.49,0.01,6c-0.81,0.08-1.92,0.13-3.06,0.13c-1.08,0-2.12-0.05-2.92-0.1l0.07-5.42
	C625.89,142.98,627.8,142.78,630.24,142.56L630.24,142.56z M595.7,143.72c0.08,1.84,0.07,3.71,0.01,5.06
	c-0.71,0.06-1.62,0.1-2.59,0.1c-0.91,0-1.76-0.03-2.46-0.09l0.07-4.58C592.03,144.07,593.71,143.9,595.7,143.72z M410.86,148.45
	c0.37,2.51,0.24,8.01,0.06,9.49c-0.09,0.82-9.99,0.72-9.99,0.1l0.12-8.6C403.95,149.34,405.41,148.74,410.86,148.45z
	 M1184.46,129.78c1.22-0.07,2.59,0.07,3.83,0.22c-0.18,4.17-0.59,9.52-0.9,13.6c-0.05,0.02-0.05,0.03-0.09,0.06
	c-1.29,0.55-1.37,2.58-0.12,3.21l12.74,6.46c-0.41,11.19-1.38,18.56-1.88,37.38c-9.56-0.32-19.13-0.68-28.72-1.05
	c0.16-6.5,0.08-10.27,0.36-15.27c0.06-0.89-0.7-1.76-1.66-1.88l-10.15-1.43c-0.03,0-0.07-0.01-0.1-0.01
	c-0.68-0.06-1.24,0.24-1.5,0.46c-0.25,0.22-0.36,0.38-0.44,0.51c-0.15,0.24-0.2,0.38-0.24,0.52c-0.09,0.29-0.14,0.55-0.21,0.88
	c-0.13,0.65-0.25,1.49-0.38,2.51c-0.25,2.05-0.52,4.76-0.75,7.61c-0.15,1.85-0.28,3.73-0.38,5.52c-5.9-0.23-11.84-0.46-17.76-0.69
	c0.1-2.9,0.45-6.58,0.82-10.57c0.86-9.15,1.91-19.78,0.3-27.51l29.11-13.97l12.16,6.17c1.15,0.59,2.82-0.29,2.86-1.51
	c0.13-3.4,0.31-6.75,0.52-10.13c0.07-0.4,0.11-0.46,0.51-0.66C1182.79,130.01,1183.54,129.83,1184.46,129.78L1184.46,129.78z
	 M461.62,148.92c1.48-0.06,2.58,0.02,2.61,0.3c0.2,1.62,0.33,7.69-0.09,10.5c-6.03,0.32-7.66-0.19-10.86,0.02l-0.08-9.49
	C453.2,149.79,458.37,149.05,461.62,148.92L461.62,148.92z M427.78,150.23c0.64-0.01,1.05,0.06,1.07,0.22
	c0.29,1.6,0.79,7.63,0.53,10.45c-6.02,0.74-7.69,0.37-10.88,0.81l-0.66-9.45C417.84,151.71,425,150.28,427.78,150.23z
	 M723.05,146.65c3.07-0.12,6.93,0.03,8.19,0.2c0.93,0.12,0.16,11.62-0.55,11.63l-9.85-0.17c0.06-3.38-0.52-5.1-0.47-11.45
	C721.1,146.75,722.03,146.69,723.05,146.65z M703.57,147.19c3.07-0.12,6.93,0.03,8.19,0.2c0.93,0.12,0.16,11.63-0.55,11.64
	l-9.84-0.17c0.06-3.38-0.53-5.11-0.49-11.46C701.62,147.29,702.55,147.22,703.57,147.19z M688.03,147.87
	c2.74-0.1,6.17,0.03,7.29,0.17c0.83,0.1,0.14,10.36-0.48,10.37l-8.78-0.15c0.06-3.01-0.47-4.54-0.43-10.2
	C686.28,147.96,687.11,147.91,688.03,147.87L688.03,147.87z M598.06,153.19c-5.59,0.29-7.18,0.9-9.81,1.02
	c-0.98,0.03-1.84,0.87-1.85,1.78l-0.12,8.6c0,0.01,0,0.03,0,0.05c0.01,0.58,0.33,1.06,0.59,1.29c0.24,0.23,0.44,0.32,0.6,0.4
	c0.32,0.15,0.53,0.2,0.75,0.24c0.44,0.09,0.87,0.15,1.38,0.2c1.02,0.09,2.31,0.13,3.6,0.13c1.29,0,2.57-0.05,3.64-0.15
	c0.53-0.06,1-0.13,1.47-0.25c0.24-0.06,0.47-0.13,0.81-0.31s0.93-0.6,1.04-1.48c0.22-1.86,0.39-7.02-0.05-9.94
	C599.96,153.86,599.02,153.14,598.06,153.19z M809.89,148.18c0.41,2.76,0.25,8.85,0.06,10.49c-0.1,0.9-11.03,0.81-11.04,0.13
	l0.13-9.52C802.23,149.15,803.86,148.49,809.89,148.18z M1027.35,142.92c-1.3,0.05-2.49,0.13-3.52,0.28
	c-1.09,0.16-1.98,1.12-1.99,2.16c-0.06,7.84,0.64,10.02,0.56,13.89c-0.02,1.14,1.08,2.2,2.3,2.22l11.98,0.21c0.02,0,0.05,0,0.07,0
	c0.89-0.01,1.48-0.45,1.77-0.73c0.29-0.28,0.39-0.49,0.48-0.66c0.18-0.35,0.25-0.6,0.32-0.87c0.15-0.54,0.24-1.13,0.35-1.84
	c0.21-1.41,0.38-3.19,0.48-4.99c0.1-1.8,0.15-3.61,0.09-5.05c-0.03-0.73-0.08-1.34-0.2-1.93c-0.06-0.3-0.13-0.59-0.32-0.98
	c-0.2-0.39-0.67-1.26-2.01-1.43C1035.76,142.92,1031.25,142.77,1027.35,142.92L1027.35,142.92z M1003.69,143.57
	c-1.3,0.05-2.5,0.13-3.53,0.28c-1.09,0.16-1.98,1.12-1.99,2.16c-0.06,7.85,0.67,10.06,0.6,13.91c-0.02,1.14,1.08,2.21,2.31,2.22
	l11.95,0.2c0.02,0,0.05,0,0.06,0c0.89-0.01,1.48-0.45,1.77-0.73c0.29-0.28,0.39-0.49,0.48-0.66c0.18-0.35,0.25-0.6,0.32-0.87
	c0.15-0.54,0.24-1.13,0.35-1.84c0.21-1.41,0.38-3.2,0.48-5.01c0.1-1.8,0.15-3.61,0.09-5.05c-0.03-0.73-0.08-1.34-0.2-1.93
	c-0.06-0.3-0.11-0.58-0.32-0.97c-0.2-0.39-0.67-1.27-2.01-1.45C1012.09,143.58,1007.59,143.43,1003.69,143.57L1003.69,143.57z
	 M984.8,144.4c-1.19,0.05-2.26,0.13-3.16,0.25c-1.09,0.16-1.98,1.12-1.99,2.16c-0.05,7.01,0.58,8.96,0.52,12.36
	c-0.02,1.14,1.08,2.2,2.3,2.22l10.67,0.19c0.02,0,0.05,0,0.07,0c0.89-0.01,1.5-0.45,1.77-0.73c0.28-0.28,0.38-0.47,0.47-0.65
	c0.17-0.34,0.24-0.55,0.3-0.81c0.14-0.5,0.23-1.03,0.32-1.66c0.18-1.26,0.33-2.87,0.43-4.47c0.09-1.62,0.14-3.23,0.08-4.52
	c-0.02-0.65-0.07-1.2-0.18-1.76c-0.06-0.28-0.12-0.54-0.3-0.92c-0.2-0.38-0.64-1.25-1.99-1.42
	C992.28,144.4,988.29,144.27,984.8,144.4L984.8,144.4z M775.1,149.8c0.37,2.51,0.22,8.01,0.05,9.49c-0.09,0.82-9.99,0.73-9.99,0.12
	l0.11-8.6C768.16,150.69,769.65,150.09,775.1,149.8z M648.83,153.67c-1.75,0.07-3.89,0.28-5.66,0.55c-0.89,0.14-1.67,0.29-2.32,0.45
	c-0.32,0.08-0.61,0.16-0.94,0.3c-0.17,0.07-0.36,0.16-0.61,0.37c-0.25,0.21-0.72,0.62-0.74,1.42c0,0.01,0,0.02,0,0.03l0.02,7.33
	c0,0.98,1.01,1.87,2.07,1.8c2.95-0.18,4.68,0.29,10.84-0.03c0.89-0.05,1.69-0.74,1.81-1.56c0.46-3.08,0.38-6.9,0.15-8.78
	c-0.07-0.57-0.43-1.04-0.72-1.28c-0.3-0.23-0.55-0.32-0.75-0.39c-0.4-0.14-0.69-0.17-1.01-0.2
	C650.33,153.64,649.63,153.65,648.83,153.67L648.83,153.67z M632.93,154.46c-6.16,0.32-7.89,0.98-10.84,1.11
	c-0.97,0.03-1.83,0.84-1.85,1.75l-0.21,6.63c0,0.02,0,0.06,0,0.08c0.01,0.59,0.33,1.05,0.59,1.29c0.25,0.24,0.44,0.34,0.61,0.42
	c0.32,0.15,0.55,0.2,0.78,0.25c0.46,0.1,0.93,0.15,1.5,0.2c1.13,0.1,2.54,0.14,3.97,0.14c1.43,0,2.83-0.05,3.99-0.16
	c0.58-0.06,1.09-0.13,1.59-0.27c0.25-0.07,0.49-0.15,0.83-0.34c0.33-0.18,0.95-0.6,1.06-1.49c0.21-1.73,0.47-5.01,0.02-8.06
	C634.83,155.12,633.9,154.4,632.93,154.46L632.93,154.46z M615.03,154.98c-1.71,0.03-4.16,0.42-6.39,0.87
	c-1.1,0.22-2.13,0.47-2.95,0.72c-0.4,0.13-0.76,0.23-1.12,0.4c-0.18,0.08-0.36,0.16-0.61,0.37c-0.25,0.2-0.81,0.61-0.77,1.56
	c0,0.02,0,0.06,0,0.08l0.58,6.56c0.08,0.98,1.17,1.78,2.21,1.64c2.95-0.39,4.71-0.05,10.86-0.81c0.86-0.1,1.6-0.82,1.68-1.63
	c0.28-3.11-0.17-6.32-0.48-8.02c-0.13-0.68-0.67-1.17-1.02-1.36c-0.36-0.2-0.6-0.24-0.82-0.29
	C615.77,154.97,615.42,154.97,615.03,154.98L615.03,154.98z M825.84,150.29c1.48-0.06,2.58,0.01,2.61,0.29
	c0.2,1.62,0.33,7.69-0.09,10.5c-6.03,0.32-7.66-0.17-10.86,0.03l-0.08-9.49C817.41,151.15,822.58,150.41,825.84,150.29z M792,151.59
	c0.64-0.01,1.05,0.05,1.07,0.21c0.29,1.6,0.79,7.63,0.53,10.45c-6.02,0.74-7.69,0.37-10.88,0.81l-0.66-9.43
	C782.05,153.07,789.22,151.64,792,151.59z M1316.72,139.5c5.45-0.03,9.35,5.7,8.15,10.48c0.79,3.33,5.11,2.87,7.6,4.32
	c4.19,2.32,5.69,8.43,1.86,11.64c-1.71,1.69-4.18,2.77-6.66,3.06c1.48-2.02,4.45-3.88,4.07-6.58c-0.82-2.09-3.95-2.03-5.46-0.68
	c-4.96,2.47-11.9,2.56-15.73-1.73c-1.47-1.57-3.15-4.83-5.91-3.82c-2.2,1.31-0.85,4.02,0.14,5.63c0.95,1.97,2.72,4.07,2.2,6.3
	c-1.93,0.31-4.88-0.94-5.95,1.32c-0.14,0.79-0.29,1.06-1.17,0.62c-5.98-1.77-9.31-9.38-5.19-14.18c2.84-3.56,8.24-5.02,12.72-3.78
	c2.11-0.82,1.24-3.05,0.93-4.58c0.26-3.97,3.45-7.76,7.88-7.99C1316.36,139.51,1316.55,139.51,1316.72,139.5z M596.31,156.95
	c0.12,2.16,0.1,4.66,0.01,6.2c-0.82,0.08-1.98,0.13-3.14,0.13c-1.1,0-2.17-0.05-2.99-0.1l0.08-5.56
	C591.93,157.42,593.62,157.17,596.31,156.95L596.31,156.95z M1027.54,147.29c2.84-0.1,6.05,0.02,7.98,0.15
	c0.01,0.12,0.01,0.15,0.02,0.27c0.05,1.21,0.01,2.93-0.09,4.64c-0.1,1.71-0.25,3.42-0.43,4.65c-0.02,0.12-0.03,0.15-0.06,0.27
	l-7.92-0.14c-0.12-2.66-0.43-5.12-0.49-9.75C1026.93,147.35,1027.16,147.3,1027.54,147.29L1027.54,147.29z M1003.89,147.94
	c2.84-0.1,6.04,0.02,7.97,0.15c0.01,0.12,0.01,0.15,0.02,0.27c0.05,1.21,0.01,2.94-0.09,4.65c-0.1,1.71-0.25,3.42-0.43,4.65
	c-0.02,0.13-0.03,0.16-0.06,0.28l-7.89-0.14c-0.12-2.66-0.45-5.15-0.52-9.77C1003.27,148,1003.51,147.95,1003.89,147.94
	L1003.89,147.94z M344.44,163.92c0.64-0.01,1.06,0.06,1.08,0.22c0.29,1.6,0.78,7.63,0.52,10.45c-6.02,0.74-7.67,0.37-10.87,0.81
	l-0.66-9.45C334.5,165.4,341.66,163.97,344.44,163.92z M362.08,163.79c0.37,2.46,0.23,7.89,0.06,9.35
	c-0.09,0.81-9.84,0.72-9.85,0.12l0.12-8.48C355.25,164.67,356.71,164.08,362.08,163.79L362.08,163.79z M985,148.77
	c2.42-0.09,5.11,0.01,6.86,0.12c0,0.01,0,0.01,0,0.02c0.05,1.08,0.02,2.6-0.07,4.12c-0.09,1.51-0.24,3.04-0.39,4.12
	c0,0.01,0,0.01,0,0.02l-6.57-0.12c-0.1-2.24-0.38-4.41-0.45-8.23C984.6,148.81,984.75,148.78,985,148.77z M648.99,157.28
	c0.29-0.01,0.41,0.01,0.66,0.01c0.07,1.41,0.05,3.19-0.1,5.05c-3.26,0.09-5.19,0.02-7.1,0l-0.02-4.3c0.4-0.08,0.81-0.17,1.37-0.25
	C645.42,157.55,647.48,157.34,648.99,157.28L648.99,157.28z M631.21,158.21c0.09,1.62,0.07,3.1-0.03,4.34
	c-0.06,0.01-0.07,0.02-0.14,0.02c-0.92,0.09-2.26,0.14-3.58,0.14c-1.29,0-2.57-0.05-3.5-0.12l0.12-3.62
	C626.05,158.76,627.96,158.46,631.21,158.21L631.21,158.21z M614.41,158.66c0.17,1.25,0.26,2.68,0.25,4.28
	c-3.29,0.34-5.25,0.38-7.17,0.5l-0.3-3.53c0.61-0.17,1.38-0.36,2.29-0.54C611.23,159.02,613.18,158.75,614.41,158.66z
	 M445.95,162.92c0.41,2.76,0.24,8.86,0.05,10.5c-0.1,0.9-11.03,0.81-11.04,0.13l0.13-9.52
	C438.28,163.92,439.93,163.25,445.95,162.92L445.95,162.92z M460.99,163.01c1.32-0.05,2.29,0,2.32,0.24
	c0.17,1.45,0.29,6.86-0.09,9.37c-5.37,0.29-6.82-0.15-9.68,0.03l-0.08-8.45C453.47,163.77,458.08,163.11,460.99,163.01
	L460.99,163.01z M427.8,164.28c0.58-0.01,0.93,0.05,0.97,0.2c0.25,1.42,0.69,6.8,0.46,9.32c-5.36,0.66-6.83,0.34-9.69,0.72
	l-0.58-8.42C418.95,165.61,425.33,164.32,427.8,164.28z M198.21,169.89c-1.71,0.03-4.16,0.42-6.39,0.87
	c-1.1,0.22-2.13,0.47-2.93,0.72c-0.4,0.13-0.76,0.23-1.12,0.4c-0.18,0.08-0.37,0.16-0.62,0.37c-0.25,0.2-0.81,0.61-0.77,1.56
	c0,0.01,0,0.03,0,0.05l0.66,9.45c0.07,0.99,1.16,1.82,2.22,1.68c2.95-0.39,4.69-0.05,10.85-0.81c0.86-0.1,1.6-0.82,1.68-1.63
	c0.29-3.24-0.17-8.91-0.53-10.9c-0.13-0.69-0.67-1.17-1.02-1.36c-0.35-0.2-0.59-0.24-0.81-0.29
	C198.96,169.89,198.6,169.89,198.21,169.89L198.21,169.89z M221.97,169.62c-5.5,0.29-7.05,0.88-9.65,0.99
	c-0.98,0.03-1.84,0.87-1.85,1.78l-0.12,8.48c0,0.01,0,0.03,0,0.05c0.01,0.58,0.33,1.06,0.59,1.29c0.24,0.23,0.45,0.32,0.61,0.4
	c0.31,0.15,0.52,0.2,0.74,0.24c0.43,0.09,0.86,0.14,1.37,0.18c1.01,0.09,2.27,0.13,3.54,0.13s2.54-0.05,3.59-0.15
	c0.52-0.06,0.98-0.12,1.45-0.24c0.23-0.06,0.46-0.13,0.79-0.31c0.32-0.18,0.94-0.6,1.05-1.48c0.22-1.84,0.36-6.91-0.07-9.8
	C223.86,170.29,222.92,169.57,221.97,169.62L221.97,169.62z M411.42,165.41c0.37,2.51,0.22,8.01,0.05,9.49
	c-0.09,0.82-9.99,0.73-9.99,0.12l0.12-8.6C404.48,166.3,405.96,165.7,411.42,165.41z M197.53,173.57c0.2,1.78,0.43,4.79,0.4,7.18
	c-3.29,0.34-5.25,0.38-7.16,0.5l-0.45-6.41c0.61-0.17,1.39-0.37,2.31-0.55C194.39,173.93,196.3,173.67,197.53,173.57z
	 M220.23,173.42c0.12,2.12,0.1,4.49,0.02,6c-0.81,0.08-1.93,0.13-3.07,0.13c-1.08,0-2.13-0.03-2.93-0.09l0.08-5.43
	C215.88,173.84,217.79,173.63,220.23,173.42L220.23,173.42z M279.34,172.06c0.45,2.07,1.74,3.72,3.49,4.97
	c-1.48,0.92-3.68,1.14-5.26-0.32c-0.66-0.58-1.21-1.21-1.68-1.87C278.02,173.9,279.43,172.69,279.34,172.06z M1080.22,155.04
	c1.38,2.53,4.15,3.35,6.82,2.69c0.18,0.58,0.35,1.16,0.47,1.73c1.12,4.05-5.98-0.2-10.09-3.12
	C1078.38,156.08,1079.31,155.64,1080.22,155.04z M1092.52,155.09c2.46-0.14,2.12,4.68,4.3,5.86c0.44,0.45,0.92,0.81,1.46,1.09
	c-1.31,1.11-3.61,1.55-5.22,0.05c-1.79-1.6-2.72-3.55-3.32-5.6c0.18-0.13,0.39-0.27,0.58-0.4
	C1091.24,155.43,1091.96,155.12,1092.52,155.09L1092.52,155.09z M1154.91,153.87c-1,0.07-1.85,0.97-1.78,1.91
	c0.15,2.44-0.32,3.86-0.07,9.02c0.03,0.82,0.75,1.56,1.61,1.7c3.11,0.5,8.51,0.53,10.49,0.39c0.98-0.07,1.52-0.76,1.7-1.1
	c0.18-0.34,0.24-0.55,0.28-0.79c0.09-0.45,0.1-0.88,0.1-1.36c0.01-0.97-0.08-2.15-0.22-3.34c-0.13-1.19-0.31-2.38-0.51-3.33
	c-0.1-0.47-0.18-0.88-0.32-1.27c-0.07-0.2-0.14-0.37-0.31-0.64c-0.08-0.13-0.18-0.29-0.41-0.49c-0.23-0.2-0.66-0.49-1.29-0.51
	c-0.01,0-0.03,0-0.05,0l-9.04-0.18C1155.04,153.87,1154.98,153.87,1154.91,153.87L1154.91,153.87z M633.13,167.68
	c-6.16,0.32-7.9,0.98-10.85,1.11c-0.98,0.03-1.84,0.87-1.85,1.78l-0.13,9.52c0,0.01,0,0.03,0,0.05c0.01,0.59,0.33,1.05,0.59,1.29
	c0.25,0.24,0.44,0.34,0.61,0.42c0.32,0.15,0.55,0.2,0.78,0.25c0.46,0.1,0.93,0.15,1.5,0.2c1.13,0.1,2.53,0.15,3.96,0.15
	c1.43,0,2.84-0.06,4-0.17c0.58-0.06,1.08-0.12,1.58-0.25c0.25-0.07,0.51-0.15,0.84-0.34s0.95-0.6,1.06-1.49
	c0.24-2.01,0.43-7.76-0.05-10.95C635.03,168.35,634.1,167.63,633.13,167.68L633.13,167.68z M648.19,167.75
	c-1.56,0.06-3.47,0.25-5.07,0.5c-0.81,0.13-1.51,0.25-2.11,0.42c-0.3,0.08-0.56,0.14-0.87,0.28c-0.16,0.07-0.33,0.14-0.59,0.35
	c-0.25,0.2-0.72,0.62-0.74,1.42c0,0.01,0,0.03,0,0.05l0.08,8.45c0.01,0.98,1.02,1.86,2.07,1.79c2.6-0.16,4.15,0.27,9.65-0.03
	c0.89-0.05,1.69-0.74,1.81-1.56c0.44-2.91,0.31-7.95,0.09-9.79c-0.07-0.57-0.43-1.04-0.71-1.27c-0.29-0.23-0.53-0.32-0.72-0.39
	c-0.39-0.14-0.66-0.16-0.95-0.2C649.55,167.71,648.9,167.72,648.19,167.75z M810.17,164.29c0.41,2.76,0.24,8.86,0.05,10.5
	c-0.1,0.9-11.03,0.8-11.04,0.12l0.13-9.52C802.5,165.27,804.14,164.61,810.17,164.29z M615.05,169.03
	c-1.56,0.02-3.74,0.37-5.72,0.77c-0.99,0.2-1.9,0.42-2.63,0.64c-0.37,0.1-0.68,0.21-1.02,0.36c-0.17,0.08-0.35,0.16-0.6,0.36
	c-0.25,0.2-0.79,0.6-0.76,1.55c0,0.01,0,0.03,0,0.05l0.58,8.42c0.07,0.99,1.16,1.82,2.22,1.68c2.59-0.35,4.16-0.02,9.66-0.71
	c0.86-0.1,1.6-0.82,1.68-1.63c0.26-2.93-0.16-7.94-0.49-9.77c-0.13-0.69-0.66-1.17-1.01-1.35c-0.35-0.19-0.59-0.23-0.79-0.28
	C615.73,169.03,615.41,169.03,615.05,169.03L615.05,169.03z M1176.59,155.73c-1,0.07-1.85,0.97-1.78,1.91
	c0.17,2.76-0.37,4.36-0.08,10.13c0.03,0.82,0.75,1.56,1.61,1.7c3.43,0.54,9.55,0.6,11.71,0.44c0.99-0.07,1.53-0.76,1.73-1.11
	c0.2-0.35,0.23-0.59,0.28-0.83c0.09-0.49,0.13-0.95,0.13-1.49c0.01-1.09-0.08-2.4-0.23-3.73c-0.14-1.33-0.35-2.66-0.56-3.71
	c-0.11-0.53-0.22-0.98-0.37-1.4c-0.07-0.21-0.15-0.4-0.32-0.68c-0.08-0.14-0.2-0.3-0.43-0.5c-0.23-0.2-0.66-0.49-1.29-0.51
	c-0.01,0-0.03,0-0.05,0l-10.16-0.21C1176.71,155.72,1176.66,155.72,1176.59,155.73L1176.59,155.73z M825.2,164.36
	c1.32-0.05,2.29,0.01,2.32,0.25c0.17,1.45,0.29,6.84-0.09,9.35c-5.37,0.29-6.82-0.15-9.68,0.03l-0.08-8.45
	C817.69,165.12,822.29,164.46,825.2,164.36z M598.59,170.16c-5.58,0.29-7.17,0.89-9.81,1.01c-0.98,0.03-1.84,0.87-1.85,1.78
	l-0.12,8.6c0,0.01,0,0.03,0,0.05c0.01,0.58,0.33,1.05,0.58,1.28c0.24,0.23,0.44,0.34,0.6,0.42c0.32,0.15,0.53,0.2,0.75,0.24
	c0.44,0.09,0.87,0.15,1.38,0.2c1.02,0.09,2.3,0.13,3.59,0.13s2.59-0.03,3.65-0.14c0.53-0.06,0.99-0.13,1.46-0.25
	c0.24-0.06,0.48-0.13,0.82-0.31c0.32-0.19,0.93-0.6,1.04-1.48c0.22-1.86,0.39-7.02-0.05-9.94
	C600.49,170.83,599.56,170.12,598.59,170.16z M792.01,165.64c0.58-0.01,0.93,0.05,0.97,0.2c0.25,1.42,0.69,6.8,0.46,9.32
	c-5.36,0.66-6.83,0.32-9.69,0.71l-0.58-8.42C783.16,166.96,789.54,165.69,792.01,165.64z M362.96,176.59
	c0.41,2.76,0.24,8.87,0.05,10.5c-0.1,0.9-11.03,0.81-11.04,0.13l0.13-9.52C355.28,177.57,356.93,176.9,362.96,176.59L362.96,176.59z
	 M1156.96,157.53l5.76,0.12v0.01c0.16,0.77,0.32,1.88,0.45,2.99c0.1,0.98,0.16,1.9,0.17,2.64c-1.74,0.02-4.23-0.06-6.42-0.24
	C1156.9,160.72,1156.93,158.95,1156.96,157.53L1156.96,157.53z M775.63,166.77c0.37,2.51,0.22,8.01,0.05,9.49
	c-0.1,0.82-9.99,0.72-9.99,0.1l0.12-8.6C768.69,167.65,770.18,167.06,775.63,166.77z M631.45,171.43c0.13,2.46,0.06,5.58-0.03,7.24
	c-0.05,0-0.05,0.01-0.09,0.01c-0.92,0.09-2.24,0.14-3.57,0.14c-1.3,0-2.6-0.05-3.53-0.13l0.08-6.51
	C626.26,171.98,628.18,171.69,631.45,171.43L631.45,171.43z M648.35,171.35c0.16,0,0.21,0,0.36,0c0.07,1.61,0.08,3.97-0.05,6.02
	c-2.47,0.05-4.37,0.05-5.9,0.02l-0.06-5.39c0.33-0.07,0.6-0.13,1.04-0.2C645.17,171.6,647.02,171.4,648.35,171.35L648.35,171.35z
	 M614.26,172.76c0.17,1.63,0.31,3.91,0.3,5.92c-2.49,0.23-4.38,0.36-5.91,0.44l-0.37-5.35c0.52-0.14,1.13-0.29,1.88-0.44
	C611.66,173.03,613.17,172.86,614.26,172.76z M1178.64,159.38l6.89,0.14c0.02,0.08,0.03,0.1,0.06,0.18
	c0.18,0.88,0.36,2.13,0.49,3.38c0.13,1.19,0.21,2.37,0.21,3.23c-1.96,0.03-5.18-0.06-7.73-0.29
	C1178.49,162.96,1178.6,161.16,1178.64,159.38L1178.64,159.38z M596.84,173.97c0.11,2.16,0.1,4.62,0.01,6.16
	c-0.82,0.08-1.97,0.12-3.13,0.12c-1.1,0-2.19-0.05-3-0.1l0.08-5.56C592.4,174.39,594.35,174.19,596.84,173.97L596.84,173.97z
	 M341.09,181.96c2.37-0.1,4.49,0.2,4.58,1.14c0.3,3.28,0.85,14.21,0.94,21.74c-3.69,0.05-7.37,0.09-11.07,0.14l-0.91-21.16
	C334.6,182.88,338.04,182.08,341.09,181.96z M990.17,171.24c0.2,0,0.41-0.01,0.68-0.01c1.76-0.02,3.88-0.01,5.9-0.07
	c0.93-0.02,1.54,0.06,2.31,0.09c0.29,6.61,0.24,10.44,0.23,13.87c-3.23,0.01-6.47,0.02-9.71,0.06c-0.16-1.49-0.32-3.09-0.45-4.67
	c-0.23-2.81-0.38-5.6-0.4-7.63c-0.01-0.67,0.01-1.06,0.03-1.54C989.25,171.31,989.59,171.26,990.17,171.24L990.17,171.24z
	 M453.02,184.72c1.58-0.03,3.05,0,4.13,0.17c0.53,10.48,0.14,14.08,0.33,19.25c-4.08,0.02-8.18,0.05-12.26,0.07
	c-0.86-5.48-1.85-18.34-0.99-18.56C445.59,185.3,449.56,184.81,453.02,184.72z M226.94,190.26c-6.17,0.32-7.9,0.99-10.85,1.12
	c-0.98,0.03-1.84,0.87-1.85,1.78l-0.13,9.52c0,0.01,0,0.03,0,0.05c0.01,0.59,0.33,1.05,0.59,1.29c0.25,0.24,0.46,0.34,0.62,0.42
	c0.32,0.15,0.54,0.2,0.77,0.25c0.46,0.1,0.94,0.15,1.51,0.2c1.13,0.1,2.53,0.14,3.96,0.14s2.84-0.05,4-0.16
	c0.58-0.06,1.08-0.13,1.58-0.27c0.25-0.07,0.51-0.14,0.84-0.32c0.33-0.18,0.95-0.61,1.06-1.5c0.24-2.01,0.41-7.76-0.07-10.95
	C228.83,190.92,227.89,190.2,226.94,190.26L226.94,190.26z M432.54,185.42c1.58-0.03,3.05,0,4.13,0.17
	c0.51,10.06,0.16,13.78,0.3,18.64c-4.11,0.02-8.23,0.05-12.34,0.06c-0.84-5.79-1.71-17.72-0.89-17.93
	C425.12,186.01,429.08,185.52,432.54,185.42z M198.08,191.46c1.06-0.05,2.04,0.02,2.59,0.14c0.25,3.12,0.7,11.53,0.86,18.36
	c-2.42,0.16-4.84,0.34-7.26,0.51l-0.77-18.23c0.2-0.08,0.32-0.14,0.64-0.23C195.18,191.74,196.7,191.52,198.08,191.46z
	 M1141.43,168.96c-0.53,0.02-0.97,0.25-1.21,0.44c-0.28,0.21-0.4,0.37-0.49,0.52c-0.2,0.29-0.25,0.5-0.33,0.71
	c-0.15,0.42-0.25,0.86-0.35,1.38c-0.21,1.03-0.37,2.34-0.49,3.65c-0.11,1.32-0.2,2.64-0.16,3.72c0.01,0.54,0.03,1.01,0.14,1.48
	c0.05,0.24,0.1,0.47,0.28,0.81c0.17,0.32,0.58,0.94,1.52,1.11c1.98,0.37,6.78,0.97,10.16,0.8c0.97-0.05,1.82-0.86,1.84-1.75
	c0.17-5.43,1.13-6.75,1.28-10.07c0.05-0.91-0.77-1.79-1.75-1.87l-10.16-0.92c-0.01,0-0.03,0-0.05,0
	C1141.58,168.96,1141.5,168.96,1141.43,168.96L1141.43,168.96z M225.24,194c0.13,2.46,0.07,5.58-0.02,7.24
	c-0.05,0-0.05,0.01-0.09,0.01c-0.92,0.09-2.25,0.15-3.58,0.15c-1.3,0-2.6-0.05-3.53-0.13l0.08-6.51
	C220.07,194.56,221.99,194.26,225.24,194z M1142.84,172.71l6.68,0.6c-0.28,1.6-0.71,3.45-0.94,6.6c-2.26-0.06-4.67-0.28-6.32-0.51
	c0-0.05,0-0.06,0-0.12c-0.02-0.87,0.03-2.1,0.15-3.33C1142.52,174.75,1142.67,173.56,1142.84,172.71L1142.84,172.71z
	 M1178.28,171.85c-0.23,0.01-0.46,0.06-0.68,0.14c-0.17,0.06-0.33,0.15-0.48,0.24c-0.05,0.02-0.11,0.06-0.14,0.08
	c-0.29,0.23-0.39,0.43-0.48,0.58c-0.17,0.3-0.22,0.5-0.28,0.69c-0.1,0.4-0.17,0.8-0.22,1.27c-0.1,0.94-0.16,2.12-0.16,3.3
	c-0.01,1.18,0.03,2.37,0.14,3.34c0.06,0.49,0.11,0.91,0.24,1.35c0.06,0.22,0.14,0.43,0.31,0.73c0.18,0.29,0.53,0.84,1.46,1.02
	c1.86,0.35,6.63,0.89,9.71,0.75c0.97-0.05,1.81-0.86,1.84-1.75c0.16-5.13-0.35-6.63-0.24-9.04c0.05-0.91-0.77-1.79-1.75-1.87
	l-9.04-0.82v0.01c-0.01,0-0.03-0.01-0.05-0.01c-0.07-0.01-0.13,0.02-0.2,0.02L1178.28,171.85z M698.2,183.51
	c1.46-0.03,2.83-0.01,3.84,0.15c0.37,7.3,0.24,10.97,0.23,14.38c-3.89,0.23-7.8,0.44-11.72,0.65c-0.67-5.72-1.19-14.14-0.52-14.31
	C691.31,184.06,694.98,183.6,698.2,183.51L698.2,183.51z M802.53,181.37c1.46-0.03,2.83-0.01,3.84,0.15
	c0.18,3.61,0.24,6.3,0.26,8.56c-4.08,0.22-8.18,0.46-12.29,0.73c-0.33-4.38-0.46-8.44,0-8.56
	C795.62,181.92,799.31,181.46,802.53,181.37L802.53,181.37z M1159.09,174.9l6.67,0.95c-0.18,4.35-0.12,7.8-0.28,13.68
	c-2.57-0.1-5.14-0.2-7.71-0.3c0.1-1.73,0.23-3.58,0.37-5.4c0.23-2.81,0.48-5.49,0.72-7.46
	C1158.95,175.74,1159.02,175.35,1159.09,174.9L1159.09,174.9z M625.65,188.37c0.77-0.02,1.28,0.03,1.92,0.07
	c0.25,5.98,0.18,9.35,0.18,12.52c-2.63,0.07-5.28,0.12-7.92,0.17c-0.23-2.01-0.44-4.29-0.58-6.43c-0.13-1.93-0.21-3.72-0.2-4.99
	c0-0.32,0.03-0.47,0.05-0.72C620.58,188.75,623.18,188.43,625.65,188.37L625.65,188.37z M1179.86,175.61l5.64,0.52
	c0.06,1.47,0.11,3.25,0.14,5.54c-2.11-0.08-4.31-0.27-5.78-0.47c0-0.02-0.01-0.02-0.01-0.06c-0.08-0.76-0.13-1.86-0.12-2.95
	C1179.73,177.23,1179.79,176.34,1179.86,175.61L1179.86,175.61z"/>
<path class="st6" d="M256.18,143.53c0,0-2.64,9.08,6.37,10.72C262.55,154.25,268.03,143.36,256.18,143.53z"/>
<path class="st3" d="M284.58,141.13c0,0-2.64,9.08,6.37,10.72C290.95,151.86,296.43,140.97,284.58,141.13z"/>
<path class="st6" d="M284.11,156.36c0,0-2.64,9.08,6.37,10.72C290.48,167.08,295.96,156.18,284.11,156.36z"/>
<path class="st6" d="M252.64,158.33c0,0-2.64,9.08,6.37,10.72C259.01,169.06,264.48,158.17,252.64,158.33z"/>
<path class="st6" d="M278.51,141.05c0,0-9.16,4.05-4.65,11.46C273.86,152.51,286.36,149.27,278.51,141.05z"/>
<path class="st6" d="M301.53,147.75c0,0-9.16,4.05-4.65,11.46C296.88,159.21,309.38,155.98,301.53,147.75z"/>
<path class="st3" d="M271.63,153.33c0,0-9.16,4.05-4.65,11.46C266.98,164.79,279.47,161.55,271.63,153.33z"/>
<path class="st6" d="M276.19,163.53c0,0-9.16,4.05-4.65,11.46C271.55,174.97,284.03,171.75,276.19,163.53z"/>
<path class="st3" d="M293.58,175.91c0,0,10.04-1.41,8.05-9.71C301.63,166.2,288.66,165.93,293.58,175.91z"/>
<g>
	<path class="st7" d="M1069.1,117.8c0,0-2.89,9.96,6.98,11.76C1076.08,129.56,1082.1,117.6,1069.1,117.8z"/>
	<path class="st8" d="M1100.25,115.16c0,0-2.89,9.96,6.98,11.76C1107.23,126.93,1113.24,114.98,1100.25,115.16z"/>
	<path class="st7" d="M1099.74,131.86c0,0-2.89,9.96,6.98,11.76C1106.72,143.63,1112.74,131.67,1099.74,131.86z"/>
	<path class="st6" d="M1065.2,134.03c0,0-2.89,9.96,6.98,11.76C1072.2,145.8,1078.2,133.85,1065.2,134.03z"/>
	<path class="st6" d="M1093.59,115.07c0,0-10.05,4.44-5.1,12.57C1088.49,127.64,1102.19,124.09,1093.59,115.07z"/>
	<path class="st6" d="M1118.84,122.42c0,0-10.05,4.44-5.1,12.57C1113.74,134.99,1127.44,131.45,1118.84,122.42z"/>
	<path class="st8" d="M1086.04,128.54c0,0-10.05,4.44-5.1,12.57C1080.94,141.11,1094.64,137.56,1086.04,128.54z"/>
	<path class="st6" d="M1091.04,139.72c0,0-10.05,4.44-5.1,12.57C1085.95,152.29,1099.65,148.74,1091.04,139.72z"/>
	<path class="st8" d="M1110.12,153.3c0,0,11.01-1.55,8.82-10.65C1118.94,142.66,1104.72,142.36,1110.12,153.3z"/>
</g>
<polygon class="st0" points="1259.94,159.41 1271.09,159.14 1270.7,144.92 1259.53,145.19 "/>
<polygon class="st0" points="1245.42,163.01 1259.03,162.68 1258.58,146.51 1244.97,146.84 "/>
<polygon class="st0" points="1230.51,165.91 1244.12,165.58 1243.67,149.41 1230.06,149.74 "/>
<polygon class="st0" points="1233.13,182.08 1242.9,181.85 1242.55,169.28 1232.78,169.52 "/>
<polygon class="st0" points="1260.11,180.74 1272.41,180.45 1271.97,164.77 1259.67,165.06 "/>
<path class="st3" d="M1287.22,191.9c0,0-3.97-36.35-4.05-43.03c-0.07-6.68,0.76-9.27-2.9-10.46c-3.68-1.19-25.16-13.91-26.42-13.89
	c-1.26,0.03-9.98,10.06-10.91,8.8c-0.94-1.26-1.25-12.28-2.21-14.21c-0.96-1.93-8.59-2.32-8.8-1.46
	c-0.21,0.86,2.08,17.74,2.01,19.16c-0.07,1.42-5.65,8.96-7.8,9.3c-2.15,0.34-4.69,3.06-3.8,10.17c0.88,7.11,2.3,37.01,2.3,37.01
	L1287.22,191.9z"/>
<polygon class="st0" points="1244.6,160.66 1255.43,160.4 1255.04,146.73 1244.21,146.98 "/>
<polygon class="st0" points="1264.28,159.13 1273.83,158.9 1273.49,146.56 1263.94,146.8 "/>
<polygon class="st0" points="1229.6,165.66 1239.76,165.42 1239.37,151.39 1229.2,151.63 "/>
<polygon class="st0" points="1268.28,180.57 1279.28,180.3 1278.89,166.3 1267.89,166.56 "/>
<polygon class="st0" points="1250.49,194.13 1262.74,193.84 1261.99,166.98 1249.74,167.27 "/>
<polygon class="st0" points="1232.32,182.96 1241.93,182.73 1241.57,170.05 1231.98,170.28 "/>
<path class="st9" d="M1287.22,191.9c0,0-3.62-49.41-4.53-51.53c-0.91-2.12-26.69-15.37-28.13-15.56
	c-1.45-0.2-10.13,10.88-10.66,8.75c-0.54-2.12-0.69-13.09-2.17-14.15c-1.48-1.06-10.82-2.06-10.29,2.93
	c0.54,4.98,3.86,11.72,3.67,14.7c-0.2,2.97-9.8,7.91-11.57,8.8c-1.77,0.89-0.73,1.2,0.57,13.47c1.28,12.27,1.94,33.96,1.94,33.96
	L1287.22,191.9z"/>
<path class="st10" d="M1273.79,159.07c0,0,1.13-11.81-0.37-13c-1.49-1.18-10.06,0.24-10.06,0.24l0.37,13L1273.79,159.07z"/>
<path class="st11" d="M1261.96,192.49c0,0,1.05-22.57-0.69-24.86c-1.76-2.29-11.63,0.28-11.63,0.28l0.69,24.86L1261.96,192.49z"/>
<path class="st10" d="M1255.43,160.4c0,0,1.13-11.81-0.37-13c-1.49-1.18-10.06,0.24-10.06,0.24l0.37,13L1255.43,160.4z"/>
<path class="st10" d="M1239.4,151.39c0,0-9.28-1.64-10.2,0.24c-0.9,1.88,0.36,12.82,0.36,12.82l10.2-0.24L1239.4,151.39z"/>
<path class="st10" d="M1241.83,182.43c0,0,1.13-11.81-0.37-13c-1.49-1.18-10.06,0.24-10.06,0.24l0.37,13L1241.83,182.43z"/>
<path class="st10" d="M1278.77,166.45c0,0-9.28-1.64-10.2,0.24c-0.9,1.88,0.36,12.82,0.36,12.82l10.2-0.24L1278.77,166.45z"/>
<path class="st12" d="M1403.32,193.36c0,0,2.53-37.05,2.32-43.84c-0.21-6.8-1.18-9.39,2.54-10.72c3.71-1.34,25.22-14.98,26.51-15
	c1.3-0.01,10.66,9.87,11.57,8.57s0.76-12.51,1.66-14.51c0.9-2,8.72-2.65,8.96-1.78c0.24,0.87-1.39,18.08-1.25,19.53
	c0.13,1.45,6.19,8.9,8.41,9.17c2.22,0.27,4.94,2.95,4.34,10.2c-0.6,7.26-2.69,42.7-2.69,42.7L1403.32,193.36z"/>
<polygon class="st0" points="1426.25,161.48 1435.5,161.65 1435.68,149.25 1426.43,149.06 "/>
<polygon class="st0" points="1446.8,163.16 1455.06,163.32 1455.25,151.49 1446.99,151.33 "/>
<polygon class="st0" points="1413.1,163.51 1421.01,163.66 1421.19,151.98 1413.27,151.81 "/>
<polygon class="st0" points="1445.93,189.51 1455.6,189.69 1455.79,177.35 1446.11,177.17 "/>
<polygon class="st0" points="1428.33,193.37 1438.64,193.56 1438.98,171.87 1428.65,171.67 "/>
<polygon class="st0" points="1410.53,187.75 1419.54,187.92 1419.71,176.02 1410.72,175.85 "/>
<path class="st13" d="M1455.03,162.99c0,0,1.34-9.6,0.16-10.63c-1.18-1.02-8.22-0.16-8.22-0.16l-0.16,10.63L1455.03,162.99z"/>
<path class="st14" d="M1439.82,194.22c0,0,1.66-18.4,0.31-20.33s-9.5-0.18-9.5-0.18l-0.31,20.33L1439.82,194.22z"/>
<path class="st13" d="M1434.31,160.87c0,0,1.34-9.6,0.16-10.63c-1.18-1.02-8.22-0.16-8.22-0.16l-0.16,10.63L1434.31,160.87z"/>
<path class="st13" d="M1421.54,152.93c0,0-7.53-1.66-8.34-0.16c-0.81,1.5-0.16,10.49-0.16,10.49l8.34,0.16L1421.54,152.93z"/>
<path class="st13" d="M1418.81,187.46c0,0,1.34-9.6,0.16-10.63c-1.18-1.02-8.22-0.16-8.22-0.16l-0.16,10.63L1418.81,187.46z"/>
<path class="st13" d="M1455.21,178.29c0,0-7.53-1.66-8.34-0.16c-0.81,1.5-0.16,10.49-0.16,10.49l8.34,0.16L1455.21,178.29z"/>
<polygon class="st0" points="920.15,187.47 935.72,187.1 934.43,141.35 918.87,141.72 "/>
<path class="st15" d="M945.82,132.97c0,0,1.1-12.83-0.55-14.13c-1.65-1.29-11.02,0.19-11.02,0.19l0.55,14.13L945.82,132.97z"/>
<path class="st16" d="M934.75,186.44c0,0,1.02-40.09-1.24-44.18s-14.78,0.36-14.78,0.36l1.24,44.18L934.75,186.44z"/>
<path class="st15" d="M925.7,134.27c0,0,1.1-12.83-0.55-14.13c-1.65-1.29-11.02,0.18-11.02,0.18l0.55,14.13L925.7,134.27z"/>
<path class="st15" d="M908.04,124.35c0,0-10.2-1.85-11.17,0.19c-0.97,2.05,0.55,13.94,0.55,13.94l11.17-0.19L908.04,124.35z"/>
<path class="st15" d="M911.09,163.1c0,0,1.1-12.83-0.55-14.13s-11.02,0.18-11.02,0.18l0.55,14.13L911.09,163.1z"/>
<path class="st15" d="M951.36,146.01c0,0-10.2-1.85-11.17,0.19c-0.97,2.05,0.55,13.94,0.55,13.94l11.17-0.18L951.36,146.01z"/>
<path class="st17" d="M1499.97,181.49c0,0,1.34-9.6,0.16-10.63s-8.22-0.16-8.22-0.16l-0.16,10.63L1499.97,181.49z"/>
<path class="st17" d="M1478.58,180.2c0,0,1.34-9.6,0.16-10.63c-1.18-1.02-8.22-0.16-8.22-0.16l-0.16,10.63L1478.58,180.2z"/>
<g>
	<path d="M67.67,218.1c0.16-5.72,0.49-20.9-0.62-23.92c-0.17-0.46-0.36-0.96-0.57-1.48c-0.88-2.23-2.34-5.97-1.21-6.88
		c2.08-1.69,19.53-21.37,24.54-27.02c1.91,2.25,4.74,5.52,5.52,6.07c0.89,0.73,12.97,13.07,21.1,21.4l1.53,16.12l-0.87,14.18
		L67.67,218.1z"/>
	<path d="M89.77,161.02c2.34,2.72,3.87,4.38,4.57,4.94c1.14,1.01,12.97,13.07,20.67,20.96l1.47,15.49l-0.77,12.74l-46.54,1.43
		c0.18-7.03,0.35-19.93-0.75-22.93c-0.17-0.47-0.37-0.97-0.58-1.5c-0.55-1.42-1.7-4.34-1.51-5.34
		C68.84,184.6,83.46,168.15,89.77,161.02 M89.82,156.57c0,0-23.22,26.28-25.48,28.12c-2.27,1.84,0.13,6.73,1.33,9.99
		c1.2,3.26,0.49,24.93,0.49,24.93l52.28-1.62l0.95-15.62l-1.58-16.74c0,0-20.77-21.29-21.66-21.93
		C95.27,163.04,89.82,156.57,89.82,156.57L89.82,156.57z"/>
</g>
<path class="st12" d="M18.12,226.97c0,0-6.1-36.63-7.89-43.19c-1.78-6.56-3.32-8.86-0.01-11.02s21.07-20.42,22.32-20.73
	c1.26-0.31,12.66,7.15,13.24,5.65c0.58-1.48-2.16-12.35-1.73-14.5c0.42-2.15,7.86-4.59,8.3-3.8c0.44,0.79,2.84,17.91,3.31,19.29
	c0.46,1.38,8.08,7.24,10.3,6.98c2.22-0.25,5.49,1.72,6.58,8.93s7.26,42.16,7.26,42.16L18.12,226.97z"/>
<polygon class="st0" points="33.04,190.65 42.08,188.69 39.39,176.57 30.34,178.53 "/>
<polygon class="st0" points="53.43,187.53 61.49,185.77 58.94,174.23 50.87,175.98 "/>
<polygon class="st0" points="20.72,195.68 28.46,194 25.93,182.58 18.19,184.26 "/>
<polygon class="st0" points="58.67,213.36 68.13,211.3 65.46,199.25 56,201.31 "/>
<polygon class="st0" points="42.45,221.2 52.53,219 47.83,197.82 37.74,200.02 "/>
<polygon class="st0" points="23.84,219.85 32.63,217.93 30.06,206.32 21.26,208.24 "/>
<path class="st13" d="M61.39,185.47c0,0-0.91-9.65-2.3-10.37s-8.04,1.75-8.04,1.75l2.3,10.37L61.39,185.47z"/>
<path class="st14" d="M53.83,219.37c0,0-2.64-18.28-4.41-19.84c-1.76-1.57-9.3,2.02-9.3,2.02l4.41,19.84L53.83,219.37z"/>
<path class="st13" d="M40.74,188.19c0,0-0.91-9.65-2.3-10.37c-1.39-0.72-8.04,1.75-8.04,1.75l2.3,10.37L40.74,188.19z"/>
<path class="st13" d="M26.48,183.42c0,0-7.71,0.12-8.14,1.77c-0.44,1.65,2.27,10.23,2.27,10.23l8.14-1.77L26.48,183.42z"/>
<path class="st13" d="M31.82,217.65c0,0-0.91-9.65-2.3-10.37c-1.39-0.72-8.04,1.75-8.04,1.75l2.3,10.37L31.82,217.65z"/>
<path class="st13" d="M65.11,200.29c0,0-7.71,0.12-8.14,1.77s2.27,10.23,2.27,10.23l8.14-1.77L65.11,200.29z"/>
<path class="st17" d="M109.4,193.06c0,0-0.91-9.65-2.3-10.37c-1.39-0.72-8.04,1.75-8.04,1.75l2.3,10.37L109.4,193.06z"/>
<path class="st17" d="M88.28,196.74c0,0-0.91-9.65-2.3-10.37s-8.04,1.75-8.04,1.75l2.3,10.37L88.28,196.74z"/>
<path id="rect3000" class="st1" d="M1558.89,159.84c-3.01-0.23-6.39-0.45-10.42-0.62c-12.83-0.08-14.04,19.15-15.26,35.32
	c0,1.86,2.12,1.82,4.27,1.97l0.76,0.07c0.58-4.21,3.33-7.33,6.38-7.06c3.05,0.27,5.28,3.8,5.18,8.06l18.89,1.62
	c0.58-4.21,3.34-7.33,6.39-7.06c3.04,0.27,5.26,3.8,5.17,8.04c4.24,0.16,3.62-1.5,4.09-9.27l1.23-15.22
	c0.69-8.64,1.8-12.88-3.85-13.48C1573.41,161.44,1567.91,160.54,1558.89,159.84z M1554.04,162.28l6.29,0.54
	c0.9,0.08,1.54,1.24,1.43,2.59l-0.65,8.06c-0.1,1.35-0.91,2.39-1.83,2.31l-6.29-0.54c-0.9-0.08-1.55-1.24-1.45-2.59l0.65-8.06
	C1552.31,163.23,1553.13,162.2,1554.04,162.28z M1565.05,163.21l6.28,0.54c0.9,0.08,1.56,1.24,1.46,2.59l-0.65,8.06
	c-0.1,1.35-0.94,2.38-1.85,2.31l-6.28-0.54c-0.9-0.08-1.55-1.24-1.45-2.59l0.65-8.06C1563.33,164.17,1564.15,163.14,1565.05,163.21z
	 M1576.06,164.16l6.29,0.54c0.9,0.08,1.54,1.24,1.43,2.59l-0.65,8.06c-0.1,1.35-0.91,2.39-1.83,2.31l-6.29-0.54
	c-0.9-0.08-1.55-1.24-1.45-2.59l0.65-8.06C1574.34,165.12,1575.16,164.09,1576.06,164.16z M1548.61,161.92
	c1.43,0.08,1.27,1.5,1.19,2.5l-1.46,18.16c-2.77,3.46-13.53,9.9-12.11-1.04c0.65-4.86,1.54-9.94,3.71-13.97
	c1.94-4.09,5.2-5.45,8.36-5.64C1548.4,161.93,1548.51,161.92,1548.61,161.92L1548.61,161.92z M1544.49,191.04
	c-2.79-0.24-5.31,2.88-5.64,6.97c-0.32,4.09,1.66,7.62,4.45,7.86c2.79,0.24,5.33-2.9,5.65-7
	C1549.28,194.79,1547.28,191.29,1544.49,191.04z M1574.97,193.67c-2.79-0.24-5.32,2.88-5.65,6.97c-0.34,4.09,1.68,7.62,4.46,7.86
	c2.79,0.24,5.31-2.9,5.64-7C1579.75,197.41,1577.76,193.9,1574.97,193.67z M1544.18,195.67c0.96,0.08,1.64,1.33,1.53,2.77
	s-0.98,2.53-1.95,2.45c-0.96-0.08-1.66-1.32-1.55-2.75C1542.33,196.7,1543.21,195.59,1544.18,195.67z M1574.54,198.27
	c0.96,0.08,1.64,1.33,1.53,2.77s-0.98,2.53-1.95,2.45c-0.96-0.08-1.66-1.32-1.55-2.75C1572.69,199.3,1573.58,198.19,1574.54,198.27z
	"/>
<g>
	<g>
		<path class="st0" d="M1640.9,199.24c-0.95,0-1.21-0.32-1.31-0.43c-1.42-1.69-3.43-2.65-5.54-2.65c-1.17,0-2.34,0.31-3.35,0.9
			c-1.92,1.11-3.77,1.73-5.2,1.73c-1.64,0-2.65-0.77-3.3-2.51c-0.17-0.47-0.52-0.87-0.97-1.09c-1.08-0.54-4.27-2.58-4.79-4.71
			c-0.12-0.46-0.17-1.2,0.57-2.23c0.31-0.43,0.44-0.96,0.36-1.48c-0.07-0.43-1.57-10.63,5.48-12.58c0.59-0.16,1.06-0.59,1.29-1.16
			c0.03-0.07,3.35-7.82,9.63-7.82c1.79,0,3.73,0.62,5.78,1.84c0.31,0.18,0.66,0.28,1.02,0.28c0.2,0,0.39-0.03,0.58-0.09
			c0.01,0,1.55-0.46,3.5-0.46c4.95,0,7.65,2.67,8.26,8.16c0.07,0.66,0.47,1.24,1.06,1.54c1.75,0.91,6.81,4.2,7.04,7.25
			c0.03,0.46,0.14,1.85-2.37,3.7c-0.58,0.43-0.88,1.13-0.79,1.85c0,0.02,0.42,3.54-1.36,5.54c-0.87,0.97-2.15,1.46-3.92,1.46
			c-0.81,0-1.72-0.1-2.71-0.31c-0.14-0.02-0.27-0.05-0.4-0.05c-0.38,0-0.76,0.12-1.1,0.32
			C1647.14,197.13,1643.39,199.24,1640.9,199.24z"/>
		<path d="M1633.8,167.23c1.43,0,3.03,0.52,4.76,1.56c0.61,0.37,1.33,0.55,2.05,0.55c0.38,0,0.76-0.06,1.13-0.16
			c0.01,0,1.31-0.38,2.95-0.38c3.91,0,5.79,1.91,6.29,6.39c0.15,1.31,0.94,2.46,2.12,3.08c2.73,1.42,5.87,4.15,5.99,5.65
			c0.03,0.47-0.55,1.2-1.57,1.95c-1.16,0.86-1.77,2.24-1.58,3.68c0.1,0.88,0.01,3.01-0.88,4.01c-0.17,0.2-0.69,0.77-2.44,0.77
			c-0.68,0-1.46-0.09-2.3-0.27c-0.27-0.06-0.53-0.08-0.81-0.08c-0.77,0-1.54,0.22-2.19,0.65c-1.61,1.05-4.75,2.61-6.41,2.61
			c-0.01,0-0.02,0-0.03,0c-1.78-1.95-4.24-3.08-6.81-3.08c-1.53,0-3.02,0.4-4.35,1.17c-1.6,0.92-3.13,1.46-4.2,1.46
			c-0.55,0-0.98,0-1.43-1.21c-0.35-0.94-1.04-1.71-1.93-2.16c-1.58-0.81-3.53-2.44-3.76-3.4c-0.01-0.07-0.05-0.2,0.24-0.59
			c0.62-0.86,0.88-1.92,0.71-2.96c-0.01-0.09-1.26-8.88,4.06-10.36c1.17-0.32,2.13-1.18,2.59-2.29
			C1626.02,173.77,1628.85,167.23,1633.8,167.23 M1633.8,163.26c-7.72,0-11.47,9.03-11.47,9.03c-8.88,2.46-6.91,14.81-6.91,14.81
			c-3.95,5.43,4.94,9.87,4.94,9.87c1.02,2.76,2.94,3.8,5.16,3.8c1.97,0,4.17-0.82,6.2-2c0.75-0.43,1.55-0.64,2.36-0.64
			c1.5,0,2.98,0.71,4.02,1.94c0.69,0.82,1.69,1.13,2.82,1.13c3.64,0,8.58-3.26,8.58-3.26c1.16,0.24,2.2,0.35,3.11,0.35
			c8.45,0,7.25-9.24,7.25-9.24c9.38-6.91-4.94-14.31-4.94-14.31c-0.93-8.37-6.34-9.92-10.23-9.92c-2.31,0-4.08,0.54-4.08,0.54
			C1638.06,163.86,1635.8,163.26,1633.8,163.26L1633.8,163.26z"/>
	</g>
	<path class="st18" d="M1632.31,215.66c1.49-2.98,3.17-7.57,1.73-12.15c-2.62-8.37-13.81-12.18-13.33-14.61
		c0.09-0.49,0.42-2.27,3.21-1.16c1.41,0.57,6.91,4.83,8.38,4.46c1.53-0.38,0.58-4.99,0.58-6.51c-0.01-4.67,5.64,8.9,12.27,1.32
		c2.8-3.19,3.1,0.66,2.8,1.27c-1.68,3.35-5.18,7.94-8.28,14.29c-2.17,4.46-4.13,11.69-1.21,14.75c2.04,2.14,5.83,1.6,5.82,1.76
		c-0.01,0.16-3.57,0.22-16.43-0.08c0.49-0.05,1.65-0.23,2.8-1.12C1631.67,217.08,1632.12,216.11,1632.31,215.66z"/>
</g>
</svg>
