<?xml version="1.0" encoding="utf-8"?>
<!-- Generator: Adobe Illustrator 25.4.1, SVG Export Plug-In . SVG Version: 6.00 Build 0)  -->
<svg version="1.1" id="Layer_1" xmlns="http://www.w3.org/2000/svg" xmlns:xlink="http://www.w3.org/1999/xlink" x="0px" y="0px"
	 viewBox="0 0 1478 200" style="enable-background:new 0 0 1478 200;" xml:space="preserve">
<style type="text/css">
	.st0{fill:#FFFFFF;}
	.st1{fill:#231F20;}
	.st2{fill:#71CCDB;stroke:#000000;stroke-width:2.828;stroke-miterlimit:10;}
	.st3{fill:#F69320;}
	.st4{fill:#D91F26;}
	.st5{fill:#6FCBDB;}
	.st6{fill:#BC202E;}
	.st7{fill:#F7B5C2;}
	.st8{fill:#F3B71D;}
	.st9{fill:none;stroke:#000000;stroke-width:3.0629;stroke-miterlimit:10;}
	.st10{fill:none;stroke:#000000;stroke-width:3.0286;stroke-linejoin:round;stroke-miterlimit:10;}
	.st11{fill:none;stroke:#000000;stroke-width:2.2278;stroke-linejoin:round;stroke-miterlimit:10;}
	.st12{fill:#FFFFFF;stroke:#000000;stroke-width:3.2862;stroke-miterlimit:10;}
	.st13{fill:none;stroke:#000000;stroke-width:2.4751;stroke-linejoin:round;stroke-miterlimit:10;}
	.st14{fill:none;stroke:#000000;stroke-width:2;stroke-linejoin:round;stroke-miterlimit:10;}
	.st15{stroke:#000000;stroke-width:2.1792;stroke-linejoin:round;stroke-miterlimit:10;}
	.st16{fill:none;stroke:#000000;stroke-width:3.347;stroke-linejoin:round;stroke-miterlimit:10;}
	.st17{fill:none;}
	.st18{fill:#FFFFFF;stroke:#000000;stroke-linejoin:round;stroke-miterlimit:10;}
	.st19{stroke:#000000;stroke-width:0.8573;stroke-miterlimit:10;}
</style>
<g>
	<path d="M1262.57,179.08c0.1-4.95,0.27-18.09-0.71-20.69c-0.15-0.4-0.32-0.83-0.5-1.27c-0.77-1.93-2.07-5.15-1.1-5.94
		c1.79-1.47,16.73-18.62,21.02-23.55c1.67,1.93,4.14,4.74,4.81,5.21c0.63,0.45,14.21,11.25,23.55,18.69l-4.23,25.86L1262.57,179.08z
		"/>
	<path d="M1281.27,129.55c2.17,2.49,3.54,3.94,4.07,4.31c0.76,0.56,13.71,10.86,22.93,18.2l-3.94,24.12l-40.48,1.59
		c0.1-6.08,0.15-17.24-0.82-19.82c-0.15-0.41-0.33-0.84-0.51-1.29c-0.49-1.23-1.5-3.74-1.35-4.61
		C1263.33,150.1,1275.86,135.76,1281.27,129.55 M1281.28,125.7c0,0-19.88,22.9-21.83,24.51c-1.95,1.61,0.16,5.82,1.22,8.63
		s0.6,21.56,0.6,21.56l45.21-1.78L1311,151c0,0-23.41-18.64-24.19-19.19C1286.03,131.26,1281.28,125.7,1281.28,125.7L1281.28,125.7z
		"/>
</g>
<g>
	<g>
		<path class="st0" d="M1008.56,42.48c0,0,6.87-1.57,8.79-0.21c1.92,1.36,0.35,12.65,0.35,12.65l-11.38,0.27
			C1006.33,55.19,1008.08,47.65,1008.56,42.48z"/>
		<polygon class="st0" points="1038.85,95.56 1040.73,81.41 1048.13,81.23 1048.58,97.31 		"/>
		<polygon class="st0" points="1038.63,76.59 1040.94,62.16 1049.76,61.95 1050.22,78.33 		"/>
		<path class="st0" d="M1023.34,55.37l-0.37-13.27l12.62-0.3c0,0-3.57,11.49-2.58,13.34C1034,56.99,1023.34,55.37,1023.34,55.37z"/>
		<polygon class="st0" points="1019.09,75.18 1022.73,60.98 1035.83,60.67 1036.28,76.75 		"/>
		<polygon class="st0" points="1007.72,95.75 1010.3,81.58 1019.97,81.34 1020.42,97.42 		"/>
	</g>
	<path class="st1" d="M1002.62,29.45c-4.43,19.03,1.86,142.94,1.86,142.94l5.81-0.14c0,0,1.32-13.72,1.6-23.14
		c0,0,5.92-2.71,7.63-0.18c1.71,2.53,0.65,23.09,0.65,23.09l34.36-0.83c0.47-11.58,0.91-137.75,0.91-137.75
		C1046.37,22.09,1002.62,29.45,1002.62,29.45z M1041.1,105.43l6.42-0.15l0.35,12.37l-8.44-1.32L1041.1,105.43z M1038.85,95.56
		l1.62-12.9l6.42-0.15l0.41,14.65L1038.85,95.56z M1019.29,136.27l-9.87,0.24c0,0,1.51-6.87,1.92-11.58c0,0,5.96-1.42,7.63-0.18
		C1020.64,125.99,1019.29,136.27,1019.29,136.27z M1018.72,115.79l-9.87,0.24c0,0,1.51-6.87,1.92-11.58c0,0,5.96-1.42,7.63-0.18
		C1020.07,105.51,1018.72,115.79,1018.72,115.79z M1018.14,95.3l-9.87,0.24c0,0,1.51-6.87,1.92-11.58c0,0,5.96-1.42,7.63-0.18
		C1019.49,85.02,1018.14,95.3,1018.14,95.3z M1017.57,74.82l-9.87,0.24c0,0,1.51-6.87,1.92-11.58c0,0,5.96-1.42,7.63-0.18
		C1018.92,64.54,1017.57,74.82,1017.57,74.82z M1016.99,54.34l-9.87,0.24c0,0,1.51-6.87,1.92-11.58c0,0,5.96-1.42,7.63-0.18
		C1018.34,44.06,1016.99,54.34,1016.99,54.34z M1034,135.91c0.86,1.69-8.4,0.2-8.4,0.2l-0.34-12.09l10.96-0.26
		C1036.22,123.76,1033.13,134.23,1034,135.91z M1033.42,115.43c0.86,1.69-8.4,0.2-8.4,0.2l-0.34-12.09l10.96-0.26
		C1035.64,103.28,1032.56,113.74,1033.42,115.43z M1032.85,94.95c0.86,1.69-8.4,0.2-8.4,0.2l-0.34-12.09l10.96-0.26
		C1035.07,82.8,1031.98,93.26,1032.85,94.95z M1032.27,74.47c0.86,1.69-8.4,0.2-8.4,0.2l-0.34-12.09l10.96-0.26
		C1034.49,62.32,1031.41,72.78,1032.27,74.47z M1032.76,53.96c0.97,1.68-9.45,0.23-9.45,0.23l-0.34-12.09l12.34-0.3
		C1035.3,41.8,1031.79,52.28,1032.76,53.96z M1051.03,138.07l-11.03-1.54l2.22-12.91l8.4-0.2L1051.03,138.07z M1049.31,76.62
		l-11.03-1.54l2.22-12.91l8.4-0.2L1049.31,76.62z M1048.73,56.14l-11.03-1.54l2.22-12.91l8.4-0.2L1048.73,56.14z"/>
</g>
<path class="st2" d="M834.39,164.38c0,0-4.19-61.11-5.2-63.74c-1.01-2.63-29.39-19.08-30.98-19.32s-11.08,13.42-11.68,10.8
	s-0.82-16.19-2.44-17.51s-11.91-2.58-11.29,3.59c0.61,6.17,4.29,14.51,4.09,18.18s-10.74,9.75-12.68,10.85s-0.79,1.49,0.68,16.66
	s-0.33,42.05-0.33,42.05L834.39,164.38z"/>
<g>
	<path class="st0" d="M985.94,167.87c0.3-3.74,2-25.21,1.78-29.51c-0.04-0.83-0.11-1.57-0.16-2.23c-0.26-3.03-0.34-3.94,2.05-4.62
		c1.79-0.51,7.77-3.29,13.54-5.98c4.6-2.14,9.81-4.56,10.45-4.65c0.42,0.05,2.53,1.41,4.07,2.4c3.15,2.03,5.29,3.36,6.26,3.36
		c0.33,0,0.52-0.14,0.62-0.25c0.51-0.56,0.65-2.25,0.85-5.18c0.13-1.9,0.29-4.26,0.63-4.83c0.38-0.64,3.7-1.34,6.35-1.34
		c0.5,0,0.78,0.03,0.93,0.06c0,0.82-0.32,4.21-0.56,6.73c-0.34,3.62-0.55,5.87-0.49,6.36c0.18,1.36,6.14,6.42,8.2,6.57
		c0.55,0.04,1.61,0.26,2.47,1.28c0.94,1.12,1.32,2.87,1.1,5.07c-0.46,4.53-1.9,25.29-2.13,28.73L985.94,167.87z"/>
	<path d="M1032.38,115.52c0.16,0,0.29,0,0.4,0.01c-0.06,1.26-0.33,4.07-0.53,6.23c-0.4,4.2-0.55,5.96-0.48,6.48
		c0.14,1.06,2.26,2.97,3.51,4.02c1.28,1.07,3.64,2.87,5.15,2.98c0.48,0.03,1.38,0.22,2.12,1.1c0.85,1.02,1.19,2.64,0.99,4.7
		c-0.44,4.36-1.79,23.7-2.1,28.26l-54.96-1.91c0.39-4.89,1.95-24.9,1.74-29.06c-0.04-0.84-0.11-1.59-0.16-2.25
		c-0.27-3.13-0.23-3.55,1.69-4.1c1.83-0.52,7.83-3.32,13.63-6.01c4.3-2,9.15-4.26,10.2-4.58c0.61,0.23,2.46,1.42,3.83,2.3
		c3.63,2.34,5.46,3.44,6.53,3.44c0.54,0,0.85-0.26,0.99-0.42c0.59-0.65,0.74-2.1,0.97-5.48c0.11-1.64,0.28-4.12,0.54-4.58
		C1026.89,116.16,1029.91,115.52,1032.38,115.52 M1032.38,114.52c-2.17,0-6.18,0.57-6.78,1.59c-0.81,1.38-0.6,9.02-1.42,9.93
		c-0.05,0.06-0.14,0.09-0.25,0.09c-1.64,0-9.23-5.75-10.36-5.75c0,0-0.01,0-0.01,0c-1.18,0.03-20.71,9.68-24.1,10.65
		c-3.38,0.97-2.48,2.73-2.24,7.36s-1.82,29.97-1.82,29.97l56.97,1.98c0,0,1.67-24.23,2.17-29.2c0.5-4.96-2-6.75-4.03-6.9
		c-2.03-0.15-7.6-5.15-7.74-6.13c-0.13-0.98,1.24-12.77,1.01-13.35C1033.71,114.59,1033.17,114.52,1032.38,114.52L1032.38,114.52z"
		/>
</g>
<g>
	<polygon class="st0" points="1012.15,145.68 1003.84,145.88 1003.65,138.92 1011.96,138.72 	"/>
	<polygon class="st0" points="1031.68,148.12 1023.2,148.32 1022.98,140.47 1031.46,140.27 	"/>
	<polygon class="st0" points="999.44,159.81 991.98,159.99 991.77,152.4 999.23,152.22 	"/>
	<polygon class="st0" points="1013.95,168.15 1006.04,168.34 1005.63,153.44 1013.54,153.25 	"/>
	<polygon class="st0" points="1031.21,161.81 1024.49,161.97 1024.3,154.97 1031.01,154.8 	"/>
</g>
<path class="st3" d="M153.13,187.74c0,0,0.54-22.32-0.72-25.67c-1.26-3.35-3.78-8.36-1.46-10.27c2.32-1.91,25.99-29.18,25.99-29.18
	s5.66,6.62,6.59,7.28c0.93,0.65,22.49,22.4,22.49,22.4l1.78,17.23l-0.84,16.09L153.13,187.74z"/>
<g>
	<polygon class="st0" points="173.66,161.57 163.82,161.81 163.59,153.68 173.43,153.44 	"/>
	<polygon class="st0" points="193.8,161.08 183.96,161.32 183.73,153.19 193.57,152.95 	"/>
	<polygon class="st0" points="197.39,179.31 187.55,179.55 187.32,171.42 197.16,171.19 	"/>
	<polygon class="st0" points="176.51,185.63 166.67,185.86 166.17,168.21 176.02,167.97 	"/>
</g>
<path id="rect3000-6_00000060715958081807425460000010147914041808343479_" d="M448.7,150.8c14.3-0.79,16.62,9.19,21.22,9.67
	c12.37,0.3,19.56,2.5,15.21,11.63c-0.13,1.33-3.15,1.24-5.64,1.28l-0.87,0.02c-0.36-3.02-3.31-5.34-6.84-5.26
	c-3.53,0.09-6.36,2.55-6.54,5.59l-21.85,0.54c-0.36-3.02-3.29-5.34-6.82-5.26c-3.52,0.09-6.35,2.54-6.54,5.57
	c-8.08,0.2-4.04-8.06-0.95-13.34c3.01-5.53,0.91-8.81,7.82-9.54C442.5,151.13,444.98,150.85,448.7,150.8L448.7,150.8z
	 M445.24,152.44c-3.43,0.12-6.86,0.49-10.12,1.26c-2.98,1.04-2.19,5.76-3.51,8.01l15.78-0.39l-0.89-8.88
	C446.08,152.43,445.66,152.43,445.24,152.44L445.24,152.44z M448.51,152.43l0.91,8.83l11.67-0.29c2.15-0.05,3.22,0.07,2.56-0.92
	C458.02,153.21,456.77,152.48,448.51,152.43L448.51,152.43z M471.82,169.26c3.22-0.08,5.9,2.24,5.99,5.18
	c0.09,2.93-2.46,5.37-5.68,5.45c-3.22,0.08-5.9-2.23-5.99-5.16C466.06,171.79,468.6,169.34,471.82,169.26L471.82,169.26z
	 M436.61,170.13c3.22-0.08,5.9,2.24,5.99,5.18c0.09,2.93-2.46,5.37-5.68,5.45c-3.22,0.08-5.92-2.23-6-5.16
	C430.83,172.67,433.39,170.21,436.61,170.13L436.61,170.13z M471.86,171.25c-1.97,0.05-3.53,1.57-3.48,3.4
	c0.05,1.83,1.7,3.27,3.67,3.22c1.97-0.05,3.53-1.57,3.48-3.4C475.48,172.65,473.84,171.2,471.86,171.25z M436.67,172.12
	c-1.97,0.05-3.53,1.57-3.48,3.4c0.05,1.83,1.7,3.27,3.67,3.22c1.97-0.05,3.53-1.57,3.48-3.4
	C440.28,173.52,438.64,172.08,436.67,172.12z"/>
<path class="st4" d="M846.19,164.42c0,0-9.3-123.13-2.34-128.6c0,0,8.75,0.93,9.25-1.36c0.5-2.3-2.59-10.44-0.33-11.87
	s11.72-0.51,11.61-3.02c-0.1-2.51-2.5-11.59,1.15-11.91s6.34-3.16,6.33,2c-0.01,5.16-3.5,9.45,0.36,10.63
	c3.87,1.18,2.7,13.87,2.7,13.87s36.78,2.54,37.42,4.12c0.65,1.58,3.68,64.76,2.19,77.94c-1.49,13.18-6.53,45.21-4.02,50.78
	S846.19,164.42,846.19,164.42z"/>
<g>
	<polygon class="st0" points="866.08,59.32 854.73,59.59 854.35,46.15 865.7,45.88 	"/>
	<polygon class="st0" points="885.13,58.86 873.79,59.14 873.41,45.7 884.75,45.42 	"/>
	<polygon class="st0" points="905.18,59.7 893.83,59.97 893.46,46.53 904.8,46.26 	"/>
	<polygon class="st0" points="862.58,88.25 851.23,88.52 850.85,75.08 862.2,74.81 	"/>
	<polygon class="st0" points="881.63,87.79 870.29,88.07 869.91,74.63 881.26,74.35 	"/>
	<polygon class="st0" points="901.68,88.63 890.33,88.9 889.96,75.46 901.3,75.19 	"/>
	<polygon class="st0" points="865.78,114.8 854.44,115.07 854.06,101.63 865.4,101.36 	"/>
	<polygon class="st0" points="884.84,114.34 873.49,114.61 873.11,101.17 884.46,100.9 	"/>
	<polygon class="st0" points="904.85,113.86 893.5,114.13 893.12,100.69 904.47,100.42 	"/>
	<polygon class="st0" points="863.46,142.58 853.39,142.82 853.02,129.59 863.09,129.35 	"/>
	<polygon class="st0" points="881.28,142.66 869.93,142.93 869.56,129.49 880.9,129.22 	"/>
	<polygon class="st0" points="869.58,163.86 858.24,164.13 857.86,150.69 869.21,150.42 	"/>
	<polygon class="st0" points="901.62,142.17 890.27,142.44 889.9,129 901.24,128.73 	"/>
</g>
<path class="st5" d="M503.88,180.24c0,0-5.92-20.76-5.34-33.39c0.58-12.63,1.75-23.3,3.72-24.46c1.97-1.16,35.45-4.44,41.57-4.09
	c6.12,0.35,30.46-1.96,33.89-0.2s1.19,9.62,1.31,14.01c0.12,4.39-5.01,45.08-4.97,46.44S503.88,180.24,503.88,180.24z"/>
<g>
	<polygon class="st0" points="518.75,134.25 512.38,134.4 512.19,127.6 518.56,127.45 	"/>
	<polygon class="st0" points="533.48,133.89 527.11,134.04 526.92,127.24 533.29,127.09 	"/>
	<polygon class="st0" points="550,133.49 541.85,133.69 541.64,126.14 549.78,125.94 	"/>
	<polygon class="st0" points="566.45,133.1 557.22,133.32 557.01,125.59 566.23,125.37 	"/>
	<polygon class="st0" points="518.98,146.07 512.61,146.22 512.42,139.42 518.79,139.27 	"/>
	<polygon class="st0" points="533.72,145.72 527.35,145.87 527.15,139.07 533.52,138.92 	"/>
	<polygon class="st0" points="549.37,146.28 541.22,146.47 541.01,138.92 549.16,138.73 	"/>
	<polygon class="st0" points="565.96,145.92 556.73,146.14 556.52,138.42 565.75,138.2 	"/>
	<polygon class="st0" points="519.37,159.92 513,160.07 512.81,153.27 519.18,153.12 	"/>
	<polygon class="st0" points="534.1,159.56 527.73,159.72 527.54,152.92 533.91,152.76 	"/>
	<polygon class="st0" points="549.57,158.72 541.43,158.91 541.21,151.36 549.36,151.17 	"/>
	<polygon class="st0" points="545.84,177.57 537.69,177.77 537.34,165.56 545.49,165.36 	"/>
	<polygon class="st0" points="565.71,158.8 556.48,159.02 556.26,151.3 565.49,151.08 	"/>
</g>
<path id="path3553_00000032635863741179004710000011533055504824398229_" d="M1058.62,169.28c-4.75-0.14-9.5-0.29-14.25-0.45
	c0.44-16.92,1.35-22.81,1.69-33.29c0.02-0.57-0.34-1.14-0.88-1.41l-10.13-5.11c0-0.02,0.01-0.05,0.01-0.07
	c0.29-3.94,0.8-10.01,0.92-14.03c0.02-0.75-0.62-1.47-1.42-1.59c-1.17-0.17-3.38-0.55-5.55-0.43c-1.09,0.06-2.19,0.23-3.22,0.76
	c-1.03,0.53-1.94,1.57-2.14,2.82c0,0.05-0.01,0.1-0.01,0.15c-0.13,2.14-0.24,4.3-0.35,6.47l-9-4.54c-0.48-0.24-1.09-0.25-1.58-0.02
	l-27.2,12.99c-0.66,0.32-1.04,1.08-0.86,1.76c1.53,5.73,0.7,15.61-0.1,24c-0.32,3.43-0.62,6.62-0.71,9.27
	c-8.41-0.33-16.84-0.65-25.31-0.95c-2.74-8.37-1.52-15.53-0.72-21.01c2.14-0.1,4.33-0.95,5.7-2.24c3.25-1.26,2.56-7.09,6.51-4.4
	c5.4,1.55,6.62-4.04,6.64-7.04c-1.25-4.62,3.98-7.92,2.96-12.44c-0.13-3.8-4.93-5.26-8.83-3.56c0.65-3.95-1.52-9-6.82-10.15
	c-3.35-0.72-5.08,2.9-6.83,3.38c-1.16-2.91-4.98-5.54-8.92-5.41c-0.91,0.03-1.83,0.2-2.72,0.55c-2.63,1.9-5.39,4.02-9.29,3.15
	c-4.92-0.29-5.99,3.89-7.96,6.48c-8,1.44-6.54,10.81-2.69,16.21c-1.54,5.68,3.79,10.74,9.35,10.1c1.38,2.69,4.84,5.12,6.79,5.8
	c5.5,2.74,6.59,7.03,7.56,18.16c0,0.62-0.13,1.33-0.34,2.09c-12.38-0.41-24.84-0.76-37.39-1.01c0.82-33.22,11.04-47.39,3.42-125.64
	c-0.07-0.73-0.63-1.4-1.38-1.63c-9.5-2.95-24-3.78-36.31-3.95c-0.3-3.89-0.65-9.12-1.38-12.91c-0.16-0.81-0.94-1.48-1.82-1.56
	c-0.17-3.6-0.36-7.73-0.64-10.81c-0.08-0.91-0.96-1.7-1.94-1.74c-0.69-0.03-1.83-0.09-3.09-0.05l0,0c-1.37,0.04-2.89,0.17-4.35,0.77
	c-1.45,0.6-2.93,2.04-3,3.89c0,0.06,0,0.12,0,0.18c0.16,2.67,0.36,5.35,0.57,8.05c-2.24,0.15-4.43,0.36-6.28,0.75
	c-1.21,0.25-2.28,0.55-3.23,1.05c-0.96,0.5-1.98,1.36-2.17,2.67c-0.02,0.15-0.02,0.3-0.01,0.45c0.36,3.17,0.82,6.35,1.42,9.59
	c-2.78,0.08-5.32,0.18-6.93,0.49c-1.18,0.23-1.63,0.94-1.92,1.45c-0.29,0.51-0.46,1.02-0.63,1.62c-0.33,1.2-0.59,2.76-0.81,4.68
	c-0.44,3.85-0.73,9.18-0.9,15.54c-0.35,12.73-0.21,29.54,0.25,46.33c0.45,16.79,1.22,33.55,2.16,46.16
	c0.44,5.89,0.91,10.85,1.41,14.54c-5.23,0.1-113.99,2.74-119.27,2.9c1.19-12.14,8.19-23.11,8.71-49.12
	c-4.06-0.44-9.08-0.75-14.6-0.97c-0.2-3.01-0.46-6.66-0.88-9.22c-1.26-0.01-3.12-0.03-5.1,0.03c-4.35,0.12-9.24,0.6-9.44,2.41
	c0.21,2.14,0.44,4.28,0.74,6.43c-9.84-0.1-20.04,0-28.69,0.22c-8.38,0.21-15.31,0.52-19.04,0.86c-5.32,0.48-3.87,38.95-0.5,53.8
	c-0.62,0.06-1.23,0.11-1.85,0.17c-3.89,0.38-7.82,0.73-11.75,1.06c0.1-25.99,2.64-37.63-3.47-100.29
	c-10.75-3.34-24.74-4.37-34.98-4.06c-4.01,0.12-7.44,0.44-9.88,0.91c-4.25,0.81-5.72,87.24-3.46,106.76
	c-4.72,0.21-9.46,0.41-14.23,0.59c0.69-15.1,4.31-28.78,4.91-58.55c0.01-0.76-0.67-1.48-1.49-1.57c-3.63-0.39-7.95-0.5-12.65-0.42
	c-14.1,0.24-31.76,2.08-45.47,2.43c-8.58,0.22-15.69,1.8-19.13,2.11c-1.08,0.1-1.87,0.78-2.36,1.46c-0.49,0.68-0.81,1.46-1.1,2.39
	c-0.57,1.85-0.95,4.27-1.2,7.13c-0.5,5.72-0.49,13.18-0.12,20.63c0.37,7.45,1.1,14.88,2.07,20.51c0.36,2.11,0.75,3.96,1.19,5.49
	c-4.6,0.05-85.71,1.93-90.33,1.96c2.38-28.37,0.89-88.01-0.5-104.14c-0.3-3.46-11.06-4.9-24.21-4.99
	c-0.37-4.89-0.8-11.78-1.63-16.37c-2.18-0.01-5.4-0.03-8.81,0.06c-7.51,0.2-15.95,0.95-16.3,3.73c0.5,4.57,1.05,9.12,1.93,13.78
	c-13.07,1.32-23.64,3.62-23.64,6.23l3.13,102.07c-2.43,0.01-4.86,0.03-7.3,0.05c-1.7-18.96-1.05-24.53-1.79-34.9l-29.46-15.09
	l-11.24,7.01c-0.19-4.55-0.42-9.79-0.71-13.63c-0.69-0.04-1.7-0.12-2.78-0.09c-2.37,0.08-5.02,0.7-5.08,3.47
	c0.27,4.97,0.55,9.91,0.97,15l-8.49,5.3c4.25,8.84,1.53,26.6,2.95,33.56c-8.85,0.16-17.7,0.36-26.54,0.6
	c-3.35-9.1-2.37-16.99-1.47-23.14c6.81,1.77,15.69-0.89,14.05-8.48c13.27-8.53,2.94-26.52-7.58-22.23
	c3.32-6.85-10.33-11.56-13.01-4.82c-1.35-2.64-3.71-3.73-5.92-3.68c-2.83,0.07-5.4,2.02-5.2,5.01c-6.18-3.13-19.09,2.3-12.32,12.45
	c-13.51,5.79-1.31,23.08,6.65,16.87c1.79,1.88,4.15,3.38,5.67,3.9c6.09,3.03,7.3,7.78,8.38,20.09c0,1.25-0.48,2.82-1.1,4.38
	c-9.69,0.31-19.36,0.68-29.02,1.13c-1.28-15.87-0.77-21.32-1.46-31.04c-0.02-0.36-0.19-0.7-0.45-0.96l-29.88-29.79
	c-0.34-0.34-0.86-0.53-1.36-0.49c-0.46,0.03-0.91,0.25-1.19,0.58l-26.92,31.77c-0.37,0.44-0.46,1.08-0.21,1.6
	c2.39,4.96,2.44,14,2.36,21.71c-0.04,3.86-0.09,7.38,0.24,10.11c0.01,0.11,0.04,0.22,0.05,0.33c-9.04,0.77-18.03,1.63-26.98,2.59
	c0-3.31,0.79-5.92,2.32-8.25c0.96,0.21,1.97,0.33,3.01,0.32c6.22-0.04,11.24-4.24,11.19-9.37c-0.04-4.57-4.09-8.32-9.37-9.05
	c0.07-0.45,0.12-0.92,0.12-1.39c-0.04-5.13-4.41-9.26-9.72-9.22c-0.17,0-0.33,0-0.49,0.01c-5.09,0.29-9.1,4.37-9.06,9.34
	c0,0.1,0.03,0.21,0.03,0.31c-0.29-0.02-0.6-0.03-0.9-0.03c-6.4,0.05-11.55,4.68-11.5,10.36c0.05,5.68,5.28,10.25,11.68,10.21
	c0.97-0.01,1.91-0.13,2.8-0.33c2.91,2.79,3.58,4.83,3.44,7.8C93.62,187.38,39.52,191.66,0,200c-20.85,4.4,67.09,2.05,89,2
	c442-1,947.45,0.73,1389-2c-5.17-1.86-155-25.87-328.14-30.32c-5.07-0.13-1.92-10.17,0.46-14.82c7.68,1.22,16.36-4.12,16.54-11.66
	c0.25-5.6-4.73-10.45-10.17-11.87c0.19-6.68-6.64-12.69-13.88-11.83c-5.79,0.51-10.51,5.25-11.2,10.51
	c-8.2,0.33-15.19,8.11-13.31,15.66c1.44,6.91,9.52,11.75,16.93,10.42c3.28,2.99,2.59,7.61,1.83,11.43
	c-0.17,0.85-0.19,1.68-0.34,2.45 M868.5,9.75c0.34-0.01,0.61,0.01,0.94,0.02c0.25,3.31,0.45,7.41,0.61,10.76
	c0.04,0.96,0.99,1.81,2.03,1.81c0.49,3.27,0.82,7.41,1.08,10.8c-0.83,0.36-1.32,1.29-1.12,2.12c0.2,0.83,1.06,1.48,1.98,1.49
	c12.18,0.06,27.56,0.92,36.96,3.51c7.34,76.64-2.69,90.42-3.51,123.94c-11.62-0.21-23.32-0.33-35.11-0.32
	c0.02-3.18,0.1-6.79-0.26-13.88c-0.04-0.85-0.78-1.64-1.69-1.78c-1.32-0.21-2.85-0.23-4.47-0.19c-1.65,0.04-3.45,0.03-5.05,0.05
	c-1.6,0.02-2.84-0.01-4.07,0.3c-0.8,0.2-1.14,0.68-1.31,0.96c-0.17,0.27-0.24,0.47-0.29,0.64c-0.1,0.35-0.13,0.64-0.16,0.97
	c-0.06,0.66-0.07,1.46-0.06,2.41c0.03,1.89,0.17,4.34,0.37,6.82c0.1,1.28,0.23,2.57,0.36,3.8c-2.54,0.03-5.09,0.07-7.64,0.12
	c-0.5-3.58-0.98-8.65-1.43-14.72c-0.93-12.52-1.71-29.25-2.16-45.99c-0.45-16.75-0.58-33.53-0.24-46.15
	c0.17-6.31,0.47-11.58,0.89-15.24c0.21-1.83,0.45-3.27,0.69-4.14c0.06-0.2,0.08-0.24,0.13-0.37c1.47-0.18,4.51-0.35,7.82-0.42
	c1.18-0.03,2.18-1.17,1.96-2.25c-0.76-3.64-1.24-7.21-1.66-10.84c0.02-0.01,0-0.01,0.03-0.02c0.37-0.2,1.14-0.46,2.13-0.67
	c1.97-0.41,4.79-0.67,7.64-0.8c1.09-0.05,2.03-1.04,1.94-2.05c-0.29-3.26-0.5-6.48-0.69-9.72c0.01-0.34,0-0.3,0.55-0.53
	C866.26,9.95,867.38,9.78,868.5,9.75L868.5,9.75z M857.62,43.49c-0.44,0.01-0.86,0.03-1.25,0.04c-1.05,0.04-1.9,0.09-2.51,0.16
	c-1.18,0.14-1.6,0.88-1.78,1.23c-0.18,0.35-0.24,0.61-0.3,0.89c-0.12,0.55-0.17,1.13-0.21,1.82c-0.08,1.37-0.07,3.1,0.01,4.82
	c0.07,1.72,0.21,3.43,0.39,4.77c0.09,0.67,0.18,1.24,0.31,1.74c0.07,0.25,0.13,0.47,0.29,0.78c0.08,0.15,0.17,0.34,0.42,0.59
	c0.24,0.25,0.76,0.64,1.53,0.66c0.02,0,0.04,0,0.06,0l11.5-0.05c1.07-0.01,2.04-0.91,2.03-1.9c-0.02-3.7,0.7-5.79,0.75-13.29
	c0.01-0.89-0.75-1.73-1.7-1.88C864.58,43.45,860.67,43.41,857.62,43.49L857.62,43.49z M877.12,43.98c-0.45,0.01-0.87,0.03-1.24,0.04
	c-1.04,0.04-1.88,0.07-2.52,0.15c-1.18,0.14-1.6,0.88-1.78,1.23c-0.18,0.35-0.24,0.61-0.3,0.89c-0.12,0.55-0.17,1.13-0.21,1.82
	c-0.08,1.37-0.07,3.1,0.01,4.82c0.07,1.72,0.21,3.43,0.39,4.77c0.09,0.67,0.18,1.24,0.31,1.74c0.07,0.25,0.13,0.48,0.29,0.79
	c0.08,0.15,0.17,0.34,0.42,0.59c0.24,0.25,0.76,0.64,1.53,0.66c0.02,0,0.04,0,0.06,0l11.51-0.05c1.07-0.01,2.04-0.91,2.03-1.9
	c-0.02-3.7,0.7-5.79,0.75-13.29c0.01-0.89-0.75-1.73-1.7-1.88C884.1,43.94,880.19,43.92,877.12,43.98L877.12,43.98z M895.81,45.16
	c-0.96,0.03-1.73,0.09-2.26,0.15c-1.18,0.13-1.58,0.87-1.76,1.21c-0.18,0.34-0.23,0.58-0.28,0.84c-0.11,0.51-0.16,1.04-0.2,1.65
	c-0.07,1.23-0.06,2.76,0,4.3c0.07,1.54,0.18,3.06,0.34,4.26c0.08,0.6,0.17,1.11,0.29,1.57c0.06,0.23,0.11,0.45,0.26,0.74
	c0.08,0.15,0.17,0.32,0.42,0.57c0.24,0.25,0.75,0.64,1.52,0.66c0.02,0,0.04,0,0.06,0l10.24-0.05c1.07-0.01,2.04-0.91,2.03-1.9
	c-0.02-3.27,0.62-5.14,0.67-11.83c0.01-0.89-0.75-1.73-1.7-1.88C902.8,45.04,898.63,45.06,895.81,45.16z M856.51,47.31
	c2.41-0.09,5.77-0.02,8.2,0.17c-0.12,4.63-0.49,7.01-0.63,9.66l-7.98,0.04c-0.03-0.17-0.05-0.23-0.08-0.43
	c-0.16-1.18-0.29-2.83-0.36-4.47c-0.07-1.64-0.09-3.29-0.02-4.46c0.01-0.22,0.03-0.29,0.05-0.47
	C856,47.34,856.14,47.32,856.51,47.31z M877.21,47.77c2.28-0.05,4.96,0.03,7.02,0.19c-0.12,4.64-0.49,7.03-0.63,9.68l-7.99,0.04
	c-0.03-0.17-0.05-0.24-0.08-0.44c-0.16-1.18-0.29-2.82-0.36-4.46c-0.07-1.64-0.09-3.3-0.02-4.47c0.01-0.21,0.03-0.28,0.05-0.46
	c0.32-0.02,0.45-0.04,0.83-0.05C876.42,47.8,876.8,47.78,877.21,47.77z M895.96,48.94c2.07-0.07,4.92-0.01,7.06,0.14
	c-0.11,3.87-0.42,5.97-0.55,8.21l-6.71,0.03c-0.01-0.09-0.03-0.11-0.04-0.2c-0.14-1.04-0.25-2.5-0.31-3.95
	c-0.06-1.46-0.08-2.92-0.02-3.95c0.01-0.11,0.02-0.14,0.02-0.24C895.64,48.96,895.72,48.95,895.96,48.94L895.96,48.94z M400.37,80.2
	c1.29-0.05,2.24,0.01,2.27,0.25c0.17,1.4,0.29,6.65-0.08,9.08c-5.24,0.28-6.66-0.15-9.44,0.03l-0.07-8.21
	C393.05,80.95,397.53,80.31,400.37,80.2z M370.12,81.38c0.56-0.01,0.91,0.05,0.93,0.19c0.25,1.38,0.69,6.6,0.46,9.04
	c-5.23,0.64-6.68,0.32-9.46,0.7l-0.57-8.17C361.47,82.66,367.71,81.42,370.12,81.38L370.12,81.38z M385.46,81.27
	c0.32,2.13,0.19,6.82,0.04,8.09c-0.08,0.7-8.54,0.62-8.55,0.1l0.09-7.33C379.52,82.02,380.79,81.51,385.46,81.27z M355.44,82.26
	c0.29,1.93,0.17,6.17,0.04,7.32c-0.08,0.63-7.73,0.56-7.74,0.09l0.09-6.63C350.07,82.94,351.21,82.48,355.44,82.26z M598.71,76.99
	c2.52-0.09,6.45-0.07,8.54,0.25c-0.04,6.07-0.63,7.72-0.62,10.95l-9.46,0.04c-0.68-0.01-1.27-11.03-0.38-11.13
	C597.19,77.06,597.87,77.02,598.71,76.99L598.71,76.99z M614.77,77.4c2.52-0.09,6.45-0.07,8.54,0.25
	c-0.04,6.07-0.63,7.72-0.62,10.95l-9.46,0.04c-0.68-0.01-1.27-11.03-0.38-11.13C613.25,77.47,613.93,77.43,614.77,77.4L614.77,77.4z
	 M628.49,78.4c2.24-0.08,5.74-0.07,7.6,0.23c-0.04,5.41-0.56,6.87-0.55,9.75l-8.43,0.05c-0.6-0.01-1.13-9.82-0.33-9.91
	C627.13,78.47,627.74,78.43,628.49,78.4L628.49,78.4z M872.59,72.86c-1.24,0.05-2.38,0.11-3.37,0.26c-0.95,0.14-1.72,0.97-1.73,1.87
	c-0.05,7.49,0.63,9.59,0.56,13.29c-0.02,0.99,0.94,1.9,2,1.92l11.49,0.19c0.02,0,0.04,0,0.06,0c0.77-0.01,1.3-0.39,1.55-0.63
	c0.25-0.25,0.35-0.43,0.43-0.59c0.16-0.31,0.23-0.53,0.29-0.78c0.14-0.5,0.23-1.07,0.33-1.73c0.2-1.34,0.36-3.05,0.46-4.77
	c0.1-1.72,0.13-3.44,0.08-4.81c-0.03-0.69-0.08-1.28-0.19-1.83c-0.06-0.28-0.11-0.54-0.29-0.89c-0.18-0.35-0.58-1.11-1.76-1.25
	C880.65,72.87,876.32,72.72,872.59,72.86L872.59,72.86z M892.11,72.61c-1.24,0.05-2.38,0.11-3.37,0.26
	c-0.95,0.14-1.72,0.97-1.73,1.87c-0.05,7.49,0.63,9.58,0.56,13.28c-0.02,0.99,0.94,1.9,2,1.92l11.49,0.2c0.02,0,0.04,0,0.06,0
	c0.77-0.01,1.3-0.39,1.55-0.63c0.25-0.25,0.35-0.43,0.43-0.59c0.16-0.31,0.22-0.53,0.29-0.78c0.14-0.5,0.23-1.07,0.33-1.73
	c0.2-1.34,0.36-3.05,0.46-4.77c0.1-1.72,0.13-3.44,0.08-4.81c-0.03-0.69-0.08-1.28-0.19-1.83c-0.06-0.28-0.11-0.54-0.29-0.89
	c-0.18-0.35-0.58-1.11-1.76-1.25C900.17,72.61,895.83,72.47,892.11,72.61z M853.42,73.98c-1.12,0.04-2.13,0.11-3,0.24
	c-0.95,0.14-1.72,0.97-1.73,1.87c-0.05,6.68,0.55,8.53,0.49,11.81c-0.02,0.99,0.94,1.9,2,1.92L861.42,90c0.02,0,0.04,0,0.06,0
	c0.77-0.01,1.3-0.39,1.54-0.63c0.25-0.24,0.34-0.42,0.42-0.57c0.16-0.3,0.21-0.51,0.27-0.74c0.13-0.46,0.23-0.97,0.31-1.57
	c0.18-1.2,0.32-2.72,0.41-4.26c0.09-1.54,0.12-3.08,0.07-4.31c-0.03-0.62-0.07-1.14-0.17-1.65c-0.05-0.25-0.11-0.5-0.28-0.84
	c-0.17-0.34-0.57-1.09-1.74-1.24C860.6,73.97,856.75,73.85,853.42,73.98L853.42,73.98z M872.76,76.64c2.83-0.1,6.04,0.02,7.86,0.14
	c0.01,0.17,0.04,0.24,0.04,0.44c0.05,1.17,0.01,2.82-0.09,4.46s-0.24,3.29-0.41,4.47c-0.03,0.19-0.05,0.27-0.08,0.43l-7.99-0.14
	c-0.1-2.66-0.44-5.05-0.49-9.71C872.02,76.7,872.3,76.66,872.76,76.64L872.76,76.64z M892.28,76.39c2.83-0.1,6.04,0.02,7.86,0.14
	c0.01,0.17,0.04,0.24,0.04,0.44c0.05,1.17,0.01,2.82-0.09,4.46s-0.24,3.29-0.41,4.47c-0.03,0.19-0.05,0.26-0.08,0.42l-7.99-0.14
	c-0.1-2.65-0.44-5.04-0.49-9.7C891.53,76.45,891.82,76.4,892.28,76.39L892.28,76.39z M853.59,77.76c2.42-0.09,5.15,0.01,6.8,0.11
	c0.01,0.09,0.01,0.11,0.02,0.2c0.04,1.03,0.02,2.5-0.07,3.95c-0.08,1.46-0.22,2.92-0.37,3.96c-0.01,0.09-0.02,0.11-0.04,0.2
	l-6.7-0.12c-0.1-2.24-0.38-4.34-0.43-8.23C853.09,77.81,853.27,77.77,853.59,77.76L853.59,77.76z M386.21,92.33
	c0.36,2.39,0.23,7.66,0.05,9.08c-0.09,0.78-9.59,0.69-9.6,0.1l0.11-8.22C379.56,93.19,380.97,92.61,386.21,92.33L386.21,92.33z
	 M355.97,93.74c0.32,2.17,0.19,6.93,0.04,8.21c-0.08,0.71-8.68,0.62-8.68,0.09l0.1-7.44C349.94,94.51,351.23,93.99,355.97,93.74z
	 M400.09,94.16c1.29-0.05,2.23,0.01,2.26,0.25c0.17,1.4,0.29,6.65-0.08,9.08c-5.24,0.28-6.66-0.15-9.44,0.03l-0.07-8.22
	C392.76,94.9,397.25,94.27,400.09,94.16L400.09,94.16z M370.66,95.28c0.56-0.01,0.92,0.05,0.94,0.19c0.25,1.38,0.68,6.6,0.45,9.04
	c-5.23,0.64-6.67,0.32-9.45,0.7l-0.57-8.17C362.02,96.57,368.25,95.32,370.66,95.28L370.66,95.28z M611.93,96
	c2.95-0.11,6.66,0.04,7.87,0.19c0.89,0.11,0.15,11.12-0.53,11.12l-9.46-0.16c0.06-3.23-0.51-4.88-0.47-10.95
	C610.04,96.1,610.95,96.04,611.93,96L611.93,96z M627.99,95.79c2.95-0.11,6.66,0.04,7.87,0.19c0.89,0.11,0.15,11.12-0.53,11.12
	l-9.46-0.16c0.06-3.23-0.51-4.88-0.47-10.95C626.1,95.89,627.01,95.83,627.99,95.79z M598.85,96.85c2.63-0.1,5.94,0.03,7.02,0.16
	c0.79,0.1,0.13,9.91-0.47,9.91l-8.43-0.15c0.05-2.87-0.45-4.33-0.41-9.75C597.18,96.94,597.97,96.89,598.85,96.85L598.85,96.85z
	 M386.45,106.27c0.36,2.39,0.21,7.66,0.04,9.08c-0.09,0.78-9.58,0.7-9.59,0.11l0.1-8.23C379.79,107.12,381.21,106.54,386.45,106.27z
	 M399.52,106.33c1.15-0.04,1.99,0.01,2.02,0.22c0.15,1.25,0.25,5.92-0.08,8.09c-4.67,0.25-5.92-0.13-8.4,0.03l-0.07-7.31
	C393,107,397,106.43,399.52,106.33z M370.68,107.44c0.5-0.01,0.8,0.05,0.83,0.18c0.22,1.23,0.61,5.87,0.42,8.05
	c-4.66,0.57-5.95,0.29-8.43,0.62l-0.5-7.28C362.98,108.58,368.54,107.47,370.68,107.44z M356.43,108.41
	c0.32,2.17,0.19,6.93,0.04,8.21c-0.08,0.71-8.67,0.63-8.67,0.1l0.09-7.44C350.4,109.19,351.69,108.66,356.43,108.41z M881.71,99.25
	c-0.43,0.01-0.84,0.03-1.22,0.05c-3.24,0.12-6.45,0.4-7.98,0.67c-1.17,0.21-1.53,0.98-1.69,1.34s-0.2,0.63-0.24,0.9
	c-0.08,0.56-0.09,1.15-0.09,1.84c0.02,1.37,0.15,3.09,0.35,4.8c0.2,1.71,0.45,3.42,0.72,4.74c0.13,0.66,0.26,1.22,0.43,1.72
	c0.08,0.25,0.16,0.46,0.34,0.76c0.09,0.15,0.2,0.33,0.46,0.56c0.26,0.23,0.81,0.59,1.58,0.56c0.02,0,0.04,0,0.06,0l11.47-0.75
	c1.06-0.07,1.96-1.03,1.89-2.02c-0.28-3.69,0.29-5.81-0.18-13.29c-0.05-0.89-0.87-1.69-1.83-1.78c-1.09-0.11-2.41-0.13-3.85-0.1
	C881.86,99.25,881.79,99.25,881.71,99.25L881.71,99.25z M862.22,99.94c-0.41,0.01-0.82,0.02-1.23,0.04
	c-3.24,0.12-6.46,0.41-7.98,0.68c-1.17,0.21-1.53,0.98-1.69,1.34c-0.16,0.36-0.2,0.63-0.24,0.9c-0.08,0.56-0.09,1.15-0.09,1.84
	c0.02,1.37,0.15,3.09,0.35,4.8c0.2,1.71,0.45,3.42,0.72,4.74c0.13,0.66,0.26,1.22,0.43,1.72c0.08,0.25,0.16,0.46,0.34,0.76
	c0.09,0.15,0.2,0.33,0.46,0.56c0.26,0.23,0.81,0.59,1.58,0.56c0.02,0,0.04,0,0.06,0l11.47-0.75c1.06-0.07,1.96-1.03,1.89-2.02
	c-0.28-3.69,0.29-5.82-0.18-13.3c-0.05-0.89-0.87-1.69-1.83-1.78c-1.11-0.11-2.42-0.12-3.85-0.09
	C862.36,99.93,862.29,99.93,862.22,99.94L862.22,99.94z M901.19,99.44c-0.42,0.01-0.86,0.02-1.29,0.04
	c-2.89,0.11-5.75,0.36-7.14,0.6c-1.16,0.2-1.52,0.97-1.67,1.32c-0.15,0.35-0.19,0.6-0.23,0.85c-0.08,0.51-0.09,1.04-0.08,1.66
	c0.02,1.24,0.13,2.77,0.31,4.3c0.18,1.53,0.4,3.05,0.65,4.24c0.12,0.59,0.25,1.1,0.4,1.55c0.08,0.23,0.14,0.44,0.32,0.72
	c0.09,0.14,0.19,0.31,0.45,0.55s0.8,0.59,1.57,0.56c0.02,0,0.04,0,0.06,0l10.21-0.67c1.06-0.07,1.96-1.03,1.89-2.02
	c-0.24-3.26,0.27-5.16-0.15-11.84c-0.05-0.89-0.87-1.69-1.83-1.78C903.64,99.43,902.46,99.41,901.19,99.44L901.19,99.44z
	 M882.02,103.03c0.62-0.01,1.04,0.04,1.58,0.05c0.21,4.65,0,7.05,0.05,9.71l-7.97,0.52c-0.04-0.16-0.07-0.23-0.11-0.42
	c-0.24-1.17-0.48-2.81-0.66-4.44c-0.19-1.63-0.32-3.28-0.34-4.45c0-0.21,0.01-0.28,0.02-0.45c1.47-0.17,3.7-0.38,6.06-0.47
	C881.16,103.06,881.62,103.04,882.02,103.03L882.02,103.03z M862.52,103.71c0.62-0.02,1.04,0.03,1.58,0.04
	c0.21,4.65,0.01,7.06,0.05,9.71l-7.97,0.52c-0.04-0.16-0.07-0.23-0.11-0.42c-0.24-1.17-0.48-2.81-0.66-4.44
	c-0.19-1.63-0.32-3.28-0.34-4.45c0-0.21,0.01-0.28,0.02-0.45c1.47-0.17,3.7-0.39,6.06-0.48
	C861.63,103.74,862.09,103.72,862.52,103.71L862.52,103.71z M900.06,103.26c0.94-0.04,1.6,0.02,2.4,0.03c0.16,3.87,0,5.98,0.02,8.22
	l-6.68,0.43c-0.02-0.08-0.03-0.11-0.05-0.19c-0.21-1.03-0.43-2.49-0.59-3.94c-0.17-1.45-0.28-2.91-0.29-3.94c0-0.1,0-0.12,0-0.21
	C896.2,103.51,898.07,103.34,900.06,103.26L900.06,103.26z M619.44,112.59c1.13-0.02,2.17,0,2.96,0.08
	c0.38,6.06-0.09,7.74,0.15,10.96l-9.44,0.62c-0.68,0.03-2.04-10.93-1.15-11.08c1-0.18,3.74-0.43,6.33-0.53
	C618.68,112.61,619.06,112.6,619.44,112.59L619.44,112.59z M603.39,113.15c1.13-0.02,2.17,0,2.96,0.08
	c0.38,6.06-0.09,7.74,0.15,10.96l-9.44,0.62c-0.68,0.03-2.04-10.93-1.15-11.08c1-0.18,3.74-0.43,6.33-0.53
	C602.63,113.17,603.01,113.16,603.39,113.15z M632.59,112.81c1.01-0.02,1.94,0.01,2.64,0.07c0.34,5.4-0.09,6.89,0.13,9.76l-8.4,0.54
	c-0.6,0.02-1.82-9.74-1.04-9.88c0.89-0.16,3.33-0.38,5.64-0.47C631.91,112.83,632.25,112.82,632.59,112.81z M401.23,118.62
	c1.29-0.05,2.23,0.01,2.26,0.25c0.17,1.4,0.29,6.65-0.08,9.08c-5.24,0.28-6.65-0.15-9.43,0.03l-0.08-8.21
	C393.89,119.37,398.39,118.73,401.23,118.62L401.23,118.62z M370.98,119.8c0.56-0.01,0.91,0.05,0.93,0.19
	c0.25,1.38,0.68,6.6,0.45,9.04c-5.23,0.64-6.67,0.31-9.45,0.69l-0.57-8.16C362.33,121.08,368.57,119.84,370.98,119.8z M386.3,119.69
	c0.32,2.13,0.2,6.82,0.05,8.09c-0.08,0.7-8.54,0.62-8.55,0.1l0.09-7.33C380.37,120.45,381.64,119.94,386.3,119.69z M356.28,120.68
	c0.29,1.93,0.17,6.17,0.04,7.32c-0.08,0.63-7.72,0.56-7.73,0.09l0.08-6.63C350.91,121.37,352.06,120.9,356.28,120.68z
	 M177.34,125.02l28.1,28.04c0.61,9.14,0.22,15,1.47,30.47c-9.6,0.46-19.17,1-28.71,1.63c-0.14-6.25-0.53-13.85-0.77-16.49
	c-0.07-0.74-0.59-1.36-1.08-1.67c-0.49-0.31-0.98-0.44-1.47-0.55c-0.98-0.21-2.06-0.25-3.19-0.2c-1.45,0.06-2.94,0.27-4.19,0.61
	c-0.63,0.17-1.18,0.35-1.72,0.66c-0.27,0.15-0.54,0.33-0.8,0.62c-0.26,0.3-0.52,0.78-0.5,1.33c0,0,0,0.01,0,0.01l0.71,16.59
	c-3.48,0.26-6.95,0.53-10.41,0.82c-0.02-0.13-0.05-0.26-0.06-0.4c-0.29-2.39-0.25-5.88-0.21-9.74c0.08-7.35,0.24-15.97-2.29-22.08
	L177.34,125.02z M564.58,119.33c0.89-0.03,1.76-0.05,2.62-0.06c3.95-0.07,7.46,0.01,10.56,0.26c-0.69,28.61-4.18,42-4.83,57.26
	c-8.01,0.28-16.07,0.51-24.19,0.71c0-2.88,0.06-6.11-0.26-12.3c-0.03-0.71-0.65-1.35-1.4-1.47c-1.09-0.17-2.35-0.19-3.68-0.16
	c-2.94,0.08-5.99,0.43-7.51,0.81c-0.57,0.14-0.86,0.48-1.01,0.69c-0.15,0.21-0.21,0.36-0.26,0.49c-0.09,0.27-0.12,0.47-0.15,0.7
	c-0.06,0.45-0.08,0.96-0.08,1.57c-0.01,1.22,0.06,2.82,0.18,4.53c0.13,1.87,0.31,3.73,0.51,5.43c-10.15,0.19-20.38,0.33-30.67,0.44
	c-0.46-1.46-0.92-3.51-1.34-5.94c-0.94-5.45-1.67-12.8-2.04-20.16c-0.37-7.36-0.38-14.75,0.11-20.24c0.24-2.75,0.62-5.03,1.08-6.51
	c0.23-0.74,0.5-1.28,0.67-1.53c0.06-0.09,0.06-0.09,0.07-0.1c4.05-0.39,10.62-1.87,18.69-2.08
	C534.75,121.34,551.24,119.74,564.58,119.33L564.58,119.33z M563.94,122.72c-1.52,0.06-3.37,0.24-4.92,0.48
	c-0.78,0.12-1.46,0.25-2.03,0.39c-0.28,0.07-0.53,0.14-0.82,0.26c-0.15,0.06-0.31,0.14-0.53,0.32c-0.22,0.18-0.63,0.54-0.64,1.23
	c0,0.01,0,0.03,0,0.04l0.08,8.21c0.01,0.85,0.89,1.61,1.8,1.55c2.56-0.16,4.07,0.26,9.42-0.02c0.77-0.04,1.47-0.64,1.57-1.35
	c0.42-2.78,0.29-7.73,0.08-9.46c-0.06-0.49-0.38-0.9-0.63-1.11c-0.25-0.2-0.46-0.28-0.63-0.34c-0.35-0.12-0.61-0.16-0.89-0.18
	C565.25,122.69,564.63,122.7,563.94,122.72L563.94,122.72z M533.73,123.91c-1.49,0.03-3.62,0.36-5.55,0.75
	c-0.96,0.19-1.85,0.41-2.56,0.62c-0.35,0.11-0.66,0.2-0.97,0.35c-0.16,0.07-0.31,0.14-0.53,0.32c-0.22,0.17-0.7,0.53-0.67,1.35
	c0,0.01,0,0.03,0,0.04l0.57,8.16c0.06,0.86,1.01,1.57,1.93,1.45c2.56-0.34,4.09-0.04,9.44-0.7c0.75-0.09,1.39-0.71,1.46-1.41
	c0.26-2.8-0.18-7.71-0.49-9.43c-0.11-0.59-0.58-1.01-0.89-1.18c-0.31-0.17-0.52-0.21-0.71-0.25
	C534.37,123.9,534.07,123.9,533.73,123.91L533.73,123.91z M549.01,123.8c-4.78,0.25-6.14,0.76-8.4,0.86
	c-0.85,0.03-1.6,0.75-1.61,1.54l-0.09,7.33c0,0.01,0,0.03,0,0.04c0.01,0.5,0.29,0.91,0.5,1.11s0.38,0.29,0.52,0.36
	c0.27,0.13,0.45,0.16,0.64,0.2c0.37,0.08,0.75,0.13,1.19,0.17c0.88,0.08,1.97,0.11,3.08,0.11c1.11,0,2.21-0.04,3.11-0.13
	c0.45-0.05,0.85-0.1,1.26-0.21c0.2-0.05,0.41-0.11,0.7-0.27c0.28-0.16,0.81-0.52,0.9-1.28c0.19-1.59,0.34-5.98-0.04-8.48
	C550.66,124.37,549.84,123.75,549.01,123.8L549.01,123.8z M717.8,119.79c1.29-0.05,2.24,0.02,2.27,0.26
	c0.17,1.4,0.29,6.65-0.08,9.08c-5.24,0.28-6.66-0.16-9.44,0.02l-0.08-8.21c0-0.14,0.55-0.3,1.35-0.46c1.84-0.1,3.53-0.31,4.91-0.63
	C717.09,119.83,717.46,119.81,717.8,119.79L717.8,119.79z M518.98,124.79c-4.34,0.23-5.56,0.69-7.58,0.77
	c-0.85,0.03-1.6,0.75-1.61,1.54l-0.09,6.63c0,0.01,0,0.03,0,0.04c0.01,0.5,0.28,0.91,0.49,1.11c0.21,0.2,0.38,0.29,0.52,0.35
	c0.27,0.13,0.44,0.16,0.62,0.2c0.35,0.08,0.7,0.11,1.1,0.15c0.8,0.07,1.8,0.1,2.8,0.1c1.01,0,2.01-0.03,2.84-0.12
	c0.42-0.04,0.78-0.09,1.16-0.19c0.19-0.05,0.39-0.1,0.67-0.26c0.28-0.16,0.8-0.51,0.89-1.27c0.18-1.48,0.3-5.41-0.05-7.7
	C520.62,125.37,519.81,124.75,518.98,124.79z M687.55,120.98c0.56-0.01,0.91,0.04,0.93,0.18c0.25,1.38,0.69,6.6,0.46,9.04
	c-5.23,0.64-6.68,0.32-9.46,0.7l-0.57-8.16C678.9,122.26,685.14,121.02,687.55,120.98z M702.89,120.86
	c0.32,2.13,0.19,6.82,0.04,8.09c-0.08,0.7-8.54,0.62-8.55,0.1l0.09-7.33C696.94,121.62,698.22,121.11,702.89,120.86z M672.85,121.86
	c0.29,1.93,0.18,6.16,0.05,7.31c-0.08,0.63-7.73,0.56-7.74,0.09l0.09-6.63C667.49,122.54,668.63,122.08,672.85,121.86z
	 M564.08,125.84c0.25-0.01,0.36,0.01,0.57,0.01c0.08,1.53,0.12,4.17-0.01,6.25c-2.85,0.08-4.54,0.01-6.2-0.01l-0.06-5.59
	c0.35-0.07,0.69-0.15,1.18-0.22C560.96,126.07,562.76,125.89,564.08,125.84L564.08,125.84z M533.15,127.09
	c0.17,1.54,0.36,4.14,0.35,6.2c-2.86,0.29-4.56,0.33-6.22,0.43l-0.39-5.53c0.53-0.15,1.21-0.32,2.01-0.48
	C530.42,127.41,532.07,127.18,533.15,127.09L533.15,127.09z M387.07,130.76c0.36,2.39,0.21,7.66,0.04,9.08
	c-0.09,0.78-9.58,0.69-9.59,0.1l0.1-8.22C380.4,131.61,381.83,131.03,387.07,130.76L387.07,130.76z M547.49,127.08
	c0.09,1.83,0.08,3.88,0.01,5.19c-0.7,0.07-1.67,0.11-2.66,0.11c-0.94,0-1.84-0.04-2.54-0.09l0.06-4.69
	C543.71,127.44,545.37,127.27,547.49,127.08L547.49,127.08z M517.47,128.08c0.07,1.59,0.06,3.21,0.01,4.38
	c-0.62,0.05-1.41,0.09-2.25,0.09c-0.79,0-1.53-0.03-2.14-0.08l0.06-3.96C514.28,128.38,515.74,128.24,517.47,128.08z M356.81,132.17
	c0.32,2.17,0.21,6.93,0.05,8.21c-0.08,0.71-8.68,0.62-8.68,0.09l0.1-7.44C350.8,132.94,352.07,132.42,356.81,132.17z
	 M1029.21,116.02c1.06-0.06,2.25,0.06,3.33,0.19c-0.16,3.61-0.51,8.23-0.78,11.76c-0.04,0.02-0.04,0.03-0.08,0.05
	c-1.12,0.48-1.19,2.23-0.1,2.78l11.07,5.59c-0.36,9.68-1.2,16.05-1.63,32.33c-8.31-0.28-16.63-0.59-24.96-0.91
	c0.14-5.62,0.07-8.88,0.31-13.21c0.05-0.77-0.61-1.52-1.44-1.63l-8.82-1.24c-0.03,0-0.06-0.01-0.09-0.01
	c-0.59-0.05-1.08,0.21-1.3,0.4s-0.31,0.33-0.38,0.44c-0.13,0.21-0.17,0.33-0.21,0.45c-0.08,0.25-0.12,0.48-0.18,0.76
	c-0.11,0.56-0.22,1.29-0.33,2.17c-0.22,1.77-0.45,4.12-0.65,6.58c-0.13,1.6-0.24,3.23-0.33,4.77c-5.13-0.2-10.29-0.4-15.44-0.6
	c0.09-2.51,0.39-5.69,0.71-9.14c0.75-7.91,1.66-17.11,0.26-23.79l25.3-12.08l10.57,5.34c1,0.51,2.45-0.25,2.49-1.31
	c0.11-2.94,0.27-5.84,0.45-8.76c0.06-0.35,0.1-0.4,0.44-0.57C1027.76,116.22,1028.41,116.07,1029.21,116.02L1029.21,116.02z
	 M400.93,132.58c1.29-0.05,2.24,0.02,2.27,0.26c0.17,1.4,0.29,6.65-0.08,9.08c-5.24,0.28-6.66-0.16-9.44,0.02l-0.07-8.21
	C393.61,133.33,398.1,132.69,400.93,132.58L400.93,132.58z M371.51,133.71c0.56-0.01,0.91,0.05,0.93,0.19
	c0.25,1.38,0.69,6.6,0.46,9.04c-5.23,0.64-6.68,0.32-9.46,0.7l-0.57-8.17C362.87,134.99,369.1,133.75,371.51,133.71z M628.16,130.61
	c2.67-0.1,6.02,0.03,7.12,0.17c0.81,0.1,0.14,10.05-0.48,10.06l-8.56-0.15c0.05-2.92-0.45-4.41-0.41-9.9
	C626.46,130.7,627.27,130.65,628.16,130.61z M611.23,131.08c2.67-0.1,6.02,0.03,7.12,0.17c0.81,0.1,0.14,10.06-0.48,10.07
	l-8.55-0.15c0.05-2.92-0.46-4.42-0.43-9.91C609.53,131.17,610.34,131.11,611.23,131.08z M597.72,131.67
	c2.38-0.09,5.36,0.03,6.34,0.15c0.72,0.09,0.12,8.96-0.42,8.97l-7.63-0.13c0.05-2.6-0.41-3.93-0.37-8.82
	C596.2,131.75,596.92,131.7,597.72,131.67L597.72,131.67z M519.52,136.27c-4.86,0.25-6.24,0.78-8.53,0.88
	c-0.85,0.03-1.6,0.75-1.61,1.54l-0.1,7.44c0,0.01,0,0.03,0,0.04c0.01,0.5,0.29,0.92,0.51,1.12c0.21,0.2,0.38,0.28,0.52,0.35
	c0.28,0.13,0.46,0.17,0.65,0.21c0.38,0.08,0.76,0.13,1.2,0.17c0.89,0.08,2.01,0.11,3.13,0.11c1.12,0,2.23-0.04,3.16-0.13
	c0.46-0.05,0.87-0.11,1.28-0.22c0.21-0.05,0.41-0.11,0.7-0.27s0.81-0.52,0.9-1.28c0.19-1.61,0.34-6.07-0.04-8.6
	C521.17,136.85,520.35,136.23,519.52,136.27z M703.64,131.94c0.36,2.39,0.22,7.65,0.05,9.07c-0.09,0.78-9.59,0.7-9.6,0.11l0.11-8.23
	C696.98,132.78,698.4,132.21,703.64,131.94z M892.65,127.39c-1.13,0.04-2.16,0.11-3.06,0.24c-0.95,0.14-1.72,0.97-1.73,1.87
	c-0.05,6.78,0.56,8.67,0.49,12.01c-0.02,0.99,0.94,1.9,2,1.92l10.41,0.18c0.02,0,0.04,0,0.06,0c0.77-0.01,1.29-0.39,1.54-0.63
	c0.25-0.24,0.34-0.42,0.42-0.57c0.16-0.3,0.22-0.52,0.28-0.75c0.13-0.47,0.21-0.98,0.3-1.59c0.18-1.22,0.33-2.76,0.42-4.32
	s0.13-3.12,0.08-4.37c-0.03-0.63-0.07-1.16-0.17-1.67c-0.05-0.26-0.11-0.51-0.28-0.85c-0.17-0.34-0.58-1.09-1.75-1.24
	C899.96,127.39,896.04,127.26,892.65,127.39L892.65,127.39z M872.09,127.95c-1.13,0.04-2.17,0.11-3.07,0.24
	c-0.95,0.14-1.72,0.97-1.73,1.87c-0.05,6.79,0.58,8.7,0.52,12.03c-0.02,0.99,0.94,1.91,2.01,1.92l10.39,0.17c0.02,0,0.04,0,0.05,0
	c0.77-0.01,1.29-0.39,1.54-0.63c0.25-0.24,0.34-0.42,0.42-0.57c0.16-0.3,0.22-0.52,0.28-0.75c0.13-0.47,0.21-0.98,0.3-1.59
	c0.18-1.22,0.33-2.77,0.42-4.33c0.09-1.56,0.13-3.12,0.08-4.37c-0.03-0.63-0.07-1.16-0.17-1.67c-0.05-0.26-0.1-0.5-0.28-0.84
	c-0.17-0.34-0.58-1.1-1.75-1.25C879.39,127.96,875.48,127.83,872.09,127.95L872.09,127.95z M855.67,128.67
	c-1.03,0.04-1.96,0.11-2.75,0.22c-0.95,0.14-1.72,0.97-1.73,1.87c-0.04,6.06,0.5,7.75,0.45,10.69c-0.02,0.99,0.94,1.9,2,1.92
	l9.27,0.16c0.02,0,0.04,0,0.06,0c0.77-0.01,1.3-0.39,1.54-0.63c0.24-0.24,0.33-0.41,0.41-0.56c0.15-0.29,0.21-0.48,0.26-0.7
	c0.12-0.43,0.2-0.89,0.28-1.44c0.16-1.09,0.29-2.48,0.37-3.87c0.08-1.4,0.12-2.79,0.07-3.91c-0.02-0.56-0.06-1.04-0.16-1.52
	c-0.05-0.24-0.1-0.47-0.26-0.8c-0.17-0.33-0.56-1.08-1.73-1.23C862.17,128.67,858.7,128.56,855.67,128.67L855.67,128.67z
	 M673.4,133.34c0.32,2.17,0.19,6.93,0.04,8.21c-0.08,0.71-8.68,0.63-8.68,0.1l0.1-7.44C667.37,134.11,668.66,133.59,673.4,133.34z
	 M563.65,136.69c-1.52,0.06-3.38,0.24-4.92,0.48c-0.77,0.12-1.45,0.25-2.02,0.39c-0.28,0.07-0.53,0.14-0.82,0.26
	c-0.15,0.06-0.31,0.14-0.53,0.32c-0.22,0.18-0.63,0.54-0.64,1.23c0,0.01,0,0.02,0,0.03l0.02,6.34c0,0.85,0.88,1.62,1.8,1.56
	c2.56-0.16,4.07,0.25,9.42-0.03c0.77-0.04,1.47-0.64,1.57-1.35c0.4-2.66,0.33-5.97,0.13-7.59c-0.06-0.49-0.37-0.9-0.63-1.11
	c-0.26-0.2-0.48-0.28-0.65-0.34c-0.35-0.12-0.6-0.15-0.88-0.17C564.95,136.66,564.34,136.67,563.65,136.69L563.65,136.69z
	 M549.83,137.37c-5.35,0.28-6.86,0.85-9.42,0.96c-0.84,0.03-1.59,0.73-1.61,1.51l-0.18,5.73c0,0.02,0,0.05,0,0.07
	c0.01,0.51,0.29,0.91,0.51,1.12c0.22,0.21,0.38,0.29,0.53,0.36c0.28,0.13,0.48,0.17,0.68,0.22c0.4,0.09,0.81,0.13,1.3,0.17
	c0.98,0.09,2.21,0.12,3.45,0.12c1.24,0,2.46-0.04,3.47-0.14c0.5-0.05,0.95-0.11,1.38-0.23c0.22-0.06,0.43-0.13,0.72-0.29
	c0.29-0.16,0.83-0.52,0.92-1.29c0.18-1.5,0.41-4.33,0.02-6.97C551.48,137.94,550.67,137.32,549.83,137.37L549.83,137.37z
	 M534.27,137.82c-1.49,0.03-3.62,0.36-5.55,0.75c-0.96,0.19-1.85,0.41-2.56,0.62c-0.35,0.11-0.66,0.2-0.97,0.35
	c-0.16,0.07-0.31,0.14-0.53,0.32c-0.22,0.17-0.7,0.53-0.67,1.35c0,0.02,0,0.05,0,0.07l0.5,5.67c0.07,0.85,1.02,1.54,1.92,1.42
	c2.56-0.34,4.09-0.04,9.44-0.7c0.75-0.09,1.39-0.71,1.46-1.41c0.24-2.69-0.15-5.47-0.42-6.94c-0.11-0.59-0.58-1.01-0.89-1.18
	c-0.31-0.17-0.52-0.21-0.71-0.25C534.91,137.81,534.61,137.81,534.27,137.82L534.27,137.82z M717.5,133.76
	c1.29-0.05,2.24,0.01,2.27,0.25c0.17,1.4,0.29,6.65-0.08,9.08c-5.24,0.28-6.66-0.15-9.44,0.03l-0.07-8.21
	C710.18,134.51,714.67,133.87,717.5,133.76z M688.09,134.89c0.56-0.01,0.91,0.04,0.93,0.18c0.25,1.38,0.69,6.6,0.46,9.04
	c-5.23,0.64-6.68,0.32-9.46,0.7l-0.57-8.16C679.44,136.17,685.67,134.93,688.09,134.89z M1144.17,124.43
	c4.74-0.03,8.13,4.93,7.08,9.06c0.69,2.88,4.44,2.48,6.61,3.74c3.64,2.01,4.95,7.29,1.62,10.07c-1.49,1.46-3.63,2.4-5.79,2.65
	c1.29-1.75,3.87-3.36,3.54-5.69c-0.71-1.81-3.43-1.76-4.75-0.59c-4.31,2.14-10.34,2.21-13.67-1.5c-1.28-1.36-2.74-4.18-5.14-3.3
	c-1.91,1.13-0.74,3.48,0.12,4.87c0.83,1.7,2.36,3.52,1.91,5.45c-1.68,0.27-4.24-0.81-5.17,1.14c-0.12,0.68-0.25,0.92-1.02,0.54
	c-5.2-1.53-8.09-8.11-4.51-12.26c2.47-3.08,7.16-4.34,11.06-3.27c1.83-0.71,1.08-2.64,0.81-3.96c0.23-3.43,3-6.71,6.85-6.91
	C1143.86,124.44,1144.02,124.44,1144.17,124.43z M518,139.52c0.1,1.87,0.09,4.03,0.01,5.36c-0.71,0.07-1.72,0.11-2.73,0.11
	c-0.96,0-1.89-0.04-2.6-0.09l0.07-4.81C514.19,139.93,515.66,139.71,518,139.52L518,139.52z M892.82,131.17
	c2.47-0.09,5.26,0.02,6.94,0.13c0.01,0.1,0.01,0.13,0.02,0.23c0.04,1.05,0.01,2.53-0.08,4.01c-0.09,1.48-0.22,2.96-0.37,4.02
	c-0.02,0.1-0.03,0.13-0.05,0.23l-6.88-0.12c-0.1-2.3-0.37-4.43-0.43-8.43C892.29,131.22,892.49,131.18,892.82,131.17L892.82,131.17z
	 M872.26,131.73c2.47-0.09,5.25,0.02,6.93,0.13c0.01,0.1,0.01,0.13,0.02,0.23c0.04,1.05,0.01,2.54-0.08,4.02
	c-0.09,1.48-0.22,2.96-0.37,4.02c-0.02,0.11-0.03,0.14-0.05,0.24l-6.86-0.12c-0.1-2.3-0.39-4.45-0.45-8.45
	C871.72,131.78,871.93,131.74,872.26,131.73L872.26,131.73z M299.07,145.55c0.56-0.01,0.92,0.05,0.94,0.19
	c0.25,1.38,0.68,6.6,0.45,9.04c-5.23,0.64-6.67,0.32-9.45,0.7l-0.57-8.17C290.43,146.83,296.66,145.59,299.07,145.55z
	 M314.41,145.44c0.32,2.13,0.2,6.82,0.05,8.09c-0.08,0.7-8.55,0.62-8.56,0.1l0.1-7.33C308.47,146.2,309.74,145.69,314.41,145.44
	L314.41,145.44z M855.84,132.45c2.1-0.08,4.44,0.01,5.96,0.1c0,0.01,0,0.01,0,0.02c0.04,0.93,0.02,2.25-0.06,3.56
	c-0.08,1.31-0.21,2.63-0.34,3.56c0,0.01,0,0.01,0,0.02l-5.71-0.1c-0.09-1.94-0.33-3.81-0.39-7.12
	C855.5,132.48,855.63,132.46,855.84,132.45z M563.79,139.81c0.25-0.01,0.36,0.01,0.57,0.01c0.06,1.22,0.04,2.76-0.09,4.37
	c-2.83,0.08-4.51,0.02-6.17,0l-0.02-3.72c0.35-0.07,0.7-0.15,1.19-0.22C560.68,140.04,562.47,139.86,563.79,139.81L563.79,139.81z
	 M548.33,140.61c0.08,1.4,0.06,2.68-0.03,3.75c-0.05,0.01-0.06,0.02-0.12,0.02c-0.8,0.08-1.96,0.12-3.11,0.12
	c-1.12,0-2.23-0.04-3.04-0.1l0.1-3.13C543.85,141.09,545.51,140.83,548.33,140.61L548.33,140.61z M533.73,141
	c0.15,1.08,0.23,2.32,0.22,3.7c-2.86,0.29-4.56,0.33-6.23,0.43l-0.26-3.05c0.53-0.15,1.2-0.31,1.99-0.47
	C530.97,141.31,532.66,141.08,533.73,141z M387.31,144.69c0.36,2.39,0.21,7.66,0.04,9.08c-0.09,0.78-9.59,0.7-9.6,0.11l0.11-8.23
	C380.64,145.55,382.07,144.97,387.31,144.69L387.31,144.69z M400.38,144.76c1.15-0.04,1.99,0,2.02,0.21
	c0.15,1.25,0.25,5.93-0.08,8.1c-4.67,0.25-5.93-0.13-8.41,0.03l-0.07-7.31C393.84,145.42,397.85,144.85,400.38,144.76L400.38,144.76
	z M371.53,145.86c0.5-0.01,0.81,0.04,0.84,0.17c0.22,1.23,0.6,5.88,0.4,8.06c-4.66,0.57-5.94,0.29-8.42,0.62l-0.5-7.28
	C363.84,147.01,369.38,145.9,371.53,145.86z M171.97,150.71c-1.49,0.03-3.62,0.36-5.55,0.75c-0.96,0.19-1.85,0.41-2.55,0.62
	c-0.35,0.11-0.66,0.2-0.97,0.35c-0.16,0.07-0.32,0.14-0.54,0.32c-0.22,0.17-0.7,0.53-0.67,1.35c0,0.01,0,0.03,0,0.04l0.57,8.17
	c0.06,0.86,1.01,1.57,1.93,1.45c2.56-0.34,4.08-0.04,9.43-0.7c0.75-0.09,1.39-0.71,1.46-1.41c0.25-2.8-0.15-7.71-0.46-9.43
	c-0.11-0.6-0.58-1.01-0.89-1.18c-0.3-0.17-0.51-0.21-0.7-0.25C172.62,150.71,172.31,150.71,171.97,150.71L171.97,150.71z
	 M192.62,150.48c-4.78,0.25-6.13,0.76-8.39,0.86c-0.85,0.03-1.6,0.75-1.61,1.54l-0.1,7.33c0,0.01,0,0.03,0,0.04
	c0.01,0.5,0.29,0.92,0.51,1.12c0.21,0.2,0.39,0.28,0.53,0.35c0.27,0.13,0.45,0.17,0.64,0.21c0.37,0.08,0.75,0.12,1.19,0.16
	c0.88,0.08,1.97,0.11,3.08,0.11c1.11,0,2.21-0.04,3.12-0.13c0.45-0.05,0.85-0.1,1.26-0.21c0.2-0.05,0.4-0.11,0.69-0.27
	c0.28-0.16,0.82-0.52,0.91-1.28c0.19-1.59,0.31-5.98-0.06-8.48C194.27,151.06,193.45,150.44,192.62,150.48L192.62,150.48z
	 M357.29,146.84c0.32,2.17,0.19,6.93,0.04,8.21c-0.08,0.71-8.68,0.63-8.68,0.1l0.1-7.44C351.26,147.61,352.55,147.09,357.29,146.84z
	 M171.38,153.9c0.17,1.54,0.37,4.14,0.35,6.21c-2.86,0.29-4.56,0.33-6.22,0.43l-0.39-5.54c0.53-0.15,1.21-0.32,2.01-0.48
	C168.65,154.21,170.31,153.98,171.38,153.9z M191.11,153.77c0.1,1.83,0.09,3.88,0.02,5.19c-0.7,0.07-1.68,0.11-2.67,0.11
	c-0.94,0-1.85-0.03-2.55-0.08l0.07-4.7C187.33,154.13,188.99,153.95,191.11,153.77L191.11,153.77z M242.49,152.59
	c0.39,1.79,1.51,3.22,3.03,4.3c-1.29,0.8-3.2,0.99-4.57-0.28c-0.57-0.5-1.05-1.05-1.46-1.62
	C241.34,154.18,242.57,153.14,242.49,152.59z M938.61,137.87c1.2,2.19,3.61,2.9,5.93,2.33c0.16,0.5,0.3,1,0.41,1.5
	c0.97,3.5-5.2-0.17-8.77-2.7C937.01,138.77,937.82,138.39,938.61,137.87z M949.3,137.91c2.14-0.12,1.84,4.05,3.74,5.07
	c0.38,0.39,0.8,0.7,1.27,0.94c-1.14,0.96-3.14,1.34-4.54,0.04c-1.56-1.38-2.36-3.07-2.89-4.84c0.16-0.11,0.34-0.23,0.5-0.35
	C948.19,138.21,948.81,137.94,949.3,137.91L949.3,137.91z M1003.53,136.86c-0.87,0.06-1.61,0.84-1.55,1.65
	c0.13,2.11-0.28,3.34-0.06,7.8c0.03,0.71,0.65,1.35,1.4,1.47c2.7,0.43,7.4,0.46,9.12,0.34c0.85-0.06,1.32-0.66,1.48-0.95
	c0.16-0.29,0.21-0.48,0.24-0.68c0.08-0.39,0.09-0.76,0.09-1.18c0.01-0.84-0.07-1.86-0.19-2.89c-0.11-1.03-0.27-2.06-0.44-2.88
	c-0.09-0.41-0.16-0.76-0.28-1.1c-0.06-0.17-0.12-0.32-0.27-0.55c-0.07-0.11-0.16-0.25-0.36-0.42c-0.2-0.17-0.57-0.42-1.12-0.44
	c-0.01,0-0.03,0-0.04,0l-7.86-0.16C1003.64,136.86,1003.59,136.86,1003.53,136.86L1003.53,136.86z M550,148.8
	c-5.35,0.28-6.87,0.85-9.43,0.96c-0.85,0.03-1.6,0.75-1.61,1.54l-0.11,8.23c0,0.01,0,0.03,0,0.04c0.01,0.51,0.29,0.91,0.51,1.12
	s0.38,0.29,0.53,0.36c0.28,0.13,0.48,0.17,0.68,0.22c0.4,0.09,0.81,0.13,1.3,0.17c0.98,0.09,2.2,0.13,3.44,0.13
	c1.24,0,2.47-0.05,3.48-0.15c0.5-0.05,0.94-0.1,1.37-0.22c0.22-0.06,0.44-0.13,0.73-0.29c0.29-0.16,0.83-0.52,0.92-1.29
	c0.21-1.74,0.37-6.71-0.04-9.47C551.65,149.38,550.84,148.76,550,148.8L550,148.8z M563.09,148.86c-1.36,0.05-3.02,0.22-4.41,0.43
	c-0.7,0.11-1.31,0.22-1.83,0.36c-0.26,0.07-0.49,0.12-0.76,0.24c-0.14,0.06-0.29,0.12-0.51,0.3c-0.22,0.17-0.63,0.54-0.64,1.23
	c0,0.01,0,0.03,0,0.04l0.07,7.31c0.01,0.85,0.89,1.61,1.8,1.55c2.26-0.14,3.61,0.23,8.39-0.03c0.77-0.04,1.47-0.64,1.57-1.35
	c0.38-2.52,0.27-6.88,0.08-8.47c-0.06-0.49-0.37-0.9-0.62-1.1c-0.25-0.2-0.46-0.28-0.63-0.34c-0.34-0.12-0.57-0.14-0.83-0.17
	C564.27,148.83,563.71,148.84,563.09,148.86z M703.88,145.87c0.36,2.39,0.21,7.66,0.04,9.08c-0.09,0.78-9.59,0.69-9.6,0.1l0.11-8.23
	C697.22,146.72,698.64,146.15,703.88,145.87z M534.29,149.97c-1.36,0.02-3.25,0.32-4.97,0.67c-0.86,0.17-1.65,0.36-2.29,0.55
	c-0.32,0.09-0.59,0.18-0.89,0.31c-0.15,0.07-0.3,0.14-0.52,0.31c-0.22,0.17-0.69,0.52-0.66,1.34c0,0.01,0,0.03,0,0.04l0.5,7.28
	c0.06,0.86,1.01,1.57,1.93,1.45c2.25-0.3,3.62-0.02,8.4-0.61c0.75-0.09,1.39-0.71,1.46-1.41c0.23-2.53-0.14-6.87-0.43-8.45
	c-0.11-0.6-0.57-1.01-0.88-1.17c-0.3-0.16-0.51-0.2-0.69-0.24C534.88,149.97,534.6,149.97,534.29,149.97L534.29,149.97z
	 M1022.37,138.47c-0.87,0.06-1.61,0.84-1.55,1.65c0.15,2.39-0.32,3.77-0.07,8.76c0.03,0.71,0.65,1.35,1.4,1.47
	c2.98,0.47,8.3,0.52,10.18,0.38c0.86-0.06,1.33-0.66,1.5-0.96c0.17-0.3,0.2-0.51,0.24-0.72c0.08-0.42,0.11-0.82,0.11-1.29
	c0.01-0.94-0.07-2.08-0.2-3.23c-0.12-1.15-0.3-2.3-0.49-3.21c-0.1-0.46-0.19-0.85-0.32-1.21c-0.06-0.18-0.13-0.35-0.28-0.59
	c-0.07-0.12-0.17-0.26-0.37-0.43s-0.57-0.42-1.12-0.44c-0.01,0-0.03,0-0.04,0l-8.83-0.18
	C1022.48,138.46,1022.43,138.46,1022.37,138.47L1022.37,138.47z M716.95,145.93c1.15-0.04,1.99,0.01,2.02,0.22
	c0.15,1.25,0.25,5.92-0.08,8.09c-4.67,0.25-5.93-0.13-8.41,0.03l-0.07-7.31C710.42,146.59,714.42,146.02,716.95,145.93z
	 M519.98,150.95c-4.85,0.25-6.23,0.77-8.53,0.87c-0.85,0.03-1.6,0.75-1.61,1.54l-0.1,7.44c0,0.01,0,0.03,0,0.04
	c0.01,0.5,0.29,0.91,0.5,1.11c0.21,0.2,0.38,0.29,0.52,0.36c0.28,0.13,0.46,0.17,0.65,0.21c0.38,0.08,0.76,0.13,1.2,0.17
	c0.89,0.08,2,0.11,3.12,0.11c1.12,0,2.25-0.03,3.17-0.12c0.46-0.05,0.86-0.11,1.27-0.22c0.21-0.05,0.42-0.11,0.71-0.27
	c0.28-0.16,0.81-0.52,0.9-1.28c0.19-1.61,0.34-6.07-0.04-8.6C521.63,151.53,520.82,150.91,519.98,150.95z M688.1,147.04
	c0.5-0.01,0.81,0.04,0.84,0.17c0.22,1.23,0.6,5.88,0.4,8.06c-4.66,0.57-5.94,0.28-8.42,0.61l-0.5-7.28
	C680.41,148.18,685.95,147.08,688.1,147.04z M315.17,156.51c0.36,2.39,0.21,7.67,0.04,9.08c-0.09,0.78-9.59,0.7-9.6,0.11l0.11-8.23
	C308.5,157.36,309.93,156.78,315.17,156.51L315.17,156.51z M1005.31,140.02l5.01,0.1l0,0.01c0.14,0.67,0.28,1.63,0.39,2.59
	c0.09,0.85,0.14,1.64,0.15,2.28c-1.51,0.02-3.68-0.05-5.58-0.21C1005.26,142.78,1005.28,141.25,1005.31,140.02L1005.31,140.02z
	 M673.86,148.02c0.32,2.17,0.19,6.93,0.04,8.21c-0.09,0.71-8.68,0.62-8.68,0.09l0.1-7.44C667.83,148.78,669.12,148.27,673.86,148.02
	z M548.54,152.05c0.11,2.13,0.05,4.83-0.03,6.26c-0.04,0-0.04,0.01-0.08,0.01c-0.8,0.08-1.95,0.12-3.1,0.12
	c-1.13,0-2.26-0.04-3.07-0.11l0.07-5.63C544.03,152.52,545.7,152.27,548.54,152.05L548.54,152.05z M563.23,151.98
	c0.14,0,0.18,0,0.31,0c0.06,1.39,0.07,3.43-0.04,5.21c-2.15,0.04-3.8,0.04-5.13,0.02l-0.05-4.66c0.29-0.06,0.52-0.11,0.9-0.17
	C560.47,152.19,562.07,152.02,563.23,151.98L563.23,151.98z M533.6,153.2c0.15,1.41,0.27,3.38,0.26,5.12
	c-2.16,0.2-3.81,0.31-5.14,0.38l-0.32-4.63c0.45-0.12,0.98-0.25,1.63-0.38C531.34,153.43,532.65,153.28,533.6,153.2z
	 M1024.15,141.62l5.99,0.12c0.02,0.07,0.03,0.09,0.05,0.16c0.16,0.76,0.31,1.84,0.43,2.92c0.11,1.03,0.18,2.05,0.18,2.79
	c-1.7,0.03-4.5-0.05-6.72-0.25C1024.02,144.72,1024.12,143.16,1024.15,141.62L1024.15,141.62z M518.46,154.24
	c0.1,1.87,0.09,4,0.01,5.33c-0.71,0.07-1.71,0.1-2.72,0.1c-0.96,0-1.9-0.04-2.61-0.09l0.07-4.81
	C514.6,154.61,516.29,154.43,518.46,154.24L518.46,154.24z M296.16,161.15c2.06-0.09,3.9,0.17,3.98,0.99
	c0.26,2.84,0.74,12.29,0.82,18.8c-3.21,0.04-6.41,0.08-9.62,0.12l-0.79-18.3C290.52,161.95,293.51,161.26,296.16,161.15z
	 M860.34,151.88c0.17,0,0.36-0.01,0.59-0.01c1.53-0.02,3.37-0.01,5.13-0.06c0.81-0.02,1.34,0.05,2.01,0.08
	c0.25,5.72,0.21,9.03,0.2,12c-2.81,0.01-5.62,0.02-8.44,0.05c-0.14-1.29-0.28-2.67-0.39-4.04c-0.2-2.43-0.33-4.84-0.35-6.6
	c-0.01-0.58,0.01-0.92,0.03-1.33C859.54,151.94,859.83,151.9,860.34,151.88L860.34,151.88z M393.45,163.54
	c1.37-0.03,2.65,0,3.59,0.15c0.46,9.06,0.12,12.18,0.29,16.65c-3.55,0.02-7.11,0.04-10.66,0.06c-0.75-4.74-1.61-15.86-0.86-16.05
	C386.99,164.04,390.44,163.62,393.45,163.54z M196.94,168.33c-5.36,0.28-6.87,0.86-9.43,0.97c-0.85,0.03-1.6,0.75-1.61,1.54
	l-0.11,8.23c0,0.01,0,0.03,0,0.04c0.01,0.51,0.29,0.91,0.51,1.12c0.22,0.21,0.4,0.29,0.54,0.36c0.28,0.13,0.47,0.17,0.67,0.22
	c0.4,0.09,0.82,0.13,1.31,0.17c0.98,0.09,2.2,0.12,3.44,0.12c1.24,0,2.47-0.04,3.48-0.14c0.5-0.05,0.94-0.11,1.37-0.23
	c0.22-0.06,0.44-0.12,0.73-0.28c0.29-0.16,0.83-0.53,0.92-1.3c0.21-1.74,0.36-6.71-0.06-9.47
	C198.59,168.9,197.77,168.28,196.94,168.33L196.94,168.33z M375.65,164.15c1.37-0.03,2.65,0,3.59,0.15
	c0.44,8.7,0.14,11.92,0.26,16.12c-3.57,0.02-7.15,0.04-10.73,0.05c-0.73-5.01-1.49-15.33-0.77-15.51
	C369.2,164.66,372.64,164.23,375.65,164.15z M171.86,169.37c0.92-0.04,1.77,0.02,2.25,0.12c0.22,2.7,0.61,9.97,0.75,15.88
	c-2.1,0.14-4.21,0.29-6.31,0.44l-0.67-15.77c0.17-0.07,0.28-0.12,0.56-0.2C169.34,169.61,170.66,169.42,171.86,169.37z
	 M991.81,149.91c-0.46,0.02-0.84,0.22-1.05,0.38c-0.24,0.18-0.35,0.32-0.43,0.45c-0.17,0.25-0.22,0.43-0.29,0.61
	c-0.13,0.36-0.22,0.74-0.3,1.19c-0.18,0.89-0.32,2.02-0.43,3.16c-0.1,1.14-0.17,2.28-0.14,3.22c0.01,0.47,0.03,0.87,0.12,1.28
	c0.04,0.21,0.09,0.41,0.24,0.7c0.15,0.28,0.5,0.81,1.32,0.96c1.72,0.32,5.89,0.84,8.83,0.69c0.84-0.04,1.58-0.74,1.6-1.51
	c0.15-4.7,0.98-5.84,1.11-8.71c0.04-0.79-0.67-1.55-1.52-1.62l-8.83-0.8c-0.01,0-0.03,0-0.04,0
	C991.94,149.91,991.87,149.91,991.81,149.91L991.81,149.91z M195.47,171.57c0.11,2.13,0.06,4.83-0.02,6.26
	c-0.04,0-0.04,0.01-0.08,0.01c-0.8,0.08-1.96,0.13-3.11,0.13c-1.13,0-2.26-0.04-3.07-0.11l0.07-5.63
	C190.97,172.05,192.64,171.79,195.47,171.57z M993.04,153.15l5.81,0.52c-0.24,1.38-0.62,2.98-0.82,5.71
	c-1.96-0.05-4.06-0.24-5.49-0.44c0-0.04,0-0.05,0-0.1c-0.02-0.75,0.03-1.82,0.13-2.88C992.76,154.92,992.89,153.89,993.04,153.15
	L993.04,153.15z M1023.84,152.41c-0.2,0.01-0.4,0.05-0.59,0.12c-0.15,0.05-0.29,0.13-0.42,0.21c-0.04,0.02-0.1,0.05-0.12,0.07
	c-0.25,0.2-0.34,0.37-0.42,0.5c-0.15,0.26-0.19,0.43-0.24,0.6c-0.09,0.35-0.15,0.69-0.19,1.1c-0.09,0.81-0.14,1.83-0.14,2.85
	c-0.01,1.02,0.03,2.05,0.12,2.89c0.05,0.42,0.1,0.79,0.21,1.17c0.05,0.19,0.12,0.37,0.27,0.63c0.16,0.25,0.46,0.73,1.27,0.88
	c1.62,0.3,5.76,0.77,8.44,0.65c0.84-0.04,1.57-0.74,1.6-1.51c0.14-4.44-0.3-5.73-0.21-7.82c0.04-0.79-0.67-1.55-1.52-1.62
	l-7.86-0.71l0,0.01c-0.01,0-0.03-0.01-0.04-0.01c-0.06-0.01-0.11,0.02-0.17,0.02L1023.84,152.41z M606.56,162.49
	c1.27-0.03,2.46-0.01,3.34,0.13c0.32,6.31,0.21,9.49,0.2,12.44c-3.38,0.2-6.78,0.38-10.19,0.56c-0.58-4.95-1.03-12.23-0.45-12.38
	C600.57,162.97,603.76,162.57,606.56,162.49L606.56,162.49z M697.24,160.64c1.27-0.03,2.46-0.01,3.34,0.13
	c0.16,3.12,0.21,5.45,0.23,7.4c-3.55,0.19-7.11,0.4-10.68,0.63c-0.29-3.79-0.4-7.3,0-7.4C691.24,161.12,694.44,160.72,697.24,160.64
	L697.24,160.64z M1007.16,155.05l5.8,0.82c-0.16,3.76-0.1,6.75-0.24,11.83c-2.23-0.09-4.47-0.17-6.7-0.26
	c0.09-1.5,0.2-3.1,0.32-4.67c0.2-2.43,0.42-4.75,0.63-6.45C1007.04,155.77,1007.1,155.44,1007.16,155.05L1007.16,155.05z
	 M543.5,166.7c0.67-0.02,1.11,0.03,1.67,0.06c0.22,5.17,0.16,8.09,0.16,10.83c-2.29,0.06-4.59,0.1-6.88,0.15
	c-0.2-1.74-0.38-3.71-0.5-5.56c-0.11-1.67-0.18-3.22-0.17-4.32c0-0.28,0.03-0.41,0.04-0.62C539.09,167.03,541.35,166.75,543.5,166.7
	L543.5,166.7z M1025.21,155.66l4.9,0.45c0.05,1.27,0.1,2.81,0.12,4.79c-1.83-0.07-3.75-0.23-5.02-0.41c0-0.02-0.01-0.02-0.01-0.05
	c-0.07-0.66-0.11-1.61-0.1-2.55C1025.1,157.06,1025.15,156.29,1025.21,155.66L1025.21,155.66z"/>
<path class="st6" d="M221.24,127.92c0,0-2.28,7.85,5.51,9.27C226.75,137.19,231.49,127.77,221.24,127.92z"/>
<path class="st3" d="M245.8,125.84c0,0-2.28,7.85,5.51,9.27C251.31,135.12,256.05,125.7,245.8,125.84z"/>
<path class="st6" d="M245.4,139.01c0,0-2.28,7.85,5.51,9.27C250.91,148.28,255.65,138.86,245.4,139.01z"/>
<path class="st6" d="M218.18,140.72c0,0-2.28,7.85,5.51,9.27C223.69,150,228.42,140.58,218.18,140.72z"/>
<path class="st6" d="M240.55,125.77c0,0-7.92,3.5-4.02,9.91C236.53,135.68,247.34,132.88,240.55,125.77z"/>
<path class="st6" d="M260.46,131.57c0,0-7.92,3.5-4.02,9.91C256.44,141.48,267.25,138.68,260.46,131.57z"/>
<path class="st3" d="M234.6,136.39c0,0-7.92,3.5-4.02,9.91C230.58,146.3,241.38,143.5,234.6,136.39z"/>
<path class="st6" d="M238.55,145.21c0,0-7.92,3.5-4.02,9.91C234.53,155.11,245.33,152.32,238.55,145.21z"/>
<path class="st3" d="M253.59,155.92c0,0,8.68-1.22,6.96-8.4C260.55,147.52,249.33,147.29,253.59,155.92z"/>
<g>
	<path class="st7" d="M924.32,105.66c0,0-2.5,8.61,6.04,10.17C930.36,115.83,935.56,105.49,924.32,105.66z"/>
	<path class="st8" d="M951.26,103.38c0,0-2.5,8.61,6.04,10.17C957.3,113.56,962.5,103.22,951.26,103.38z"/>
	<path class="st7" d="M950.82,117.82c0,0-2.5,8.61,6.04,10.17C956.86,128,962.06,117.66,950.82,117.82z"/>
	<path class="st6" d="M920.95,119.7c0,0-2.5,8.61,6.04,10.17C927,129.88,932.19,119.54,920.95,119.7z"/>
	<path class="st6" d="M945.5,103.3c0,0-8.69,3.84-4.41,10.87C941.09,114.17,952.94,111.1,945.5,103.3z"/>
	<path class="st6" d="M967.34,109.66c0,0-8.69,3.84-4.41,10.87C962.93,120.53,974.78,117.47,967.34,109.66z"/>
	<path class="st8" d="M938.97,114.95c0,0-8.69,3.84-4.41,10.87C934.56,125.82,946.41,122.75,938.97,114.95z"/>
	<path class="st6" d="M943.3,124.62c0,0-8.69,3.84-4.41,10.87C938.89,135.49,950.74,132.42,943.3,124.62z"/>
	<path class="st8" d="M959.8,136.37c0,0,9.52-1.34,7.63-9.21C967.43,127.16,955.13,126.9,959.8,136.37z"/>
</g>
<polygon class="st0" points="1089.37,141.65 1099.02,141.42 1098.68,129.12 1089.02,129.35 "/>
<polygon class="st0" points="1076.82,144.76 1088.59,144.48 1088.2,130.49 1076.43,130.78 "/>
<polygon class="st0" points="1063.92,147.27 1075.69,146.99 1075.3,133 1063.53,133.29 "/>
<polygon class="st0" points="1066.19,161.26 1074.64,161.06 1074.33,150.19 1065.88,150.39 "/>
<polygon class="st0" points="1089.52,160.1 1100.16,159.85 1099.78,146.29 1089.14,146.54 "/>
<path class="st3" d="M1112.97,169.75c0,0-3.43-31.44-3.5-37.22c-0.06-5.78,0.66-8.02-2.51-9.05c-3.18-1.03-21.76-12.03-22.85-12.01
	c-1.09,0.03-8.63,8.7-9.44,7.61s-1.08-10.62-1.91-12.29c-0.83-1.67-7.43-2.01-7.61-1.26c-0.18,0.74,1.8,15.34,1.74,16.57
	c-0.06,1.23-4.89,7.75-6.75,8.04c-1.86,0.29-4.06,2.65-3.29,8.8c0.76,6.15,1.99,32.01,1.99,32.01L1112.97,169.75z"/>
<polygon class="st0" points="1076.11,142.73 1085.47,142.51 1085.14,130.68 1075.77,130.9 "/>
<polygon class="st0" points="1093.13,141.41 1101.39,141.21 1101.09,130.54 1092.83,130.74 "/>
<polygon class="st0" points="1063.13,147.06 1071.92,146.85 1071.58,134.71 1062.79,134.92 "/>
<polygon class="st0" points="1096.59,159.95 1106.1,159.72 1105.76,147.61 1096.25,147.83 "/>
<polygon class="st0" points="1081.2,171.68 1091.8,171.43 1091.15,148.2 1080.55,148.45 "/>
<polygon class="st0" points="1065.49,162.02 1073.8,161.82 1073.49,150.85 1065.19,151.05 "/>
<path class="st9" d="M1112.97,169.75c0,0-3.13-42.73-3.92-44.57c-0.79-1.83-23.08-13.29-24.33-13.46c-1.25-0.17-8.76,9.41-9.22,7.57
	c-0.47-1.83-0.6-11.32-1.88-12.24s-9.36-1.78-8.9,2.53c0.47,4.31,3.34,10.14,3.17,12.71c-0.17,2.57-8.48,6.84-10.01,7.61
	c-1.53,0.77-0.63,1.04,0.49,11.65c1.11,10.61,1.68,29.37,1.68,29.37L1112.97,169.75z"/>
<path class="st10" d="M1101.35,141.36c0,0,0.98-10.21-0.32-11.24c-1.29-1.02-8.7,0.21-8.7,0.21l0.32,11.24L1101.35,141.36z"/>
<path class="st11" d="M1091.12,170.26c0,0,0.91-19.52-0.6-21.5c-1.52-1.98-10.06,0.24-10.06,0.24l0.6,21.5L1091.12,170.26z"/>
<path class="st10" d="M1085.47,142.51c0,0,0.98-10.21-0.32-11.24c-1.29-1.02-8.7,0.21-8.7,0.21l0.32,11.24L1085.47,142.51z"/>
<path class="st10" d="M1071.61,134.71c0,0-8.03-1.42-8.82,0.21c-0.78,1.63,0.31,11.09,0.31,11.09l8.82-0.21L1071.61,134.71z"/>
<path class="st10" d="M1073.71,161.56c0,0,0.98-10.21-0.32-11.24c-1.29-1.02-8.7,0.21-8.7,0.21l0.32,11.24L1073.71,161.56z"/>
<path class="st10" d="M1105.66,147.74c0,0-8.03-1.42-8.82,0.21c-0.78,1.63,0.31,11.09,0.31,11.09l8.82-0.21L1105.66,147.74z"/>
<path class="st12" d="M1213.38,171.01c0,0,2.19-32.04,2.01-37.92c-0.18-5.88-1.02-8.12,2.2-9.27c3.21-1.16,21.81-12.96,22.93-12.97
	c1.12-0.01,9.22,8.54,10.01,7.41c0.79-1.13,0.66-10.82,1.44-12.55c0.78-1.73,7.54-2.29,7.75-1.54c0.21,0.75-1.2,15.64-1.08,16.89
	c0.11,1.25,5.35,7.7,7.27,7.93c1.92,0.23,4.27,2.55,3.75,8.82c-0.52,6.28-2.33,36.93-2.33,36.93L1213.38,171.01z"/>
<polygon class="st0" points="1233.21,143.44 1241.21,143.59 1241.37,132.86 1233.37,132.7 "/>
<polygon class="st0" points="1250.99,144.89 1258.13,145.03 1258.29,134.8 1251.15,134.66 "/>
<polygon class="st0" points="1221.84,145.2 1228.68,145.33 1228.84,135.22 1221.99,135.08 "/>
<polygon class="st0" points="1250.23,167.68 1258.6,167.84 1258.76,157.17 1250.39,157.01 "/>
<polygon class="st0" points="1235.01,171.02 1243.93,171.19 1244.22,152.43 1235.29,152.25 "/>
<polygon class="st0" points="1219.62,166.16 1227.41,166.31 1227.56,156.02 1219.78,155.87 "/>
<path class="st13" d="M1258.1,144.75c0,0,1.16-8.3,0.14-9.19c-1.02-0.88-7.11-0.14-7.11-0.14l-0.14,9.19L1258.1,144.75z"/>
<path class="st14" d="M1244.95,171.76c0,0,1.44-15.91,0.27-17.58c-1.17-1.67-8.22-0.16-8.22-0.16l-0.27,17.58L1244.95,171.76z"/>
<path class="st13" d="M1240.18,142.91c0,0,1.16-8.3,0.14-9.19c-1.02-0.88-7.11-0.14-7.11-0.14l-0.14,9.19L1240.18,142.91z"/>
<path class="st13" d="M1229.14,136.05c0,0-6.51-1.44-7.21-0.14c-0.7,1.3-0.14,9.07-0.14,9.07l7.21,0.14L1229.14,136.05z"/>
<path class="st13" d="M1226.78,165.91c0,0,1.16-8.3,0.14-9.19c-1.02-0.88-7.11-0.14-7.11-0.14l-0.14,9.19L1226.78,165.91z"/>
<path class="st13" d="M1258.26,157.98c0,0-6.51-1.44-7.21-0.14c-0.7,1.3-0.14,9.07-0.14,9.07l7.21,0.14L1258.26,157.98z"/>
<polygon class="st0" points="795.5,165.92 808.96,165.6 807.85,126.03 794.39,126.35 "/>
<path class="st15" d="M817.7,118.78c0,0,0.95-11.1-0.48-12.22c-1.43-1.12-9.53,0.16-9.53,0.16l0.48,12.22L817.7,118.78z"/>
<path class="st16" d="M808.12,165.03c0,0,0.88-34.67-1.07-38.21s-12.78,0.31-12.78,0.31l1.07,38.21L808.12,165.03z"/>
<path class="st15" d="M800.3,119.91c0,0,0.95-11.1-0.48-12.22c-1.43-1.12-9.53,0.16-9.53,0.16l0.48,12.22L800.3,119.91z"/>
<path class="st15" d="M785.02,111.33c0,0-8.82-1.6-9.66,0.16c-0.84,1.77,0.48,12.06,0.48,12.06l9.66-0.16L785.02,111.33z"/>
<path class="st15" d="M787.66,144.84c0,0,0.95-11.1-0.48-12.22s-9.53,0.16-9.53,0.16l0.48,12.22L787.66,144.84z"/>
<path class="st15" d="M822.49,130.06c0,0-8.82-1.6-9.66,0.16c-0.84,1.77,0.48,12.06,0.48,12.06l9.66-0.16L822.49,130.06z"/>
<rect class="st17" width="1478" height="200"/>
<path class="st18" d="M1296.97,160.75c0,0,1.16-8.3,0.14-9.19s-7.11-0.14-7.11-0.14l-0.14,9.19L1296.97,160.75z"/>
<path class="st18" d="M1278.47,159.63c0,0,1.16-8.3,0.14-9.19c-1.02-0.88-7.11-0.14-7.11-0.14l-0.14,9.19L1278.47,159.63z"/>
<g>
	<path d="M58.2,192.41c0.14-4.95,0.42-18.08-0.54-20.69c-0.15-0.4-0.31-0.83-0.49-1.28c-0.76-1.93-2.02-5.16-1.05-5.95
		c1.8-1.46,16.89-18.48,21.22-23.37c1.65,1.95,4.1,4.77,4.77,5.25c0.77,0.63,11.22,11.3,18.25,18.51l1.32,13.94l-0.75,12.26
		L58.2,192.41z"/>
	<path d="M77.32,143.04c2.02,2.35,3.35,3.79,3.95,4.27c0.99,0.87,11.22,11.3,17.88,18.13l1.27,13.4l-0.67,11.02l-40.25,1.24
		c0.16-6.08,0.3-17.24-0.65-19.83c-0.15-0.41-0.32-0.84-0.5-1.3c-0.48-1.23-1.47-3.75-1.31-4.62
		C59.21,163.44,71.86,149.21,77.32,143.04 M77.36,139.19c0,0-20.08,22.73-22.04,24.32c-1.96,1.59,0.11,5.82,1.15,8.64
		c1.04,2.82,0.42,21.56,0.42,21.56l45.22-1.4l0.82-13.51l-1.37-14.48c0,0-17.96-18.41-18.73-18.97
		C82.07,144.79,77.36,139.19,77.36,139.19L77.36,139.19z"/>
</g>
<path class="st12" d="M15.35,200.08c0,0-5.28-31.68-6.82-37.35c-1.54-5.67-2.87-7.66-0.01-9.53s18.22-17.66,19.3-17.93
	c1.09-0.27,10.95,6.18,11.45,4.89c0.5-1.28-1.87-10.68-1.5-12.54c0.36-1.86,6.8-3.97,7.18-3.29c0.38,0.68,2.46,15.49,2.86,16.68
	c0.4,1.19,6.99,6.26,8.91,6.04c1.92-0.22,4.75,1.49,5.69,7.72s6.28,36.46,6.28,36.46L15.35,200.08z"/>
<polygon class="st0" points="28.25,168.67 36.07,166.97 33.74,156.49 25.92,158.19 "/>
<polygon class="st0" points="45.89,165.97 52.86,164.45 50.65,154.47 43.67,155.98 "/>
<polygon class="st0" points="17.6,173.02 24.29,171.57 22.1,161.69 15.41,163.14 "/>
<polygon class="st0" points="50.42,188.31 58.6,186.53 56.29,176.11 48.11,177.89 "/>
<polygon class="st0" points="36.39,195.09 45.11,193.19 41.04,174.87 32.32,176.77 "/>
<polygon class="st0" points="20.29,193.92 27.9,192.26 25.67,182.22 18.06,183.88 "/>
<path class="st13" d="M52.77,164.19c0,0-0.79-8.35-1.99-8.97s-6.95,1.51-6.95,1.51l1.99,8.97L52.77,164.19z"/>
<path class="st14" d="M46.23,193.51c0,0-2.28-15.81-3.81-17.16c-1.52-1.36-8.04,1.75-8.04,1.75l3.81,17.16L46.23,193.51z"/>
<path class="st13" d="M34.91,166.54c0,0-0.79-8.35-1.99-8.97c-1.2-0.62-6.95,1.51-6.95,1.51l1.99,8.97L34.91,166.54z"/>
<path class="st13" d="M22.58,162.42c0,0-6.67,0.1-7.04,1.53c-0.38,1.43,1.96,8.85,1.96,8.85l7.04-1.53L22.58,162.42z"/>
<path class="st13" d="M27.2,192.02c0,0-0.79-8.35-1.99-8.97c-1.2-0.62-6.95,1.51-6.95,1.51l1.99,8.97L27.2,192.02z"/>
<path class="st13" d="M55.99,177.01c0,0-6.67,0.1-7.04,1.53s1.96,8.85,1.96,8.85l7.04-1.53L55.99,177.01z"/>
<path class="st18" d="M94.29,170.75c0,0-0.79-8.35-1.99-8.97c-1.2-0.62-6.95,1.51-6.95,1.51l1.99,8.97L94.29,170.75z"/>
<path class="st18" d="M76.03,173.94c0,0-0.79-8.35-1.99-8.97c-1.2-0.62-6.95,1.51-6.95,1.51l1.99,8.97L76.03,173.94z"/>
<path id="rect3000" class="st1" d="M1347.93,142.02c-2.6-0.2-5.53-0.39-9.01-0.54c-11.1-0.07-12.14,16.56-13.2,30.55
	c0,1.61,1.83,1.57,3.69,1.7l0.66,0.06c0.5-3.64,2.88-6.34,5.52-6.11s4.57,3.29,4.48,6.97l16.34,1.4c0.5-3.64,2.89-6.34,5.53-6.11
	c2.63,0.23,4.55,3.29,4.47,6.95c3.67,0.14,3.13-1.3,3.54-8.02l1.06-13.16c0.6-7.47,1.56-11.14-3.33-11.66
	C1360.49,143.41,1355.73,142.63,1347.93,142.02z M1343.74,144.13l5.44,0.47c0.78,0.07,1.33,1.07,1.24,2.24l-0.56,6.97
	c-0.09,1.17-0.79,2.07-1.58,2l-5.44-0.47c-0.78-0.07-1.34-1.07-1.25-2.24l0.56-6.97C1342.24,144.95,1342.95,144.06,1343.74,144.13z
	 M1353.26,144.94l5.43,0.47c0.78,0.07,1.35,1.07,1.26,2.24l-0.56,6.97c-0.09,1.17-0.81,2.06-1.6,2l-5.43-0.47
	c-0.78-0.07-1.34-1.07-1.25-2.24l0.56-6.97C1351.77,145.77,1352.48,144.88,1353.26,144.94z M1362.78,145.76l5.44,0.47
	c0.78,0.07,1.33,1.07,1.24,2.24l-0.56,6.97c-0.09,1.17-0.79,2.07-1.58,2l-5.44-0.47c-0.78-0.07-1.34-1.07-1.25-2.24l0.56-6.97
	C1361.29,146.59,1362,145.7,1362.78,145.76z M1339.04,143.82c1.24,0.07,1.1,1.3,1.03,2.16l-1.26,15.71
	c-2.4,2.99-11.7,8.56-10.47-0.9c0.56-4.2,1.33-8.6,3.21-12.08c1.68-3.54,4.5-4.71,7.23-4.88
	C1338.86,143.83,1338.95,143.82,1339.04,143.82L1339.04,143.82z M1335.48,169.01c-2.41-0.21-4.59,2.49-4.88,6.03
	c-0.28,3.54,1.44,6.59,3.85,6.8s4.61-2.51,4.89-6.05S1337.89,169.22,1335.48,169.01z M1361.84,171.28c-2.41-0.21-4.6,2.49-4.89,6.03
	s1.45,6.59,3.86,6.8c2.41,0.21,4.59-2.51,4.88-6.05C1365.97,174.52,1364.25,171.48,1361.84,171.28z M1335.21,173.01
	c0.83,0.07,1.42,1.15,1.32,2.4s-0.85,2.19-1.69,2.12c-0.83-0.07-1.44-1.14-1.34-2.38C1333.61,173.9,1334.37,172.94,1335.21,173.01z
	 M1361.47,175.26c0.83,0.07,1.42,1.15,1.32,2.4s-0.85,2.19-1.69,2.12c-0.83-0.07-1.44-1.14-1.34-2.38
	C1359.87,176.15,1360.64,175.19,1361.47,175.26z"/>
<g>
	<g>
		<path class="st0" d="M1418.86,176.1c-0.82,0-1.05-0.28-1.13-0.37c-1.23-1.46-2.97-2.29-4.79-2.29c-1.01,0-2.02,0.27-2.9,0.78
			c-1.66,0.96-3.26,1.5-4.5,1.5c-1.42,0-2.29-0.67-2.85-2.17c-0.15-0.41-0.45-0.75-0.84-0.94c-0.93-0.47-3.69-2.23-4.14-4.07
			c-0.1-0.4-0.15-1.04,0.49-1.93c0.27-0.37,0.38-0.83,0.31-1.28c-0.06-0.37-1.36-9.19,4.74-10.88c0.51-0.14,0.92-0.51,1.12-1
			c0.03-0.06,2.9-6.76,8.33-6.76c1.55,0,3.23,0.54,5,1.59c0.27,0.16,0.57,0.24,0.88,0.24c0.17,0,0.34-0.03,0.5-0.08
			c0.01,0,1.34-0.4,3.03-0.4c4.28,0,6.62,2.31,7.14,7.06c0.06,0.57,0.41,1.07,0.92,1.33c1.51,0.79,5.89,3.63,6.09,6.27
			c0.03,0.4,0.12,1.6-2.05,3.2c-0.5,0.37-0.76,0.98-0.68,1.6c0,0.02,0.36,3.06-1.18,4.79c-0.75,0.84-1.86,1.26-3.39,1.26
			c-0.7,0-1.49-0.09-2.34-0.27c-0.12-0.02-0.23-0.04-0.35-0.04c-0.33,0-0.66,0.1-0.95,0.28
			C1424.26,174.27,1421.01,176.1,1418.86,176.1z"/>
		<path d="M1412.72,148.41c1.24,0,2.62,0.45,4.12,1.35c0.53,0.32,1.15,0.48,1.77,0.48c0.33,0,0.66-0.05,0.98-0.14
			c0.01,0,1.13-0.33,2.55-0.33c3.38,0,5.01,1.65,5.44,5.53c0.13,1.13,0.81,2.13,1.83,2.66c2.36,1.23,5.08,3.59,5.18,4.89
			c0.03,0.41-0.48,1.04-1.36,1.69c-1,0.74-1.53,1.94-1.37,3.18c0.09,0.76,0.01,2.6-0.76,3.47c-0.15,0.17-0.6,0.67-2.11,0.67
			c-0.59,0-1.26-0.08-1.99-0.23c-0.23-0.05-0.46-0.07-0.7-0.07c-0.67,0-1.33,0.19-1.89,0.56c-1.39,0.91-4.11,2.26-5.54,2.26
			c-0.01,0-0.02,0-0.03,0c-1.54-1.69-3.67-2.66-5.89-2.66c-1.32,0-2.61,0.35-3.76,1.01c-1.38,0.8-2.71,1.26-3.63,1.26
			c-0.48,0-0.85,0-1.24-1.05c-0.3-0.81-0.9-1.48-1.67-1.87c-1.37-0.7-3.05-2.11-3.25-2.94c-0.01-0.06-0.04-0.17,0.21-0.51
			c0.54-0.74,0.76-1.66,0.61-2.56c-0.01-0.08-1.09-7.68,3.51-8.96c1.01-0.28,1.84-1.02,2.24-1.98
			C1405.99,154.07,1408.44,148.41,1412.72,148.41 M1412.72,144.98c-6.68,0-9.92,7.81-9.92,7.81c-7.68,2.13-5.98,12.81-5.98,12.81
			c-3.42,4.7,4.27,8.54,4.27,8.54c0.88,2.39,2.54,3.29,4.46,3.29c1.7,0,3.61-0.71,5.36-1.73c0.65-0.37,1.34-0.55,2.04-0.55
			c1.3,0,2.58,0.61,3.48,1.68c0.6,0.71,1.46,0.98,2.44,0.98c3.15,0,7.42-2.82,7.42-2.82c1,0.21,1.9,0.3,2.69,0.3
			c7.31,0,6.27-7.99,6.27-7.99c8.11-5.98-4.27-12.38-4.27-12.38c-0.8-7.24-5.48-8.58-8.85-8.58c-2,0-3.53,0.47-3.53,0.47
			C1416.4,145.5,1414.45,144.98,1412.72,144.98L1412.72,144.98z"/>
	</g>
	<path class="st19" d="M1411.43,190.3c1.29-2.58,2.74-6.55,1.5-10.51c-2.27-7.24-11.94-10.53-11.53-12.64
		c0.08-0.42,0.36-1.96,2.78-1c1.22,0.49,5.98,4.18,7.25,3.86c1.32-0.33,0.5-4.32,0.5-5.63c-0.01-4.04,4.88,7.7,10.61,1.14
		c2.42-2.76,2.68,0.57,2.42,1.1c-1.45,2.9-4.48,6.87-7.16,12.36c-1.88,3.86-3.57,10.11-1.05,12.76c1.76,1.85,5.04,1.38,5.03,1.52
		c-0.01,0.14-3.09,0.19-14.21-0.07c0.42-0.04,1.43-0.2,2.42-0.97C1410.88,191.53,1411.27,190.69,1411.43,190.3z"/>
</g>
</svg>
