<?xml version="1.0" encoding="utf-8"?>
<!-- Generator: Adobe Illustrator 25.4.1, SVG Export Plug-In . SVG Version: 6.00 Build 0)  -->
<svg version="1.1" id="Layer_1" xmlns="http://www.w3.org/2000/svg" xmlns:xlink="http://www.w3.org/1999/xlink" x="0px" y="0px"
	 viewBox="0 0 620 86" style="enable-background:new 0 0 620 86;" xml:space="preserve">
<style type="text/css">
	.st0{clip-path:url(#SVGID_00000173127044524979996630000005449861463687802795_);}
	.st1{fill:#231F20;}
	.st2{fill:none;}
</style>
<g>
	<defs>
		<rect id="SVGID_1_" width="620" height="86"/>
	</defs>
	<clipPath id="SVGID_00000000207034733126688930000000884276805610008967_">
		<use xlink:href="#SVGID_1_"  style="overflow:visible;"/>
	</clipPath>
	<g style="clip-path:url(#SVGID_00000000207034733126688930000000884276805610008967_);">
		<path id="rect3000-6_00000044891715623254779290000017413840212894911422_" d="M385.44,55.74c6.94-0.47,8.13,6.56,10.37,6.92
			c6.01,0.28,9.51,1.87,7.46,8.27c-0.05,0.93-1.52,0.85-2.73,0.87l-0.42,0.01c-0.2-2.13-1.64-3.78-3.36-3.74
			c-1.71,0.04-3.07,1.76-3.14,3.89l-10.61,0.26c-0.2-2.13-1.63-3.78-3.35-3.74c-1.71,0.04-3.07,1.75-3.14,3.88
			c-3.92,0.1-2.01-5.69-0.55-9.39c1.42-3.87,0.38-6.2,3.73-6.67C382.43,55.93,383.63,55.75,385.44,55.74L385.44,55.74z
			 M383.28,56.87c-1.67,0.07-3.33,0.31-4.91,0.83c-1.44,0.72-1.02,4.04-1.65,5.61l7.66-0.19l-0.49-6.26
			C383.69,56.87,383.48,56.87,383.28,56.87L383.28,56.87z M384.86,56.88l0.5,6.22l5.66-0.14c1.04-0.03,1.56,0.07,1.24-0.63
			C389.49,57.49,388.87,56.97,384.86,56.88L384.86,56.88z M396.29,68.86c1.56-0.04,2.88,1.61,2.94,3.67
			c0.06,2.06-1.16,3.76-2.72,3.8c-1.56,0.04-2.88-1.6-2.94-3.66C393.51,70.61,394.73,68.89,396.29,68.86L396.29,68.86z M379.2,69.27
			c1.56-0.04,2.88,1.61,2.94,3.67c0.06,2.06-1.16,3.76-2.72,3.8c-1.56,0.04-2.89-1.6-2.95-3.66
			C376.41,71.02,377.64,69.31,379.2,69.27L379.2,69.27z M396.33,70.26c-0.96,0.02-1.7,1.09-1.67,2.37c0.04,1.29,0.85,2.31,1.8,2.29
			c0.96-0.02,1.7-1.09,1.67-2.37C398.09,71.26,397.29,70.23,396.33,70.26z M379.24,70.67c-0.96,0.02-1.7,1.09-1.67,2.37
			c0.04,1.29,0.85,2.31,1.8,2.29c0.96-0.02,1.7-1.09,1.67-2.37C381.01,71.68,380.2,70.65,379.24,70.67z"/>
		<path id="rect3000" class="st1" d="M211.35,52.77c-1.58,0.05-3.37,0.13-5.48,0.27c-6.71,0.69-6.24,10.8-5.95,19.32
			c0.11,0.97,1.21,0.83,2.34,0.78l0.4-0.01c0.06-2.23,1.32-4.02,2.93-4.06s2.98,1.69,3.17,3.91l9.96-0.23
			c0.06-2.23,1.33-4.02,2.94-4.06c1.61-0.04,2.97,1.68,3.16,3.9c2.22-0.16,1.8-0.99,1.61-5.07l-0.23-8.02
			c-0.13-4.55,0.21-6.83-2.78-6.82C219.02,52.78,216.09,52.62,211.35,52.77z M208.95,54.32l3.31-0.08c0.48-0.01,0.87,0.56,0.89,1.27
			l0.12,4.25c0.02,0.71-0.34,1.3-0.82,1.31l-3.31,0.08c-0.48,0.01-0.88-0.56-0.9-1.27l-0.12-4.25
			C208.11,54.92,208.48,54.33,208.95,54.32z M214.76,54.18l3.31-0.08c0.48-0.01,0.89,0.56,0.91,1.27l0.12,4.25
			c0.02,0.71-0.35,1.3-0.83,1.31l-3.31,0.08c-0.48,0.01-0.88-0.56-0.9-1.27l-0.12-4.25C213.91,54.78,214.28,54.19,214.76,54.18z
			 M220.56,54.05l3.31-0.08c0.48-0.01,0.87,0.56,0.89,1.27l0.12,4.25c0.02,0.71-0.34,1.3-0.82,1.31l-3.31,0.08
			c-0.48,0.01-0.88-0.56-0.9-1.27l-0.12-4.25C219.71,54.64,220.08,54.06,220.56,54.05z M206.09,54.45c0.75-0.04,0.75,0.71,0.76,1.23
			l0.28,9.57c-1.25,1.96-6.5,5.94-6.38,0.15c0.06-2.57,0.24-5.28,1.14-7.51c0.78-2.25,2.41-3.14,4.04-3.43
			C205.99,54.46,206.04,54.45,206.09,54.45L206.09,54.45z M205.62,69.89c-1.47,0.03-2.61,1.81-2.55,3.97
			c0.06,2.16,1.3,3.89,2.77,3.85c1.47-0.03,2.61-1.82,2.55-3.98S207.08,69.86,205.62,69.89z M221.68,69.51
			c-1.47,0.03-2.62,1.81-2.55,3.97c0.06,2.16,1.31,3.89,2.78,3.85c1.47-0.03,2.61-1.82,2.55-3.98
			C224.39,71.2,223.15,69.48,221.68,69.51z M205.71,72.32c0.51-0.01,0.94,0.6,0.96,1.36c0.02,0.76-0.37,1.38-0.88,1.39
			c-0.51,0.01-0.94-0.59-0.96-1.35C204.81,72.96,205.2,72.33,205.71,72.32z M221.72,71.95c0.51-0.01,0.94,0.6,0.96,1.36
			c0.02,0.76-0.37,1.38-0.88,1.39s-0.94-0.59-0.96-1.35C220.81,72.59,221.21,71.96,221.72,71.95z"/>
		<path id="path3553_00000140720715945573405990000000158603509670380955_" d="M530.23,80.58c-2.49-0.11-4.99-0.24-7.49-0.36
			c0.48-7.78,1.05-10.48,1.38-15.3c0.02-0.26-0.16-0.53-0.44-0.66l-5.25-2.46c0-0.01,0-0.02,0.01-0.03
			c0.21-1.81,0.57-4.59,0.69-6.45c0.02-0.35-0.31-0.68-0.73-0.75c-0.61-0.09-1.77-0.29-2.91-0.26c-0.57,0.02-1.16,0.08-1.71,0.31
			c-0.55,0.23-1.04,0.7-1.17,1.27c0,0.02-0.01,0.04-0.01,0.07c-0.1,0.99-0.19,1.98-0.28,2.97l-4.67-2.19
			c-0.25-0.12-0.57-0.13-0.83-0.03l-14.5,5.68c-0.35,0.14-0.56,0.49-0.48,0.8c0.72,2.65,0.14,7.19-0.4,11.04
			c-0.22,1.58-0.42,3.04-0.51,4.26c-4.42-0.24-8.84-0.49-13.29-0.72c-1.32-3.88-0.57-7.16-0.07-9.67c1.13-0.02,2.29-0.39,3.03-0.97
			c1.73-0.55,1.45-3.23,3.49-1.95c2.82,0.77,3.54-1.78,3.59-3.16c-0.59-2.14,2.21-3.6,1.74-5.69c-0.01-1.75-2.52-2.48-4.59-1.74
			c0.4-1.81-0.67-4.16-3.44-4.74c-1.75-0.37-2.72,1.28-3.64,1.48c-0.57-1.35-2.54-2.6-4.61-2.59c-0.48,0-0.96,0.07-1.44,0.22
			c-1.41,0.84-2.89,1.79-4.93,1.35c-2.58-0.19-3.21,1.72-4.28,2.9c-4.23,0.57-3.6,4.9-1.66,7.43c-0.89,2.59,1.83,4.99,4.77,4.75
			c0.69,1.25,2.47,2.41,3.48,2.74c2.85,1.32,3.36,3.31,3.71,8.44c-0.01,0.29-0.09,0.61-0.21,0.96c-6.51-0.33-13.05-0.63-19.64-0.88
			c0.92-15.27,6.51-21.68,3.65-57.77c-0.02-0.34-0.31-0.65-0.7-0.77c-4.95-1.46-12.57-2.01-19.04-2.22c-0.1-1.79-0.21-4.2-0.54-5.96
			c-0.07-0.37-0.47-0.69-0.94-0.74c-0.03-1.66-0.08-3.56-0.18-4.98c-0.03-0.42-0.48-0.79-1-0.82c-0.36-0.02-0.96-0.06-1.62-0.06v0
			c-0.72,0-1.52,0.05-2.3,0.31c-0.77,0.26-1.57,0.91-1.63,1.76c0,0.03,0,0.05,0,0.08c0.05,1.23,0.11,2.47,0.18,3.71
			c-1.18,0.04-2.34,0.12-3.31,0.27c-0.64,0.1-1.21,0.23-1.72,0.45c-0.51,0.22-1.06,0.6-1.18,1.2c-0.01,0.07-0.02,0.14-0.01,0.21
			c0.14,1.46,0.34,2.93,0.6,4.43c-1.46,0.01-2.8,0.03-3.65,0.15c-0.62,0.09-0.87,0.42-1.03,0.65c-0.16,0.23-0.26,0.47-0.35,0.74
			c-0.19,0.55-0.35,1.26-0.49,2.15c-0.29,1.77-0.52,4.22-0.7,7.14c-0.37,5.85-0.54,13.59-0.55,21.32
			c-0.01,7.73,0.15,15.45,0.45,21.26c0.14,2.71,0.32,5,0.53,6.71c-2.75-0.01-59.98,0-62.76,0.02c0.81-5.57,4.65-10.54,5.3-22.5
			c-2.13-0.25-4.76-0.45-7.66-0.61c-0.06-1.39-0.14-3.07-0.33-4.25c-0.66-0.02-1.64-0.05-2.68-0.04c-2.29,0.01-4.87,0.17-5,1.01
			c0.08,0.99,0.17,1.97,0.29,2.97c-5.17-0.16-10.54-0.22-15.09-0.22c-4.41,0-8.06,0.07-10.03,0.18c-2.8,0.16-2.61,17.88-1.06,24.75
			c-0.33,0.02-0.65,0.04-0.97,0.06c-2.05,0.13-4.12,0.25-6.2,0.36c0.44-11.96,1.94-17.29-0.34-46.18
			c-5.61-1.66-12.94-2.28-18.33-2.26c-2.11,0.01-3.92,0.12-5.21,0.31c-2.25,0.33-4.3,40.08-3.39,49.08
			c-2.49,0.05-4.98,0.08-7.49,0.11c0.58-6.94,2.69-13.19,3.44-26.89c0.02-0.35-0.33-0.69-0.76-0.74c-1.9-0.22-4.17-0.32-6.64-0.33
			c-7.42-0.05-16.73,0.61-23.95,0.61c-4.52,0-8.28,0.66-10.09,0.76c-0.57,0.03-1,0.34-1.26,0.65c-0.27,0.31-0.45,0.66-0.61,1.09
			c-0.33,0.85-0.56,1.95-0.74,3.27c-0.35,2.63-0.45,6.06-0.37,9.49c0.09,3.43,0.36,6.86,0.79,9.46c0.16,0.97,0.34,1.83,0.54,2.54
			c-2.42-0.03-45.1-0.06-47.53-0.1c1.67-13.03,1.77-40.48,1.27-47.92c-0.11-1.59-5.74-2.38-12.66-2.56
			c-0.12-2.25-0.24-5.43-0.61-7.55c-1.15-0.03-2.84-0.08-4.63-0.07c-3.95,0.01-8.4,0.26-8.63,1.54c0.19,2.11,0.42,4.21,0.81,6.36
			c-6.89,0.46-12.48,1.4-12.52,2.6l0.14,47c-1.28-0.02-2.56-0.04-3.84-0.06c-0.61-8.74-0.19-11.3-0.43-16.08l-15.27-7.27l-6.01,3.1
			c-0.03-2.1-0.07-4.51-0.17-6.28c-0.36-0.03-0.89-0.08-1.46-0.07c-1.25,0.01-2.65,0.27-2.72,1.54c0.07,2.29,0.14,4.57,0.29,6.91
			l-4.54,2.34c2.1,4.11,0.41,12.26,1.06,15.48c-4.65-0.02-9.31-0.03-13.96-0.02c-1.62-4.23-1-7.85-0.43-10.66
			c3.55,0.89,8.26-0.23,7.51-3.75c7.11-3.78,1.94-12.17-3.66-10.31c1.85-3.12-5.26-5.44-6.77-2.36c-0.67-1.23-1.9-1.76-3.06-1.76
			c-1.49,0-2.87,0.87-2.81,2.25c-3.2-1.51-10.07,0.85-6.66,5.59c-7.19,2.52-1.03,10.61,3.25,7.84c0.92,0.89,2.13,1.6,2.92,1.86
			c3.16,1.46,3.72,3.66,4.11,9.34c-0.02,0.57-0.29,1.29-0.64,2c-5.1,0.04-10.19,0.1-15.28,0.2c-0.44-7.32-0.09-9.82-0.31-14.3
			c-0.01-0.16-0.09-0.33-0.22-0.45L68.11,48.87c-0.18-0.16-0.44-0.25-0.71-0.24c-0.24,0.01-0.48,0.1-0.64,0.26L52.15,63.2
			c-0.2,0.2-0.26,0.49-0.13,0.73c1.18,2.31,1.07,6.47,0.92,10.01c-0.08,1.77-0.15,3.4-0.02,4.65c0.01,0.05,0.02,0.1,0.02,0.15
			c-4.76,0.25-9.5,0.55-14.22,0.89c0.05-1.52,0.5-2.72,1.34-3.77c0.5,0.11,1.03,0.17,1.58,0.18c3.27,0.05,5.97-1.83,6.02-4.19
			c0.05-2.1-2.03-3.87-4.79-4.27c0.04-0.21,0.08-0.42,0.08-0.64c0.05-2.36-2.18-4.31-4.98-4.35c-0.09,0-0.17,0-0.26,0
			c-2.68,0.07-4.85,1.91-4.9,4.2c0,0.05,0.01,0.1,0.01,0.14c-0.15-0.01-0.31-0.02-0.47-0.02c-3.36-0.05-6.14,2.03-6.2,4.64
			c-0.06,2.61,2.63,4.78,5.99,4.83c0.51,0.01,1.01-0.04,1.48-0.12c1.49,1.31,1.81,2.26,1.69,3.63c-2.71,0.15-5.61,0.39-8.67,0.74
			c-5.08,0.58-9.64,1.38-13.63,2.23C9.19,83.91,5.36,84.96,1.54,86L632,89c-16-5-28-7-42.53-7.28c-3.98-0.08-7.74-0.05-11.27,0.06
			c-0.54-2.27-0.86-4.7,0.46-6.81c4.02,0.65,8.66-1.72,8.87-5.18c0.21-2.58-2.33-4.86-5.17-5.57c0.2-3.07-3.31-5.91-7.13-5.6
			c-3.05,0.17-5.6,2.3-6.05,4.71c-4.32,0.06-8.11,3.56-7.23,7.06c0.66,3.19,4.83,5.51,8.75,4.98c1.68,1.41,1.25,3.53,0.79,5.28
			c-0.1,0.39-0.12,0.76-0.22,1.12 M432.61,5.07c0.18,0,0.32,0.01,0.49,0.02c0.08,1.52,0.13,3.41,0.16,4.96
			c0.01,0.44,0.5,0.84,1.04,0.86c0.21,1.51,0.32,3.42,0.41,4.98c-0.44,0.16-0.71,0.58-0.62,0.96c0.09,0.38,0.54,0.69,1.02,0.71
			c6.4,0.16,14.48,0.73,19.38,2.02c2.73,35.35-2.75,41.58-3.67,56.99c-6.1-0.22-12.26-0.41-18.46-0.53
			c0.06-1.46,0.15-3.12,0.07-6.39c-0.01-0.39-0.39-0.76-0.86-0.84c-0.69-0.11-1.5-0.14-2.35-0.13c-0.87,0-1.82-0.02-2.66-0.03
			c-0.84-0.01-1.49-0.04-2.14,0.09c-0.42,0.09-0.61,0.3-0.7,0.43c-0.09,0.12-0.13,0.21-0.16,0.29c-0.06,0.16-0.08,0.29-0.1,0.44
			c-0.04,0.3-0.06,0.67-0.07,1.11c-0.01,0.87,0.02,2,0.09,3.14c0.04,0.59,0.08,1.19,0.13,1.75c-1.34-0.01-2.68-0.02-4.02-0.03
			c-0.21-1.66-0.39-3.99-0.54-6.79c-0.31-5.77-0.47-13.48-0.46-21.19c0.01-7.71,0.19-15.43,0.55-21.24c0.18-2.9,0.42-5.32,0.69-7
			c0.14-0.84,0.29-1.5,0.43-1.9c0.03-0.09,0.04-0.11,0.07-0.17c0.77-0.07,2.38-0.11,4.12-0.11c0.62,0,1.16-0.52,1.06-1.01
			c-0.35-1.68-0.55-3.33-0.71-5c0.01-0.01,0,0,0.02-0.01c0.2-0.09,0.61-0.2,1.13-0.28c1.04-0.17,2.53-0.26,4.03-0.28
			c0.58-0.01,1.08-0.45,1.05-0.92c-0.1-1.51-0.17-2.99-0.22-4.48c0.01-0.16,0-0.14,0.3-0.24C431.43,5.14,432.02,5.07,432.61,5.07
			L432.61,5.07z M426.39,20.47c-0.23,0-0.45,0-0.66,0c-0.55,0.01-1,0.02-1.32,0.04c-0.62,0.05-0.85,0.39-0.95,0.55
			c-0.1,0.16-0.14,0.28-0.17,0.4c-0.07,0.25-0.11,0.52-0.14,0.83c-0.06,0.63-0.08,1.42-0.07,2.22c0.01,0.79,0.06,1.58,0.13,2.2
			c0.04,0.31,0.08,0.57,0.14,0.8c0.03,0.12,0.06,0.22,0.14,0.36c0.04,0.07,0.09,0.16,0.21,0.27c0.12,0.12,0.39,0.3,0.8,0.32
			c0.01,0,0.02,0,0.03,0l6.05,0.1c0.56,0.01,1.08-0.4,1.1-0.85c0.05-1.7,0.46-2.66,0.59-6.1c0.02-0.41-0.37-0.8-0.86-0.88
			C430.05,20.53,428,20.47,426.39,20.47L426.39,20.47z M436.64,20.92c-0.24,0-0.46,0-0.65,0c-0.55,0.01-0.99,0.01-1.33,0.04
			c-0.62,0.05-0.85,0.39-0.95,0.55c-0.1,0.16-0.14,0.28-0.17,0.4c-0.07,0.25-0.11,0.52-0.14,0.83c-0.06,0.63-0.08,1.42-0.07,2.22
			s0.06,1.58,0.13,2.2c0.04,0.31,0.08,0.57,0.14,0.8c0.03,0.12,0.06,0.22,0.14,0.37c0.04,0.07,0.09,0.16,0.21,0.27
			c0.12,0.12,0.39,0.3,0.8,0.32c0.01,0,0.02,0,0.03,0l6.05,0.1c0.56,0.01,1.08-0.4,1.1-0.85c0.05-1.7,0.46-2.66,0.59-6.1
			c0.02-0.41-0.37-0.8-0.86-0.88C440.31,20.98,438.25,20.92,436.64,20.92L436.64,20.92z M446.45,21.67c-0.5,0-0.91,0.02-1.19,0.04
			c-0.62,0.05-0.84,0.38-0.94,0.54c-0.1,0.15-0.13,0.27-0.16,0.38c-0.07,0.23-0.1,0.48-0.13,0.76c-0.06,0.57-0.07,1.27-0.06,1.98
			c0.01,0.71,0.05,1.41,0.12,1.97c0.03,0.28,0.07,0.51,0.13,0.73c0.03,0.11,0.05,0.21,0.13,0.35c0.04,0.07,0.09,0.15,0.21,0.26
			c0.12,0.12,0.39,0.3,0.79,0.32c0.01,0,0.02,0,0.03,0l5.39,0.09c0.56,0.01,1.08-0.4,1.1-0.85c0.04-1.51,0.4-2.36,0.53-5.44
			c0.02-0.41-0.37-0.8-0.86-0.88C450.13,21.69,447.93,21.65,446.45,21.67z M425.75,22.22c1.27-0.01,3.04,0.06,4.31,0.17
			c-0.13,2.13-0.36,3.22-0.48,4.44l-4.2-0.07c-0.01-0.08-0.02-0.11-0.03-0.2c-0.06-0.54-0.11-1.31-0.12-2.06
			c-0.01-0.76,0-1.51,0.06-2.05c0.01-0.1,0.02-0.13,0.03-0.22C425.48,22.23,425.56,22.22,425.75,22.22z M436.63,22.66
			c1.2,0,2.61,0.07,3.69,0.17c-0.13,2.14-0.36,3.23-0.48,4.45l-4.2-0.07c-0.01-0.08-0.02-0.11-0.03-0.2
			c-0.06-0.54-0.11-1.3-0.12-2.06c-0.01-0.76,0-1.52,0.06-2.06c0.01-0.1,0.02-0.13,0.03-0.21c0.17,0,0.24-0.01,0.44-0.01
			C436.21,22.66,436.42,22.66,436.63,22.66z M446.47,23.41c1.09-0.01,2.59,0.05,3.71,0.14c-0.12,1.78-0.31,2.74-0.41,3.77
			l-3.53-0.06c-0.01-0.04-0.01-0.05-0.02-0.09c-0.06-0.48-0.09-1.15-0.11-1.82c-0.01-0.67,0-1.34,0.05-1.82
			c0.01-0.05,0.01-0.06,0.02-0.11C446.3,23.41,446.34,23.41,446.47,23.41L446.47,23.41z M185.41,32.3c0.68-0.01,1.18,0.03,1.19,0.14
			c0.07,0.65,0.05,3.06-0.18,4.18c-2.76,0.07-3.5-0.14-4.97-0.09l0.08-3.78C181.55,32.56,183.92,32.32,185.41,32.3z M169.49,32.51
			c0.29,0,0.48,0.03,0.49,0.1c0.11,0.64,0.26,3.04,0.11,4.17c-2.76,0.24-3.52,0.07-4.98,0.22l-0.18-3.77
			C164.92,33,168.22,32.5,169.49,32.51L169.49,32.51z M177.56,32.63c0.14,0.99,0,3.14-0.1,3.72c-0.05,0.32-4.5,0.19-4.5-0.05
			l0.16-3.37C174.42,32.91,175.1,32.69,177.56,32.63z M161.76,32.75c0.12,0.89,0,2.84-0.09,3.37c-0.05,0.29-4.07,0.17-4.07-0.04
			l0.14-3.05C158.92,33.01,159.53,32.8,161.76,32.75z M289.75,33.02c1.33-0.01,3.39,0.04,4.48,0.21c-0.11,2.79-0.45,3.55-0.49,5.03
			l-4.98-0.09c-0.36-0.01-0.5-5.09-0.03-5.13C288.96,33.04,289.31,33.03,289.75,33.02L289.75,33.02z M298.19,33.39
			c1.33-0.01,3.39,0.04,4.48,0.21c-0.11,2.79-0.45,3.55-0.49,5.03l-4.98-0.09c-0.36-0.01-0.5-5.09-0.03-5.13
			C297.39,33.4,297.75,33.39,298.19,33.39L298.19,33.39z M305.39,34c1.18-0.01,3.02,0.03,3.99,0.19c-0.1,2.49-0.4,3.16-0.43,4.48
			l-4.43-0.07c-0.32-0.01-0.45-4.53-0.03-4.56C304.68,34.02,305,34.01,305.39,34L305.39,34z M433.83,34.15
			c-0.65,0.01-1.26,0.03-1.78,0.08c-0.5,0.05-0.92,0.43-0.94,0.84c-0.14,3.45,0.19,4.42,0.1,6.12c-0.02,0.45,0.46,0.89,1.02,0.91
			l6.04,0.22c0.01,0,0.02,0,0.03,0c0.41,0.01,0.69-0.16,0.82-0.27s0.19-0.2,0.23-0.26c0.09-0.14,0.13-0.24,0.17-0.35
			c0.08-0.23,0.14-0.49,0.2-0.79c0.12-0.61,0.23-1.4,0.31-2.19c0.08-0.79,0.12-1.58,0.11-2.21c-0.01-0.32-0.02-0.59-0.07-0.84
			c-0.03-0.13-0.05-0.25-0.14-0.41c-0.09-0.16-0.29-0.52-0.91-0.6C438.07,34.25,435.79,34.13,433.83,34.15L433.83,34.15z
			 M444.1,34.25c-0.65,0.01-1.26,0.03-1.78,0.08c-0.5,0.05-0.92,0.43-0.94,0.84c-0.14,3.45,0.19,4.41,0.1,6.12
			c-0.02,0.45,0.46,0.89,1.02,0.91l6.04,0.22c0.01,0,0.02,0,0.03,0c0.41,0.01,0.69-0.16,0.82-0.27s0.19-0.2,0.23-0.26
			c0.09-0.14,0.13-0.24,0.17-0.35c0.08-0.23,0.14-0.49,0.2-0.79c0.12-0.61,0.23-1.4,0.31-2.19c0.08-0.79,0.12-1.58,0.11-2.21
			c-0.01-0.32-0.02-0.59-0.07-0.84c-0.03-0.13-0.05-0.25-0.14-0.41s-0.29-0.52-0.91-0.6C448.33,34.34,446.06,34.23,444.1,34.25z
			 M423.73,34.45c-0.59,0.01-1.12,0.03-1.58,0.08c-0.5,0.05-0.92,0.43-0.94,0.84c-0.12,3.07,0.16,3.93,0.08,5.44
			c-0.02,0.45,0.46,0.89,1.02,0.91l5.38,0.2c0.01,0,0.02,0,0.03,0c0.41,0.01,0.69-0.16,0.82-0.27c0.13-0.11,0.18-0.19,0.23-0.26
			c0.09-0.13,0.12-0.23,0.16-0.34c0.07-0.21,0.13-0.44,0.19-0.72c0.11-0.55,0.21-1.25,0.28-1.96c0.07-0.71,0.11-1.42,0.1-1.98
			c-0.01-0.28-0.02-0.53-0.07-0.76c-0.02-0.12-0.05-0.23-0.13-0.39c-0.08-0.16-0.28-0.51-0.9-0.59
			C427.51,34.53,425.49,34.44,423.73,34.45L423.73,34.45z M433.86,35.9c1.49-0.02,3.17,0.08,4.13,0.15c0.01,0.08,0.02,0.11,0.02,0.2
			c0.01,0.54-0.04,1.3-0.11,2.05c-0.07,0.75-0.17,1.51-0.28,2.05c-0.02,0.09-0.03,0.12-0.05,0.2l-4.2-0.15
			c-0.01-1.22-0.16-2.33-0.12-4.48C433.47,35.91,433.62,35.9,433.86,35.9L433.86,35.9z M444.13,35.99c1.49-0.02,3.17,0.08,4.13,0.15
			c0,0.08,0.02,0.11,0.02,0.2c0.01,0.54-0.04,1.3-0.11,2.05c-0.07,0.75-0.17,1.51-0.28,2.05c-0.02,0.09-0.03,0.12-0.05,0.19
			l-4.2-0.15c-0.01-1.22-0.16-2.33-0.12-4.47C443.74,36.01,443.89,36,444.13,35.99L444.13,35.99z M423.77,36.2
			c1.28-0.01,2.71,0.06,3.58,0.13c0,0.04,0.01,0.05,0.01,0.09c0.01,0.48-0.03,1.15-0.09,1.82c-0.07,0.67-0.16,1.34-0.25,1.82
			c-0.01,0.04-0.01,0.05-0.02,0.09l-3.52-0.13c-0.02-1.03-0.13-2-0.11-3.79C423.5,36.21,423.6,36.2,423.77,36.2L423.77,36.2z
			 M177.79,37.73c0.15,1.11,0.01,3.53-0.11,4.18c-0.06,0.36-5.05,0.21-5.05-0.06l0.18-3.78C174.28,38.05,175.03,37.8,177.79,37.73
			L177.79,37.73z M161.87,38.04c0.14,1,0,3.19-0.1,3.78c-0.06,0.32-4.57,0.19-4.57-0.05l0.16-3.42
			C158.68,38.33,159.37,38.1,161.87,38.04z M185.06,38.72c0.68-0.01,1.17,0.03,1.18,0.14c0.07,0.65,0.05,3.06-0.18,4.18
			c-2.76,0.07-3.5-0.14-4.97-0.09l0.08-3.78C181.19,38.98,183.57,38.74,185.06,38.72L185.06,38.72z M169.57,38.91
			c0.29,0,0.48,0.03,0.49,0.1c0.11,0.64,0.26,3.04,0.11,4.17c-2.76,0.24-3.51,0.07-4.98,0.22l-0.18-3.77
			C165.01,39.41,168.3,38.9,169.57,38.91L169.57,38.91z M296.43,41.91c1.55-0.02,3.5,0.09,4.14,0.18c0.47,0.06-0.09,5.12-0.44,5.11
			l-4.97-0.18c0.08-1.48-0.2-2.25-0.08-5.05C295.43,41.94,295.91,41.92,296.43,41.91L296.43,41.91z M304.88,42
			c1.55-0.02,3.5,0.09,4.14,0.18c0.47,0.06-0.09,5.12-0.44,5.11l-4.97-0.18c0.08-1.48-0.2-2.25-0.08-5.05
			C303.88,42.02,304.36,42,304.88,42z M289.53,42.16c1.38-0.02,3.12,0.08,3.69,0.15c0.42,0.05-0.08,4.56-0.39,4.56l-4.43-0.16
			c0.07-1.32-0.17-2-0.07-4.49C288.65,42.19,289.07,42.17,289.53,42.16L289.53,42.16z M177.71,44.14c0.15,1.11,0,3.53-0.11,4.18
			c-0.06,0.36-5.05,0.22-5.04-0.05l0.17-3.78C174.19,44.46,174.95,44.21,177.71,44.14z M184.58,44.32c0.6-0.01,1.05,0.03,1.06,0.13
			c0.06,0.57,0.04,2.73-0.16,3.72c-2.46,0.06-3.11-0.13-4.42-0.08l0.07-3.37C181.14,44.55,183.25,44.33,184.58,44.32z M169.4,44.5
			c0.26,0,0.42,0.03,0.43,0.09c0.1,0.57,0.24,2.71,0.1,3.71c-2.46,0.21-3.14,0.07-4.44,0.19l-0.16-3.35
			C165.33,44.95,168.27,44.5,169.4,44.5z M161.89,44.8c0.14,1,0,3.19-0.1,3.78c-0.06,0.32-4.57,0.19-4.56-0.05l0.16-3.42
			C158.71,45.09,159.4,44.86,161.89,44.8z M438.24,46.4c-0.22,0-0.44,0.01-0.64,0.01c-1.7,0.02-3.4,0.11-4.21,0.22
			c-0.62,0.08-0.82,0.43-0.91,0.6c-0.09,0.16-0.11,0.29-0.14,0.41c-0.05,0.25-0.07,0.53-0.07,0.84c-0.01,0.63,0.03,1.42,0.11,2.21
			c0.08,0.79,0.19,1.58,0.31,2.19c0.06,0.31,0.12,0.57,0.2,0.79c0.04,0.11,0.08,0.21,0.17,0.35c0.04,0.07,0.1,0.15,0.23,0.26
			c0.13,0.11,0.42,0.28,0.82,0.27c0.01,0,0.02,0,0.03,0l6.04-0.22c0.56-0.02,1.05-0.45,1.02-0.91c-0.09-1.7,0.24-2.67,0.1-6.12
			c-0.01-0.41-0.43-0.79-0.94-0.84c-0.57-0.06-1.27-0.09-2.02-0.09C438.32,46.4,438.28,46.4,438.24,46.4L438.24,46.4z M427.98,46.5
			c-0.22,0-0.43,0-0.65,0c-1.71,0.02-3.4,0.12-4.21,0.22c-0.62,0.08-0.82,0.43-0.91,0.6c-0.09,0.16-0.11,0.29-0.14,0.41
			c-0.05,0.25-0.07,0.53-0.07,0.84c-0.01,0.63,0.03,1.42,0.11,2.21c0.08,0.79,0.19,1.58,0.31,2.19c0.06,0.31,0.12,0.57,0.2,0.79
			c0.04,0.11,0.08,0.22,0.17,0.35c0.04,0.07,0.1,0.15,0.23,0.26c0.13,0.11,0.42,0.28,0.82,0.27c0.01,0,0.02,0,0.03,0l6.04-0.22
			c0.56-0.02,1.05-0.45,1.02-0.91c-0.09-1.7,0.24-2.68,0.1-6.12c-0.01-0.41-0.43-0.79-0.94-0.84c-0.58-0.06-1.27-0.08-2.02-0.09
			C428.05,46.5,428.02,46.5,427.98,46.5L427.98,46.5z M448.48,46.7c-0.22,0-0.45,0-0.68,0c-1.52,0.02-3.03,0.1-3.76,0.2
			c-0.62,0.08-0.81,0.43-0.9,0.59c-0.08,0.16-0.11,0.27-0.13,0.39c-0.05,0.24-0.06,0.48-0.07,0.76c-0.01,0.57,0.03,1.28,0.1,1.98
			c0.07,0.71,0.17,1.41,0.28,1.96c0.06,0.28,0.11,0.51,0.19,0.72c0.04,0.11,0.07,0.2,0.15,0.34c0.04,0.07,0.09,0.15,0.23,0.26
			c0.13,0.11,0.41,0.28,0.82,0.27c0.01,0,0.02,0,0.03,0l5.38-0.19c0.56-0.02,1.05-0.45,1.02-0.91c-0.08-1.5,0.22-2.37,0.09-5.45
			c-0.02-0.41-0.43-0.79-0.94-0.84C449.77,46.72,449.14,46.7,448.48,46.7L448.48,46.7z M438.34,48.14c0.33,0,0.54,0.03,0.83,0.04
			c0.04,2.14-0.1,3.24-0.12,4.47l-4.2,0.15c-0.02-0.07-0.03-0.11-0.05-0.19c-0.11-0.54-0.21-1.3-0.28-2.05
			c-0.07-0.75-0.12-1.51-0.11-2.05c0-0.09,0.01-0.13,0.02-0.21c0.78-0.06,1.95-0.13,3.19-0.15
			C437.89,48.15,438.13,48.14,438.34,48.14L438.34,48.14z M428.08,48.24c0.33,0,0.54,0.02,0.83,0.04c0.04,2.14-0.1,3.25-0.12,4.47
			l-4.2,0.15c-0.02-0.07-0.03-0.11-0.05-0.19c-0.11-0.54-0.21-1.3-0.28-2.05c-0.07-0.75-0.12-1.51-0.11-2.05
			c0-0.09,0.01-0.13,0.02-0.21c0.78-0.06,1.95-0.14,3.19-0.15C427.61,48.24,427.85,48.24,428.08,48.24L428.08,48.24z M447.83,48.45
			c0.49-0.01,0.84,0.02,1.26,0.04c0.03,1.78-0.09,2.75-0.11,3.78l-3.52,0.13c-0.01-0.04-0.01-0.05-0.02-0.09
			c-0.1-0.48-0.19-1.15-0.25-1.82c-0.07-0.67-0.1-1.34-0.09-1.82c0-0.05,0-0.06,0.01-0.1C445.79,48.52,446.78,48.46,447.83,48.45
			L447.83,48.45z M300.13,49.63c0.59,0,1.14,0.02,1.56,0.07c0.11,2.79-0.16,3.56-0.08,5.05l-4.97,0.18c-0.36,0-0.91-5.05-0.44-5.11
			c0.53-0.07,1.97-0.16,3.34-0.18C299.73,49.63,299.93,49.63,300.13,49.63L300.13,49.63z M291.68,49.71c0.59,0,1.14,0.02,1.56,0.07
			c0.11,2.79-0.16,3.56-0.08,5.05L288.18,55c-0.36,0-0.91-5.05-0.44-5.11c0.53-0.07,1.97-0.16,3.34-0.18
			C291.28,49.71,291.48,49.71,291.68,49.71z M307.04,49.88c0.53,0,1.02,0.02,1.39,0.06c0.1,2.49-0.15,3.17-0.08,4.49l-4.42,0.16
			c-0.32,0-0.82-4.5-0.4-4.56c0.47-0.06,1.76-0.14,2.97-0.15C306.69,49.88,306.86,49.88,307.04,49.88z M185.3,49.99
			c0.68-0.01,1.17,0.03,1.18,0.14c0.07,0.65,0.05,3.06-0.18,4.18c-2.76,0.07-3.49-0.14-4.96-0.09l0.08-3.78
			C181.43,50.25,183.8,50.01,185.3,49.99L185.3,49.99z M169.37,50.2c0.29,0,0.48,0.03,0.49,0.1c0.11,0.64,0.26,3.04,0.11,4.17
			c-2.76,0.24-3.51,0.07-4.98,0.21l-0.18-3.76C164.81,50.69,168.11,50.19,169.37,50.2z M177.44,50.32c0.14,0.99,0,3.14-0.09,3.72
			c-0.05,0.32-4.5,0.19-4.5-0.05l0.16-3.37C174.31,50.6,174.98,50.38,177.44,50.32z M161.63,50.44c0.12,0.89,0,2.84-0.09,3.37
			c-0.05,0.29-4.07,0.17-4.06-0.04l0.14-3.05C158.8,50.7,159.41,50.49,161.63,50.44z M67.48,50.45l14.36,13.21
			c0.19,4.21-0.1,6.9,0.32,14.04c-5.05,0.11-10.09,0.25-15.12,0.43c0.02-2.88-0.07-6.38-0.16-7.59c-0.02-0.34-0.29-0.63-0.54-0.78
			c-0.25-0.15-0.51-0.22-0.76-0.27c-0.51-0.11-1.08-0.14-1.67-0.13c-0.76,0.01-1.55,0.09-2.21,0.23c-0.33,0.07-0.63,0.15-0.91,0.28
			c-0.14,0.07-0.29,0.14-0.43,0.28c-0.14,0.13-0.28,0.35-0.28,0.61c0,0,0,0,0,0l0.13,7.64c-1.83,0.08-3.66,0.17-5.49,0.26
			c-0.01-0.06-0.02-0.12-0.03-0.18c-0.12-1.1-0.04-2.71,0.03-4.48c0.15-3.38,0.36-7.34-0.88-10.18L67.48,50.45z M271.18,52.13
			c0.47,0,0.93,0,1.38,0c2.08,0.01,3.92,0.09,5.55,0.24c-0.78,13.16-2.82,19.28-3.38,26.29c-4.21,0.04-8.46,0.06-12.73,0.06
			c0.04-1.33,0.12-2.81,0.04-5.66c-0.01-0.32-0.32-0.63-0.71-0.69c-0.57-0.09-1.23-0.11-1.93-0.11c-1.55,0-3.16,0.13-3.96,0.29
			c-0.3,0.06-0.46,0.21-0.54,0.31c-0.08,0.1-0.12,0.16-0.14,0.22c-0.05,0.12-0.07,0.22-0.09,0.32c-0.04,0.21-0.06,0.44-0.07,0.72
			c-0.02,0.56-0.01,1.3,0.03,2.09c0.04,0.86,0.11,1.72,0.19,2.5c-5.34-0.02-10.72-0.08-16.13-0.14c-0.22-0.68-0.43-1.63-0.61-2.75
			c-0.41-2.52-0.69-5.91-0.78-9.3c-0.09-3.39,0.02-6.79,0.35-9.31c0.17-1.26,0.4-2.31,0.66-2.98c0.13-0.34,0.28-0.58,0.38-0.7
			c0.03-0.04,0.03-0.04,0.04-0.04c2.14-0.13,5.61-0.75,9.86-0.75C255.47,52.72,264.16,52.17,271.18,52.13L271.18,52.13z
			 M270.8,53.68c-0.8,0.01-1.78,0.08-2.6,0.17c-0.41,0.05-0.77,0.1-1.07,0.16c-0.15,0.03-0.28,0.06-0.44,0.11
			c-0.08,0.03-0.16,0.06-0.28,0.14c-0.12,0.08-0.34,0.24-0.35,0.56c0,0.01,0,0.01,0,0.02l-0.08,3.78c-0.01,0.39,0.44,0.75,0.92,0.73
			c1.35-0.05,2.13,0.16,4.96,0.09c0.41-0.01,0.78-0.28,0.85-0.6c0.26-1.28,0.27-3.55,0.18-4.35c-0.02-0.23-0.18-0.42-0.32-0.52
			c-0.13-0.1-0.24-0.13-0.33-0.16c-0.18-0.06-0.32-0.08-0.47-0.09C271.49,53.68,271.16,53.67,270.8,53.68L270.8,53.68z M254.9,53.89
			c-0.78,0-1.91,0.13-2.93,0.28c-0.51,0.08-0.98,0.17-1.36,0.26c-0.19,0.04-0.35,0.09-0.51,0.15c-0.08,0.03-0.16,0.06-0.28,0.14
			c-0.12,0.08-0.38,0.24-0.37,0.61c0,0.01,0,0.01,0,0.02l0.18,3.76c0.02,0.4,0.51,0.73,0.99,0.69c1.35-0.13,2.15,0.03,4.97-0.22
			c0.4-0.03,0.74-0.31,0.79-0.63c0.18-1.29,0.02-3.55-0.12-4.34c-0.05-0.27-0.29-0.47-0.45-0.55c-0.16-0.08-0.27-0.1-0.37-0.12
			C255.23,53.89,255.07,53.89,254.9,53.89L254.9,53.89z M262.93,54.01c-2.52,0.06-3.24,0.28-4.43,0.3
			c-0.45,0.01-0.85,0.33-0.87,0.69l-0.16,3.37c0,0.01,0,0.01,0,0.02c0,0.23,0.14,0.42,0.25,0.52c0.11,0.1,0.19,0.14,0.27,0.17
			c0.14,0.06,0.23,0.08,0.33,0.1c0.2,0.04,0.39,0.07,0.63,0.09c0.46,0.05,1.04,0.07,1.62,0.09c0.58,0.01,1.16,0.01,1.64-0.03
			c0.24-0.02,0.45-0.04,0.66-0.08c0.11-0.02,0.22-0.05,0.37-0.12c0.15-0.07,0.43-0.23,0.49-0.58c0.12-0.73,0.27-2.75,0.11-3.9
			C263.79,54.29,263.37,54,262.93,54.01L262.93,54.01z M351.74,54.03c0.68-0.01,1.18,0.03,1.19,0.14c0.07,0.65,0.05,3.06-0.18,4.18
			c-2.76,0.07-3.5-0.15-4.97-0.09l0.08-3.78c0-0.06,0.29-0.13,0.71-0.2c0.97-0.03,1.86-0.1,2.59-0.23
			C351.37,54.04,351.56,54.04,351.74,54.03L351.74,54.03z M247.12,54.13c-2.28,0.06-2.93,0.25-4,0.27
			c-0.45,0.01-0.85,0.33-0.87,0.69l-0.14,3.05c0,0.01,0,0.01,0,0.02c0,0.23,0.13,0.42,0.24,0.52c0.11,0.1,0.2,0.14,0.27,0.17
			c0.14,0.06,0.23,0.08,0.32,0.1c0.18,0.04,0.36,0.06,0.58,0.08c0.42,0.04,0.94,0.07,1.47,0.08c0.53,0.01,1.06,0.01,1.49-0.02
			c0.22-0.02,0.41-0.03,0.61-0.08c0.1-0.02,0.21-0.04,0.35-0.11c0.15-0.07,0.43-0.23,0.49-0.57c0.12-0.68,0.24-2.48,0.09-3.54
			C247.98,54.42,247.56,54.12,247.12,54.13z M335.82,54.24c0.29,0,0.48,0.03,0.49,0.09c0.11,0.64,0.26,3.04,0.11,4.17
			c-2.76,0.24-3.52,0.07-4.98,0.22l-0.18-3.76C331.25,54.74,334.55,54.24,335.82,54.24z M343.89,54.36c0.14,0.99,0,3.14-0.1,3.72
			c-0.05,0.32-4.5,0.19-4.5-0.05l0.16-3.37C340.75,54.64,341.43,54.42,343.89,54.36z M328.08,54.49c0.12,0.89,0.01,2.84-0.08,3.36
			c-0.05,0.29-4.07,0.17-4.07-0.04l0.14-3.05C325.25,54.74,325.86,54.54,328.08,54.49z M270.82,55.12c0.13,0,0.19,0.01,0.3,0.01
			c0.02,0.71,0,1.92-0.1,2.88c-1.5,0.01-2.39-0.05-3.26-0.07l0.05-2.57c0.19-0.03,0.36-0.06,0.63-0.09
			C269.18,55.19,270.13,55.12,270.82,55.12L270.82,55.12z M254.54,55.35c0.07,0.71,0.13,1.91,0.09,2.85c-1.51,0.1-2.4,0.1-3.28,0.13
			l-0.12-2.55c0.28-0.06,0.64-0.13,1.06-0.2C253.1,55.46,253.97,55.38,254.54,55.35L254.54,55.35z M177.67,55.42
			c0.15,1.11,0,3.53-0.11,4.18c-0.06,0.36-5.05,0.21-5.04-0.06l0.17-3.78C174.16,55.74,174.91,55.48,177.67,55.42L177.67,55.42z
			 M262.08,55.5c0.02,0.84-0.01,1.79-0.07,2.39c-0.37,0.02-0.88,0.03-1.4,0.02c-0.49-0.01-0.97-0.04-1.33-0.07l0.1-2.16
			C260.09,55.63,260.97,55.56,262.08,55.5L262.08,55.5z M246.28,55.63c0.02,0.73-0.01,1.48-0.06,2.02
			c-0.32,0.02-0.74,0.03-1.18,0.02c-0.42-0.01-0.8-0.03-1.12-0.06l0.09-1.82C244.6,55.73,245.37,55.68,246.28,55.63z M161.74,55.73
			c0.14,1,0.01,3.19-0.09,3.78c-0.06,0.32-4.57,0.19-4.57-0.05l0.16-3.42C158.57,56.02,159.25,55.79,161.74,55.73z M515.55,55.75
			c0.56-0.02,1.18,0.05,1.75,0.13c-0.14,1.66-0.39,3.78-0.58,5.4c-0.02,0.01-0.02,0.02-0.04,0.02c-0.6,0.21-0.66,1.01-0.09,1.28
			l5.74,2.69c-0.33,4.45-0.87,7.37-1.33,14.86c-4.36-0.22-8.73-0.46-13.11-0.7c0.16-2.58,0.17-4.09,0.36-6.07
			c0.04-0.35-0.3-0.71-0.73-0.77l-4.62-0.67c-0.02,0-0.03,0-0.05,0c-0.31-0.03-0.57,0.09-0.69,0.17c-0.12,0.08-0.17,0.15-0.2,0.2
			c-0.07,0.1-0.09,0.15-0.12,0.21c-0.05,0.11-0.07,0.22-0.11,0.35c-0.07,0.26-0.13,0.59-0.2,1c-0.14,0.81-0.3,1.89-0.44,3.02
			c-0.09,0.73-0.17,1.48-0.24,2.19c-2.7-0.15-5.41-0.3-8.11-0.45c0.08-1.15,0.29-2.61,0.51-4.2c0.51-3.63,1.13-7.86,0.49-10.94
			l13.48-5.28l5.48,2.57c0.52,0.24,1.29-0.09,1.33-0.57c0.1-1.35,0.23-2.69,0.37-4.03c0.04-0.16,0.06-0.18,0.24-0.26
			C514.78,55.82,515.13,55.76,515.55,55.75L515.55,55.75z M184.94,56.41c0.68-0.01,1.18,0.03,1.19,0.14
			c0.07,0.65,0.05,3.06-0.18,4.18c-2.76,0.07-3.5-0.15-4.97-0.09l0.08-3.78C181.08,56.67,183.44,56.43,184.94,56.41L184.94,56.41z
			 M169.45,56.6c0.29,0,0.48,0.03,0.49,0.1c0.11,0.64,0.26,3.04,0.11,4.17c-2.76,0.24-3.52,0.07-4.98,0.22l-0.18-3.77
			C164.89,57.1,168.18,56.59,169.45,56.6z M304.45,58.02c1.41-0.02,3.17,0.08,3.74,0.16c0.42,0.06-0.08,4.63-0.4,4.62l-4.5-0.16
			c0.07-1.34-0.17-2.03-0.07-4.56C303.55,58.04,303.98,58.02,304.45,58.02z M295.54,58.05c1.41-0.02,3.17,0.08,3.74,0.16
			c0.42,0.06-0.08,4.63-0.4,4.63l-4.5-0.16c0.07-1.34-0.18-2.04-0.08-4.56C294.64,58.07,295.07,58.05,295.54,58.05z M288.43,58.17
			c1.25-0.01,2.82,0.07,3.33,0.14c0.38,0.05-0.07,4.12-0.35,4.12l-4.01-0.14c0.06-1.2-0.16-1.81-0.07-4.06
			C287.63,58.19,288.01,58.17,288.43,58.17L288.43,58.17z M247.24,59.42c-2.56,0.06-3.29,0.29-4.5,0.31
			c-0.45,0.01-0.85,0.33-0.87,0.69l-0.16,3.42c0,0.01,0,0.01,0,0.02c0,0.23,0.14,0.42,0.25,0.52c0.11,0.1,0.19,0.14,0.27,0.17
			c0.14,0.06,0.24,0.08,0.34,0.1c0.2,0.04,0.4,0.07,0.63,0.09c0.47,0.05,1.05,0.07,1.64,0.09c0.59,0.01,1.18,0.01,1.66-0.03
			c0.24-0.02,0.46-0.04,0.68-0.09c0.11-0.02,0.22-0.05,0.37-0.12c0.15-0.07,0.43-0.23,0.49-0.58c0.13-0.74,0.27-2.79,0.11-3.96
			C248.1,59.7,247.68,59.41,247.24,59.42z M344.12,59.47c0.15,1.11,0.01,3.52-0.11,4.17c-0.06,0.36-5.05,0.22-5.05-0.05l0.18-3.78
			C340.61,59.78,341.36,59.53,344.12,59.47z M443.58,59.47c-0.6,0.01-1.14,0.03-1.61,0.08c-0.5,0.05-0.92,0.43-0.94,0.84
			c-0.13,3.12,0.16,4,0.08,5.53c-0.02,0.45,0.46,0.89,1.02,0.91l5.47,0.2c0.01,0,0.02,0,0.03,0c0.41,0,0.69-0.16,0.82-0.27
			c0.13-0.11,0.18-0.19,0.23-0.26c0.09-0.14,0.12-0.23,0.16-0.34c0.07-0.21,0.13-0.45,0.18-0.73c0.11-0.56,0.21-1.27,0.28-1.98
			c0.07-0.72,0.11-1.43,0.11-2.01c-0.01-0.29-0.02-0.53-0.07-0.77c-0.02-0.12-0.05-0.24-0.13-0.39c-0.09-0.16-0.29-0.51-0.9-0.59
			C447.42,59.55,445.36,59.45,443.58,59.47L443.58,59.47z M432.76,59.5c-0.6,0.01-1.14,0.03-1.62,0.08
			c-0.5,0.05-0.92,0.43-0.94,0.84c-0.13,3.12,0.18,4.01,0.09,5.54c-0.02,0.46,0.47,0.89,1.03,0.91l5.46,0.19c0.01,0,0.02,0,0.03,0
			c0.41,0,0.69-0.16,0.82-0.27c0.13-0.11,0.18-0.19,0.23-0.26c0.09-0.14,0.12-0.23,0.16-0.34c0.07-0.21,0.13-0.45,0.18-0.73
			c0.11-0.56,0.21-1.27,0.28-1.99c0.07-0.72,0.11-1.43,0.11-2.01c-0.01-0.29-0.02-0.53-0.07-0.77c-0.02-0.12-0.05-0.23-0.13-0.39
			c-0.09-0.16-0.29-0.51-0.9-0.59C436.59,59.58,434.54,59.48,432.76,59.5L432.76,59.5z M424.11,59.64
			c-0.54,0.01-1.03,0.03-1.45,0.07c-0.5,0.05-0.92,0.43-0.94,0.84c-0.11,2.79,0.15,3.57,0.08,4.92c-0.02,0.45,0.46,0.89,1.02,0.91
			l4.87,0.18c0.01,0,0.02,0,0.03,0c0.4,0,0.69-0.17,0.82-0.27c0.13-0.11,0.18-0.19,0.22-0.25c0.08-0.13,0.12-0.22,0.15-0.32
			c0.07-0.2,0.12-0.41,0.17-0.66c0.1-0.5,0.19-1.14,0.25-1.78c0.06-0.64,0.1-1.28,0.09-1.8c0-0.26-0.02-0.48-0.06-0.7
			c-0.02-0.11-0.04-0.22-0.13-0.37c-0.08-0.15-0.28-0.5-0.89-0.58C427.53,59.72,425.7,59.63,424.11,59.64L424.11,59.64z
			 M328.2,59.77c0.14,1,0,3.19-0.1,3.78c-0.06,0.32-4.57,0.19-4.57-0.05l0.16-3.42C325.01,60.07,325.7,59.84,328.2,59.77z
			 M270.44,60.1c-0.8,0.01-1.78,0.08-2.6,0.17c-0.41,0.05-0.77,0.1-1.07,0.16c-0.15,0.03-0.28,0.06-0.44,0.11
			c-0.08,0.03-0.16,0.06-0.28,0.14c-0.12,0.08-0.34,0.24-0.35,0.56c0,0,0,0.01,0,0.01l-0.08,2.92c-0.01,0.39,0.44,0.75,0.92,0.74
			c1.35-0.05,2.14,0.16,4.96,0.09c0.41-0.01,0.78-0.28,0.85-0.6c0.25-1.22,0.26-2.74,0.18-3.49c-0.02-0.23-0.18-0.42-0.32-0.52
			s-0.25-0.13-0.34-0.16c-0.18-0.06-0.31-0.07-0.46-0.09C271.12,60.1,270.8,60.1,270.44,60.1L270.44,60.1z M263.16,60.26
			c-2.82,0.07-3.62,0.32-4.97,0.34c-0.44,0.01-0.84,0.32-0.87,0.68l-0.18,2.63c0,0.01,0,0.02,0,0.03c0,0.23,0.14,0.42,0.25,0.52
			c0.11,0.1,0.2,0.14,0.27,0.17c0.15,0.06,0.25,0.09,0.35,0.11c0.21,0.04,0.42,0.07,0.68,0.09c0.51,0.05,1.16,0.08,1.81,0.09
			c0.65,0.01,1.3,0.01,1.83-0.03c0.27-0.02,0.5-0.04,0.73-0.09c0.12-0.02,0.23-0.05,0.38-0.13c0.16-0.07,0.44-0.23,0.5-0.58
			c0.12-0.69,0.28-1.99,0.11-3.2C264.02,60.54,263.6,60.25,263.16,60.26L263.16,60.26z M254.97,60.3c-0.78,0-1.91,0.13-2.93,0.28
			c-0.51,0.08-0.98,0.17-1.36,0.26c-0.19,0.04-0.35,0.09-0.51,0.15c-0.08,0.03-0.16,0.06-0.28,0.14c-0.12,0.08-0.38,0.24-0.37,0.61
			c0,0.01,0,0.02,0,0.03l0.18,2.61c0.03,0.39,0.51,0.72,0.99,0.67c1.35-0.13,2.15,0.03,4.97-0.22c0.4-0.03,0.74-0.31,0.79-0.63
			c0.17-1.23,0-2.52-0.12-3.2c-0.05-0.27-0.29-0.47-0.45-0.55c-0.16-0.08-0.27-0.1-0.37-0.12C255.31,60.3,255.15,60.3,254.97,60.3
			L254.97,60.3z M351.38,60.46c0.68-0.01,1.18,0.03,1.19,0.14c0.07,0.65,0.05,3.06-0.18,4.18c-2.76,0.07-3.5-0.14-4.97-0.09
			l0.08-3.78C347.52,60.72,349.89,60.48,351.38,60.46z M335.9,60.65c0.29,0,0.48,0.03,0.49,0.09c0.11,0.64,0.26,3.04,0.11,4.17
			c-2.76,0.24-3.52,0.07-4.98,0.22l-0.18-3.76C331.33,61.14,334.63,60.64,335.9,60.65z M575.87,60.89c2.5,0.04,4.2,2.36,3.59,4.25
			c0.32,1.33,2.3,1.19,3.42,1.8c1.88,0.97,2.49,3.41,0.7,4.65c-0.81,0.65-1.95,1.07-3.08,1.15c0.7-0.79,2.08-1.5,1.94-2.58
			c-0.35-0.84-1.78-0.85-2.49-0.32c-2.3,0.94-5.47,0.9-7.16-0.84c-0.65-0.64-1.38-1.95-2.65-1.58c-1.02,0.5-0.44,1.59-0.01,2.24
			c0.41,0.79,1.19,1.64,0.92,2.53c-0.89,0.11-2.22-0.42-2.74,0.47c-0.07,0.31-0.15,0.42-0.54,0.24c-2.71-0.76-4.14-3.82-2.19-5.69
			c1.34-1.39,3.83-1.92,5.86-1.38c0.97-0.31,0.61-1.2,0.48-1.81c0.17-1.57,1.68-3.05,3.7-3.1
			C575.71,60.89,575.79,60.89,575.87,60.89z M246.39,60.9c0.03,0.86-0.01,1.85-0.07,2.47c-0.38,0.02-0.91,0.03-1.44,0.02
			c-0.51-0.01-0.99-0.04-1.37-0.07l0.11-2.21C244.38,61.04,245.16,60.96,246.39,60.9L246.39,60.9z M443.61,61.21
			c1.3-0.01,2.77,0.07,3.65,0.13c0,0.05,0,0.06,0.01,0.11c0.01,0.48-0.03,1.17-0.1,1.84c-0.07,0.68-0.16,1.36-0.25,1.84
			c-0.01,0.05-0.02,0.06-0.03,0.1l-3.62-0.13c-0.02-1.06-0.13-2.04-0.1-3.88C443.33,61.22,443.43,61.21,443.61,61.21L443.61,61.21z
			 M432.79,61.24c1.3-0.01,2.76,0.07,3.64,0.13c0,0.05,0,0.06,0.01,0.11c0.01,0.48-0.03,1.17-0.1,1.85
			c-0.07,0.68-0.16,1.36-0.25,1.84c-0.01,0.05-0.02,0.06-0.03,0.11l-3.6-0.13c-0.02-1.06-0.14-2.05-0.11-3.89
			C432.51,61.26,432.61,61.24,432.79,61.24L432.79,61.24z M131.18,61.25c0.29,0,0.48,0.03,0.49,0.1c0.11,0.64,0.26,3.04,0.11,4.17
			c-2.76,0.24-3.51,0.07-4.98,0.22l-0.18-3.77C126.62,61.74,129.91,61.24,131.18,61.25z M139.25,61.37c0.14,0.99,0,3.14-0.09,3.72
			c-0.05,0.32-4.51,0.19-4.5-0.05l0.16-3.37C136.12,61.65,136.79,61.43,139.25,61.37L139.25,61.37z M424.14,61.39
			c1.11-0.01,2.33,0.06,3.13,0.11c0,0,0,0,0,0.01c0.01,0.43-0.02,1.04-0.08,1.64c-0.06,0.6-0.15,1.21-0.23,1.63c0,0,0,0,0,0.01
			l-3-0.11c-0.02-0.89-0.12-1.76-0.1-3.28C423.97,61.4,424.03,61.39,424.14,61.39z M270.47,61.54c0.13,0,0.19,0.01,0.3,0.01
			c0.02,0.56-0.02,1.27-0.11,2.01c-1.49,0.01-2.37-0.04-3.24-0.07l0.04-1.71c0.19-0.03,0.37-0.06,0.63-0.09
			C268.83,61.61,269.77,61.55,270.47,61.54L270.47,61.54z M262.33,61.74c0.02,0.65-0.01,1.23-0.07,1.72c-0.03,0-0.03,0.01-0.06,0.01
			c-0.42,0.03-1.03,0.03-1.64,0.02c-0.59-0.01-1.17-0.04-1.59-0.08l0.1-1.44C259.96,61.91,260.84,61.81,262.33,61.74L262.33,61.74z
			 M254.64,61.75c0.06,0.5,0.09,1.07,0.06,1.71c-1.51,0.1-2.4,0.1-3.28,0.13l-0.09-1.4c0.28-0.06,0.63-0.13,1.05-0.19
			C253.19,61.87,254.08,61.78,254.64,61.75z M177.6,61.83c0.15,1.11,0,3.53-0.11,4.18c-0.06,0.36-5.05,0.22-5.05-0.05l0.18-3.78
			C174.08,62.15,174.84,61.9,177.6,61.83L177.6,61.83z M184.47,62.01c0.6-0.01,1.05,0.02,1.06,0.12c0.06,0.57,0.04,2.73-0.16,3.73
			c-2.46,0.06-3.12-0.13-4.42-0.08l0.07-3.37C181.02,62.24,183.14,62.02,184.47,62.01L184.47,62.01z M169.28,62.19
			c0.26,0,0.43,0.03,0.44,0.09c0.1,0.57,0.23,2.71,0.09,3.71c-2.46,0.21-3.13,0.07-4.43,0.19l-0.16-3.35
			C165.22,62.64,168.15,62.19,169.28,62.19z M64.27,62.22c-0.78,0-1.91,0.13-2.93,0.28c-0.51,0.08-0.98,0.17-1.35,0.26
			c-0.19,0.04-0.35,0.09-0.51,0.15c-0.08,0.03-0.17,0.06-0.29,0.14c-0.12,0.08-0.38,0.24-0.37,0.61c0,0.01,0,0.01,0,0.02L59,67.44
			c0.02,0.4,0.51,0.73,0.99,0.69c1.35-0.13,2.15,0.03,4.97-0.22c0.4-0.03,0.74-0.31,0.79-0.63c0.18-1.28,0.03-3.55-0.11-4.34
			c-0.05-0.28-0.29-0.47-0.45-0.55c-0.16-0.08-0.26-0.1-0.37-0.12C64.62,62.22,64.46,62.22,64.27,62.22L64.27,62.22z M75.13,62.34
			c-2.52,0.06-3.24,0.28-4.42,0.3c-0.45,0.01-0.85,0.33-0.87,0.69l-0.16,3.37c0,0.01,0,0.01,0,0.02c0,0.23,0.14,0.42,0.25,0.52
			c0.11,0.1,0.2,0.14,0.27,0.17c0.14,0.06,0.23,0.08,0.33,0.1c0.2,0.04,0.39,0.06,0.63,0.09c0.46,0.05,1.03,0.07,1.62,0.09
			c0.58,0.01,1.17,0.01,1.64-0.03c0.24-0.02,0.45-0.04,0.66-0.08c0.11-0.02,0.21-0.05,0.37-0.12c0.15-0.07,0.44-0.23,0.5-0.58
			c0.12-0.73,0.25-2.75,0.09-3.9C75.99,62.62,75.57,62.33,75.13,62.34L75.13,62.34z M161.78,62.49c0.14,1,0,3.19-0.1,3.78
			c-0.06,0.32-4.57,0.19-4.57-0.05l0.16-3.42C158.6,62.78,159.28,62.55,161.78,62.49z M63.92,63.68c0.07,0.71,0.13,1.91,0.09,2.86
			c-1.51,0.1-2.4,0.1-3.28,0.13l-0.12-2.55c0.28-0.06,0.64-0.13,1.06-0.2C62.48,63.79,63.35,63.7,63.92,63.68z M74.29,63.83
			c0.02,0.84-0.01,1.79-0.07,2.39c-0.37,0.02-0.89,0.03-1.41,0.02c-0.5-0.01-0.97-0.03-1.34-0.07l0.11-2.16
			C72.3,63.96,73.18,63.9,74.29,63.83L74.29,63.83z M101.33,63.86c0.18,0.83,0.74,1.5,1.53,2.01c-0.69,0.35-1.7,0.42-2.4-0.18
			c-0.29-0.24-0.54-0.5-0.74-0.76C100.7,64.58,101.36,64.12,101.33,63.86z M467.59,64.8c0.6,1.02,1.85,1.37,3.08,1.14
			c0.08,0.23,0.14,0.46,0.19,0.7c0.46,1.62-2.73-0.14-4.57-1.34C466.73,65.19,467.16,65.03,467.59,64.8z M473.21,64.94
			c1.13-0.03,0.91,1.88,1.89,2.37c0.19,0.18,0.41,0.33,0.65,0.45c-0.61,0.43-1.67,0.58-2.39-0.03c-0.8-0.65-1.19-1.44-1.45-2.26
			c0.09-0.05,0.18-0.1,0.27-0.16C472.62,65.06,472.95,64.94,473.21,64.94L473.21,64.94z M501.74,65.05
			c-0.46,0.02-0.86,0.37-0.84,0.74c0.04,0.97-0.2,1.53-0.14,3.59c0.01,0.32,0.32,0.63,0.71,0.69c1.41,0.23,3.89,0.3,4.79,0.26
			c0.45-0.02,0.7-0.29,0.79-0.42c0.09-0.13,0.12-0.22,0.14-0.31c0.05-0.18,0.06-0.35,0.07-0.54c0.02-0.39-0.01-0.86-0.06-1.33
			c-0.04-0.48-0.11-0.95-0.19-1.33c-0.04-0.19-0.07-0.35-0.13-0.51c-0.03-0.08-0.06-0.15-0.13-0.26c-0.04-0.05-0.08-0.12-0.18-0.2
			c-0.1-0.08-0.3-0.2-0.58-0.22c-0.01,0-0.01,0-0.02,0l-4.13-0.16C501.8,65.05,501.77,65.05,501.74,65.05L501.74,65.05z
			 M263.08,65.52c-2.82,0.07-3.62,0.32-4.97,0.34c-0.45,0.01-0.85,0.33-0.87,0.69l-0.18,3.78c0,0.01,0,0.01,0,0.02
			c0,0.23,0.14,0.42,0.25,0.52s0.2,0.14,0.27,0.17c0.15,0.06,0.25,0.09,0.35,0.11c0.21,0.04,0.42,0.07,0.68,0.09
			c0.51,0.05,1.15,0.09,1.8,0.1c0.65,0.01,1.3,0,1.83-0.03c0.27-0.02,0.49-0.04,0.73-0.09c0.12-0.02,0.23-0.05,0.39-0.13
			c0.16-0.07,0.44-0.23,0.5-0.58c0.14-0.8,0.29-3.08,0.12-4.36C263.94,65.81,263.52,65.51,263.08,65.52L263.08,65.52z M269.97,65.7
			c-0.72,0.01-1.59,0.07-2.33,0.15c-0.37,0.04-0.69,0.09-0.97,0.14c-0.14,0.03-0.26,0.05-0.4,0.1c-0.07,0.03-0.15,0.05-0.27,0.13
			c-0.12,0.08-0.34,0.24-0.35,0.56c0,0.01,0,0.01,0,0.02l-0.07,3.37c-0.01,0.39,0.44,0.75,0.92,0.73c1.19-0.04,1.89,0.14,4.41,0.08
			c0.41-0.01,0.78-0.28,0.85-0.6c0.24-1.15,0.24-3.16,0.17-3.9c-0.02-0.23-0.18-0.42-0.31-0.51c-0.13-0.09-0.24-0.13-0.33-0.16
			c-0.18-0.06-0.3-0.07-0.43-0.09C270.58,65.69,270.29,65.69,269.97,65.7z M344.04,65.88c0.15,1.11,0,3.53-0.11,4.18
			c-0.06,0.36-5.05,0.21-5.05-0.06l0.18-3.78C340.52,66.19,341.28,65.95,344.04,65.88z M254.8,65.89c-0.71,0-1.71,0.11-2.62,0.25
			c-0.46,0.07-0.87,0.15-1.21,0.23c-0.17,0.04-0.31,0.08-0.47,0.13c-0.08,0.03-0.16,0.06-0.28,0.13c-0.12,0.08-0.37,0.23-0.37,0.61
			c0,0.01,0,0.01,0,0.02l0.16,3.35c0.02,0.4,0.51,0.73,0.99,0.69c1.19-0.11,1.91,0.03,4.42-0.19c0.4-0.03,0.74-0.31,0.79-0.63
			c0.16-1.16,0.03-3.16-0.1-3.89c-0.05-0.28-0.29-0.47-0.44-0.55s-0.26-0.1-0.36-0.12C255.11,65.89,254.97,65.89,254.8,65.89
			L254.8,65.89z M511.62,66c-0.46,0.02-0.86,0.37-0.84,0.74c0.04,1.1-0.22,1.73-0.17,4.03c0.01,0.32,0.32,0.63,0.71,0.69
			c1.56,0.25,4.36,0.33,5.35,0.29c0.45-0.02,0.71-0.29,0.8-0.43c0.09-0.14,0.11-0.23,0.14-0.33c0.05-0.19,0.07-0.38,0.08-0.59
			c0.02-0.43-0.01-0.96-0.06-1.49c-0.05-0.53-0.12-1.06-0.21-1.48c-0.04-0.21-0.09-0.39-0.15-0.56c-0.03-0.08-0.06-0.16-0.14-0.27
			c-0.04-0.05-0.08-0.12-0.19-0.2c-0.1-0.08-0.29-0.2-0.58-0.22c-0.01,0-0.01,0-0.02,0L511.71,66C511.68,66,511.65,66,511.62,66
			L511.62,66z M350.91,66.05c0.6-0.01,1.05,0.03,1.06,0.13c0.06,0.57,0.04,2.73-0.16,3.72c-2.46,0.06-3.12-0.13-4.42-0.08l0.07-3.37
			C347.47,66.28,349.58,66.07,350.91,66.05z M247.27,66.18c-2.56,0.06-3.29,0.29-4.5,0.31c-0.45,0.01-0.85,0.33-0.87,0.69
			l-0.16,3.42c0,0.01,0,0.01,0,0.02c0,0.23,0.14,0.42,0.25,0.52c0.11,0.1,0.19,0.14,0.27,0.17c0.14,0.06,0.24,0.08,0.34,0.1
			c0.2,0.04,0.4,0.07,0.63,0.09c0.47,0.05,1.05,0.07,1.64,0.09c0.59,0.01,1.18,0.01,1.67-0.02c0.24-0.02,0.45-0.04,0.67-0.09
			c0.11-0.02,0.22-0.05,0.38-0.12c0.15-0.07,0.43-0.23,0.49-0.58c0.13-0.74,0.27-2.79,0.11-3.96
			C248.13,66.46,247.71,66.17,247.27,66.18z M335.73,66.24c0.26,0,0.43,0.03,0.44,0.09c0.1,0.57,0.23,2.71,0.09,3.71
			c-2.46,0.21-3.13,0.06-4.43,0.19l-0.16-3.35C331.66,66.68,334.6,66.24,335.73,66.24z M139.49,66.47c0.15,1.11,0,3.53-0.11,4.18
			c-0.06,0.36-5.05,0.22-5.05-0.05l0.18-3.78C135.97,66.79,136.73,66.54,139.49,66.47L139.49,66.47z M502.63,66.53l2.64,0.1v0
			c0.06,0.31,0.13,0.75,0.17,1.19c0.04,0.39,0.05,0.76,0.04,1.05c-0.79-0.01-1.93-0.06-2.93-0.16
			C502.56,67.8,502.59,67.09,502.63,66.53L502.63,66.53z M328.22,66.53c0.14,1,0,3.19-0.1,3.78c-0.06,0.32-4.57,0.19-4.57-0.05
			l0.16-3.42C325.04,66.82,325.73,66.6,328.22,66.53z M262.27,67c0.03,0.98-0.04,2.22-0.11,2.88c-0.02,0-0.02,0-0.04,0
			c-0.42,0.03-1.03,0.03-1.63,0.02c-0.59-0.01-1.19-0.04-1.61-0.09l0.12-2.59C259.89,67.17,260.77,67.07,262.27,67L262.27,67z
			 M269.99,67.13c0.07,0,0.1,0,0.16,0c0.01,0.64-0.01,1.58-0.1,2.4c-1.13,0-2-0.03-2.7-0.05l0.04-2.15
			c0.15-0.02,0.28-0.05,0.48-0.07C268.54,67.2,269.38,67.14,269.99,67.13L269.99,67.13z M254.39,67.36
			c0.06,0.65,0.09,1.56,0.06,2.36c-1.14,0.07-2.01,0.1-2.71,0.12l-0.1-2.13c0.24-0.05,0.52-0.1,0.86-0.16
			C253.2,67.45,253.89,67.39,254.39,67.36z M512.51,67.47l3.15,0.12c0.01,0.03,0.01,0.04,0.02,0.08c0.07,0.35,0.14,0.85,0.18,1.35
			c0.04,0.48,0.07,0.94,0.06,1.28c-0.89-0.01-2.37-0.07-3.53-0.19C512.4,68.9,512.47,68.18,512.51,67.47L512.51,67.47z
			 M246.42,67.67c0.02,0.86-0.01,1.84-0.07,2.45c-0.38,0.02-0.9,0.03-1.43,0.02c-0.51-0.01-1-0.04-1.37-0.07l0.11-2.21
			C244.38,67.8,245.27,67.74,246.42,67.67L246.42,67.67z M129.42,68.39c1.08-0.02,2.05,0.12,2.08,0.5c0.09,1.31,0.21,5.66,0.16,8.66
			c-1.69-0.02-3.37-0.04-5.06-0.05l-0.14-8.43C126.45,68.7,128.03,68.42,129.42,68.39z M426.22,70.38c0.09,0,0.19,0,0.31,0
			c0.81,0.01,1.77,0.03,2.7,0.03c0.43,0,0.7,0.04,1.06,0.06c0.05,2.63-0.02,4.16-0.07,5.53c-1.48-0.03-2.96-0.05-4.44-0.07
			c-0.05-0.6-0.11-1.23-0.14-1.86c-0.07-1.12-0.1-2.23-0.09-3.04c0-0.27,0.02-0.42,0.03-0.61C425.8,70.4,425.96,70.38,426.22,70.38
			L426.22,70.38z M180.55,70.57c0.72,0,1.39,0.03,1.89,0.11c0.11,4.17-0.12,5.6-0.09,7.66c-1.87-0.03-3.74-0.06-5.61-0.09
			c-0.33-2.19-0.61-7.31-0.22-7.39C177.14,70.73,178.96,70.57,180.55,70.57z M77.14,70.6c-2.82,0.07-3.63,0.32-4.97,0.34
			c-0.45,0.01-0.85,0.33-0.87,0.69l-0.18,3.78c0,0.01,0,0.01,0,0.02c0,0.23,0.14,0.42,0.25,0.52c0.11,0.1,0.2,0.14,0.28,0.17
			c0.15,0.06,0.24,0.09,0.35,0.11c0.21,0.04,0.43,0.07,0.69,0.09c0.51,0.05,1.15,0.08,1.8,0.09c0.65,0.01,1.3,0.01,1.83-0.03
			c0.27-0.02,0.49-0.04,0.73-0.09c0.12-0.02,0.23-0.05,0.39-0.12c0.16-0.07,0.44-0.24,0.5-0.59c0.14-0.8,0.29-3.08,0.11-4.36
			C78,70.88,77.58,70.59,77.14,70.6L77.14,70.6z M171.18,70.65c0.72,0,1.39,0.03,1.89,0.11c0.11,4.01-0.1,5.49-0.1,7.42
			c-1.88-0.03-3.76-0.06-5.64-0.09c-0.31-2.31-0.56-7.07-0.18-7.15C167.78,70.82,169.59,70.66,171.18,70.65z M63.94,70.8
			c0.48-0.01,0.93,0.03,1.18,0.08c0.08,1.25,0.17,4.59,0.16,7.32c-1.11,0.04-2.22,0.09-3.32,0.13l-0.12-7.26
			c0.09-0.03,0.15-0.05,0.3-0.09C62.61,70.88,63.31,70.81,63.94,70.8z M495.38,70.93c-0.24,0-0.45,0.09-0.56,0.16
			c-0.13,0.08-0.19,0.15-0.23,0.2c-0.09,0.11-0.12,0.2-0.16,0.28c-0.07,0.17-0.12,0.34-0.18,0.54c-0.11,0.41-0.2,0.93-0.27,1.45
			c-0.07,0.52-0.12,1.05-0.12,1.48c0,0.22,0,0.4,0.04,0.59c0.02,0.1,0.04,0.19,0.12,0.32c0.08,0.13,0.25,0.38,0.68,0.46
			c0.9,0.17,3.09,0.45,4.63,0.42c0.44-0.01,0.84-0.32,0.86-0.68c0.15-2.16,0.6-2.68,0.71-3.99c0.03-0.36-0.33-0.72-0.78-0.76
			l-4.63-0.47c-0.01,0-0.01,0-0.02,0C495.45,70.93,495.42,70.93,495.38,70.93L495.38,70.93z M76.32,72.07
			c0.03,0.98-0.04,2.22-0.11,2.88c-0.02,0-0.02,0-0.04,0c-0.42,0.03-1.03,0.04-1.64,0.03c-0.59-0.01-1.19-0.04-1.61-0.09l0.12-2.59
			C73.95,72.25,74.83,72.15,76.32,72.07z M495.98,72.43l3.05,0.31c-0.15,0.63-0.37,1.36-0.51,2.62c-1.03-0.05-2.13-0.15-2.88-0.26
			c0-0.02,0-0.02,0-0.04c0-0.34,0.04-0.84,0.11-1.32C495.81,73.24,495.89,72.77,495.98,72.43L495.98,72.43z M512.19,72.43
			c-0.11,0-0.21,0.02-0.31,0.05c-0.08,0.02-0.15,0.05-0.22,0.09c-0.02,0.01-0.05,0.02-0.07,0.03c-0.13,0.09-0.19,0.16-0.23,0.22
			c-0.08,0.12-0.11,0.19-0.13,0.27c-0.05,0.16-0.09,0.32-0.12,0.5c-0.06,0.37-0.1,0.84-0.12,1.31c-0.02,0.47-0.01,0.94,0.02,1.33
			c0.02,0.2,0.04,0.36,0.09,0.54c0.03,0.09,0.06,0.17,0.13,0.29c0.08,0.12,0.23,0.34,0.65,0.42c0.85,0.16,3.02,0.42,4.43,0.39
			c0.44-0.01,0.84-0.32,0.86-0.68c0.14-2.04-0.07-2.64,0.01-3.6c0.03-0.36-0.33-0.72-0.78-0.76l-4.12-0.41v0c-0.01,0-0.01,0-0.02,0
			c-0.03,0-0.06,0.01-0.09,0.01V72.43z M292.62,72.45c0.67,0,1.3,0.02,1.76,0.1c0.08,2.9-0.03,4.37-0.08,5.73
			c-1.78,0.05-3.57,0.1-5.37,0.14c-0.23-2.28-0.36-5.64-0.06-5.7C289.46,72.6,291.15,72.45,292.62,72.45L292.62,72.45z M340.33,72.6
			c0.67,0,1.3,0.02,1.76,0.1c0.04,1.44,0.03,2.51,0.01,3.41c-1.87,0.05-3.74,0.11-5.63,0.17c-0.1-1.75-0.1-3.36,0.11-3.41
			C337.17,72.75,338.86,72.61,340.33,72.6L340.33,72.6z M503.38,73.46l3.04,0.44c-0.14,1.73-0.15,3.1-0.3,5.44
			c-1.17-0.06-2.35-0.13-3.52-0.19c0.07-0.69,0.15-1.43,0.24-2.15c0.14-1.11,0.29-2.18,0.43-2.96
			C503.3,73.79,503.34,73.64,503.38,73.46L503.38,73.46z M259.4,73.68c0.35,0,0.58,0.03,0.87,0.04c0.04,2.38-0.04,3.73-0.08,4.99
			c-1.2,0-2.41,0-3.62-0.01c-0.08-0.8-0.14-1.71-0.18-2.56c-0.03-0.77-0.05-1.48-0.03-1.99c0.01-0.13,0.02-0.19,0.03-0.28
			C257.07,73.79,258.27,73.69,259.4,73.68L259.4,73.68z M512.86,73.94l2.57,0.26c0.01,0.58,0.01,1.3-0.01,2.2
			c-0.96-0.05-1.97-0.15-2.64-0.24c0-0.01,0-0.01-0.01-0.02c-0.03-0.3-0.03-0.74-0.02-1.18C512.78,74.58,512.82,74.23,512.86,73.94
			L512.86,73.94z"/>
		<rect x="11.02" y="-14" class="st2" width="591.6" height="99.01"/>
	</g>
</g>
<path d="M9,83.42"/>
</svg>
