<svg xmlns="http://www.w3.org/2000/svg" viewBox="0 0 63.68 20.61"><defs><style>.cls-1{isolation:isolate;}.cls-2,.cls-6,.cls-8{fill:#fff;}.cls-3{fill:#dcdad9;}.cls-4{mix-blend-mode:multiply;opacity:0.15;}.cls-5,.cls-6{font-size:5.38px;letter-spacing:0.2em;}.cls-5,.cls-6,.cls-7,.cls-8{font-family:CenturyGothicPro, Century Gothic Pro;}.cls-7,.cls-8{font-size:7.69px;}</style></defs><g class="cls-1"><g id="Layer_1" data-name="Layer 1"><path class="cls-2" d="M16.26,10.7A8.76,8.76,0,0,1,18,16.15a8.51,8.51,0,0,1-1.81,5.46,6.09,6.09,0,0,1-1.82,1.49,8.8,8.8,0,0,0,2.34,1,9.78,9.78,0,0,0,3.44-7.94A10.22,10.22,0,0,0,16.53,7.9a8.36,8.36,0,0,0-2.33,1A6.85,6.85,0,0,1,16.26,10.7Z" transform="translate(-2.74 -5.59)"/><path class="cls-2" d="M7.85,24.19h-3V7.6h2.1A22.28,22.28,0,0,1,12,8.06a10.24,10.24,0,0,1,2.35-1.47l-.11,0a16.33,16.33,0,0,0-6.4-1H2.74V26.2H10a12,12,0,0,0,4.56-.83,9.87,9.87,0,0,1-2.43-1.48A23.06,23.06,0,0,1,7.85,24.19Z" transform="translate(-2.74 -5.59)"/><path class="cls-2" d="M19,7.52a8.47,8.47,0,0,1,7,3.39l1.56-1.18A10.18,10.18,0,0,0,19,5.6a11.22,11.22,0,0,0-4.63,1A9.28,9.28,0,0,1,16.53,7.9,8.79,8.79,0,0,1,19,7.52Z" transform="translate(-2.74 -5.59)"/><path class="cls-2" d="M10.44,16A8.24,8.24,0,0,1,14.2,8.91,8.83,8.83,0,0,0,12,8.06a9.9,9.9,0,0,0-3.6,7.75,10.19,10.19,0,0,0,3.69,8.08,8,8,0,0,0,2.28-.79A8.15,8.15,0,0,1,10.44,16Z" transform="translate(-2.74 -5.59)"/><path class="cls-2" d="M19.11,24.4a9.41,9.41,0,0,1-2.41-.34,9,9,0,0,1-2.19,1.31A11.82,11.82,0,0,0,19,26.2a10.55,10.55,0,0,0,8.59-3.88L26,21.14A8.82,8.82,0,0,1,19.11,24.4Z" transform="translate(-2.74 -5.59)"/><path class="cls-2" d="M14.36,23.1a8,8,0,0,1-2.28.79,9.87,9.87,0,0,0,2.43,1.48,9,9,0,0,0,2.19-1.31A8.8,8.8,0,0,1,14.36,23.1Z" transform="translate(-2.74 -5.59)"/><path class="cls-2" d="M14.2,8.91a9.84,9.84,0,0,1,2.33-1,9.28,9.28,0,0,0-2.19-1.31A10.24,10.24,0,0,0,12,8.06,8.83,8.83,0,0,1,14.2,8.91Z" transform="translate(-2.74 -5.59)"/><polygon class="cls-3" points="11.68 19.81 11.75 19.77 11.98 19.86 11.97 19.93 11.68 19.81"/><g class="cls-4"><text class="cls-5" transform="translate(26.38 15.9)">consulting</text></g><text class="cls-6" transform="translate(26.22 15.73)">consulting</text><g class="cls-4"><text class="cls-7" transform="translate(26.06 9.58)">municipal</text></g><text class="cls-8" transform="translate(25.92 9.43)">municipal</text></g></g></svg>