<?xml version="1.0" encoding="utf-8"?>
<!-- Generator: Adobe Illustrator 25.4.1, SVG Export Plug-In . SVG Version: 6.00 Build 0)  -->
<svg version="1.1" id="Layer_1" xmlns="http://www.w3.org/2000/svg" xmlns:xlink="http://www.w3.org/1999/xlink" x="0px" y="0px"
	 viewBox="0 0 67.37 31.23" style="enable-background:new 0 0 67.37 31.23;" xml:space="preserve">
<style type="text/css">
	.st0{fill:none;}
	.st1{fill:#BE1E2D;}
	.st2{opacity:0.15;}
	.st3{fill:#F7941D;}
	.st4{fill:#EF4136;}
	.st5{fill:#DCDAD9;}
	.st6{fill:#6D6E71;}
</style>
<g>
	<g>
		<path class="st0" d="M8.39,15.81c0-3.18,1.38-5.9,3.6-7.74C10.56,7.72,8.89,7.6,6.91,7.6h-2.1v16.59h3.04
			c1.63,0,3.01-0.07,4.22-0.3C9.73,21.99,8.39,19.1,8.39,15.81z"/>
		<path class="st0" d="M17.99,16.15c0-2.1-0.57-3.96-1.72-5.45c-0.59-0.77-1.28-1.34-2.06-1.79c-2.25,1.46-3.76,3.96-3.76,7.06
			c0,3.11,1.53,5.68,3.92,7.13c0.67-0.37,1.28-0.84,1.82-1.5C17.35,20.17,17.99,18.3,17.99,16.15z"/>
		<path class="st1" d="M16.26,10.7c1.15,1.49,1.72,3.36,1.72,5.45c0,2.15-0.63,4.02-1.81,5.45c-0.53,0.65-1.14,1.13-1.82,1.5
			c0.71,0.43,1.5,0.74,2.34,0.96c2.24-1.79,3.44-4.57,3.44-7.93c0-3.49-1.32-6.39-3.61-8.23c-0.83,0.24-1.62,0.56-2.33,1.01
			C14.98,9.36,15.67,9.93,16.26,10.7z"/>
		<g>
			<g class="st2">
				<path d="M7.97,24.31H4.93V7.71h2.1c1.99,0,3.65,0.12,5.08,0.46c0.7-0.59,1.49-1.08,2.35-1.47c-0.04-0.02-0.07-0.04-0.11-0.05
					c-2.04-0.83-4.13-0.95-6.4-0.95H2.86v20.61h7.21c1.74,0,3.25-0.3,4.56-0.83c-0.91-0.37-1.7-0.89-2.43-1.48
					C10.99,24.24,9.6,24.31,7.97,24.31z"/>
			</g>
			<g>
				<path class="st3" d="M7.85,24.19H4.81V7.6h2.1c1.99,0,3.65,0.12,5.08,0.46c0.7-0.59,1.49-1.08,2.35-1.47
					c-0.04-0.02-0.07-0.04-0.11-0.05c-2.04-0.83-4.13-0.95-6.4-0.95H2.74V26.2h7.21c1.74,0,3.25-0.3,4.56-0.83
					c-0.91-0.37-1.7-0.89-2.43-1.48C10.87,24.12,9.48,24.19,7.85,24.19z"/>
			</g>
		</g>
		<g>
			<g class="st2">
				<path d="M19.12,7.63c2.82,0,5.28,1.12,7,3.39l1.56-1.18c-1.94-2.71-4.98-4.13-8.59-4.13c-1.7,0-3.25,0.37-4.64,0.99
					c0.81,0.34,1.54,0.78,2.19,1.3C17.44,7.79,18.26,7.63,19.12,7.63z"/>
			</g>
			<g>
				<path class="st4" d="M19,7.52c2.82,0,5.28,1.12,7,3.39l1.56-1.18c-1.94-2.71-4.98-4.13-8.59-4.13c-1.7,0-3.25,0.37-4.64,0.99
					c0.81,0.34,1.54,0.78,2.19,1.3C17.32,7.67,18.14,7.52,19,7.52z"/>
			</g>
		</g>
		<path class="st1" d="M10.44,15.97c0-3.11,1.51-5.61,3.76-7.06c-0.66-0.38-1.4-0.65-2.21-0.85c-2.22,1.84-3.6,4.57-3.6,7.74
			c0,3.29,1.35,6.18,3.69,8.08c0.85-0.16,1.6-0.41,2.28-0.78C11.97,21.65,10.44,19.09,10.44,15.97z"/>
		<g>
			<g class="st2">
				<path d="M19.23,24.51c-0.85,0-1.65-0.14-2.41-0.34c-0.65,0.52-1.36,0.97-2.19,1.31c1.31,0.54,2.81,0.84,4.47,0.84
					c3.58,0,6.57-1.34,8.59-3.89l-1.56-1.18C24.29,23.39,21.96,24.51,19.23,24.51z"/>
			</g>
			<g>
				<path class="st4" d="M19.11,24.4c-0.85,0-1.65-0.14-2.41-0.34c-0.65,0.52-1.36,0.97-2.19,1.31c1.31,0.54,2.81,0.84,4.47,0.84
					c3.58,0,6.57-1.34,8.59-3.89L26,21.14C24.17,23.27,21.84,24.4,19.11,24.4z"/>
			</g>
		</g>
		<path class="st1" d="M14.36,23.1c-0.68,0.37-1.43,0.62-2.28,0.78c0.72,0.59,1.51,1.11,2.43,1.48c0.83-0.34,1.54-0.79,2.19-1.31
			C15.86,23.84,15.07,23.53,14.36,23.1z"/>
		<path class="st1" d="M14.2,8.91c0.73-0.45,1.51-0.76,2.33-1.01c-0.66-0.53-1.39-0.97-2.19-1.3c-0.87,0.39-1.65,0.88-2.35,1.47
			C12.8,8.26,13.54,8.54,14.2,8.91z"/>
	</g>
	<polygon class="st5" points="14.42,25.4 14.5,25.36 14.72,25.45 14.71,25.52 	"/>
</g>
<g>
	<g>
		<g class="st2">
			<path d="M32.31,20.91c-0.28,0.43-0.76,0.65-1.34,0.65c-0.94,0-1.57-0.68-1.57-1.48c0-0.84,0.66-1.53,1.6-1.53
				c0.55,0,1.05,0.23,1.31,0.67l-0.3,0.18c-0.25-0.33-0.6-0.5-1.03-0.5c-0.73,0-1.21,0.53-1.21,1.15c0,0.62,0.47,1.17,1.21,1.17
				c0.42,0,0.76-0.17,1.03-0.5L32.31,20.91z"/>
			<path d="M36.94,20.07c0,0.81-0.63,1.5-1.49,1.5c-0.86,0-1.49-0.68-1.49-1.5c0-0.82,0.64-1.51,1.49-1.51S36.94,19.25,36.94,20.07z
				 M34.33,20.07c0,0.62,0.47,1.14,1.12,1.14c0.64,0,1.12-0.51,1.12-1.14c0-0.63-0.51-1.16-1.12-1.16
				C34.83,18.91,34.33,19.44,34.33,20.07z"/>
			<path d="M39.06,19.14c0.3-0.39,0.65-0.59,1.07-0.59c0.62,0,1.06,0.43,1.06,1.33v1.61h-0.37v-1.56c0-0.67-0.21-1.04-0.76-1.04
				c-0.31,0-0.56,0.13-0.75,0.39c-0.22,0.28-0.25,0.56-0.25,1.01v1.2h-0.37v-2.86h0.37V19.14z"/>
			<path d="M43.02,20.89c0.18,0.2,0.38,0.32,0.6,0.32c0.28,0,0.53-0.2,0.53-0.47c0-0.17-0.1-0.32-0.24-0.4
				c-0.66-0.37-0.99-0.52-0.99-1.02c0-0.45,0.35-0.76,0.79-0.76c0.31,0,0.55,0.15,0.79,0.39l-0.24,0.24
				c-0.17-0.17-0.34-0.27-0.58-0.27c-0.24,0-0.43,0.17-0.43,0.38c0,0.15,0.09,0.31,0.22,0.38c0.66,0.38,1.02,0.53,1.02,1.04
				c0,0.45-0.34,0.85-0.86,0.85c-0.32,0-0.64-0.15-0.85-0.41L43.02,20.89z"/>
			<path d="M48.3,18.63h0.39v1.48c0,0.96-0.44,1.45-1.25,1.45c-0.82,0-1.26-0.49-1.26-1.45v-1.48h0.39v1.4c0,0.3,0,0.55,0.08,0.72
				c0.13,0.29,0.43,0.46,0.79,0.46c0.26,0,0.5-0.1,0.65-0.25c0.23-0.24,0.22-0.52,0.22-0.93V18.63z"/>
			<path d="M50.51,17.52h0.37v3.96h-0.37V17.52z"/>
			<path d="M53.05,17.56h0.37v1.07H54v0.32h-0.59v2.54h-0.37v-2.54h-0.51v-0.32h0.51V17.56z"/>
			<path d="M56.06,17.75c0,0.17-0.14,0.31-0.31,0.31s-0.3-0.14-0.3-0.31c0-0.17,0.14-0.3,0.3-0.3
				C55.92,17.45,56.06,17.58,56.06,17.75z M55.57,18.63h0.37v2.86h-0.37V18.63z"/>
			<path d="M58.14,19.14c0.3-0.39,0.65-0.59,1.07-0.59c0.62,0,1.06,0.43,1.06,1.33v1.61h-0.37v-1.56c0-0.67-0.21-1.04-0.76-1.04
				c-0.31,0-0.56,0.13-0.75,0.39c-0.22,0.28-0.25,0.56-0.25,1.01v1.2h-0.37v-2.86h0.37V19.14z"/>
			<path d="M64.97,20.9c0,0.47-0.03,0.86-0.26,1.17c-0.24,0.33-0.67,0.52-1.21,0.52c-0.82,0-1.22-0.33-1.48-0.89h0.4
				c0.22,0.38,0.55,0.55,1.06,0.55c0.47,0,0.82-0.17,1-0.49c0.11-0.2,0.12-0.4,0.12-0.62v-0.22c-0.29,0.36-0.7,0.54-1.15,0.54
				c-0.79,0-1.47-0.6-1.47-1.45c0-0.85,0.71-1.49,1.47-1.49c0.51,0,0.84,0.22,1.15,0.57v-0.5h0.37V20.9z M62.37,20.06
				c0,0.57,0.4,1.07,1.16,1.07c0.63,0,1.09-0.43,1.09-1.1c0-0.69-0.51-1.13-1.1-1.13C62.87,18.91,62.37,19.4,62.37,20.06z"/>
		</g>
		<g>
			<g>
				<path class="st6" d="M32.15,20.75c-0.28,0.43-0.76,0.65-1.34,0.65c-0.94,0-1.57-0.68-1.57-1.48c0-0.84,0.66-1.53,1.6-1.53
					c0.55,0,1.05,0.23,1.31,0.67l-0.3,0.18c-0.25-0.33-0.6-0.5-1.03-0.5c-0.73,0-1.21,0.53-1.21,1.15c0,0.62,0.47,1.17,1.21,1.17
					c0.42,0,0.76-0.17,1.03-0.5L32.15,20.75z"/>
				<path class="st6" d="M36.78,19.9c0,0.81-0.63,1.5-1.49,1.5c-0.86,0-1.49-0.68-1.49-1.5c0-0.82,0.64-1.51,1.49-1.51
					S36.78,19.09,36.78,19.9z M34.17,19.91c0,0.62,0.47,1.14,1.12,1.14c0.64,0,1.12-0.51,1.12-1.14c0-0.63-0.51-1.16-1.12-1.16
					C34.67,18.75,34.17,19.27,34.17,19.91z"/>
				<path class="st6" d="M38.9,18.98c0.3-0.39,0.65-0.59,1.07-0.59c0.62,0,1.06,0.43,1.06,1.33v1.61h-0.37v-1.56
					c0-0.67-0.21-1.04-0.76-1.04c-0.31,0-0.56,0.13-0.75,0.39c-0.22,0.28-0.25,0.56-0.25,1.01v1.2h-0.37v-2.86h0.37V18.98z"/>
				<path class="st6" d="M42.86,20.73c0.18,0.2,0.38,0.32,0.6,0.32c0.28,0,0.53-0.2,0.53-0.47c0-0.17-0.1-0.32-0.24-0.4
					c-0.66-0.37-0.99-0.52-0.99-1.02c0-0.45,0.35-0.76,0.79-0.76c0.31,0,0.55,0.15,0.79,0.39l-0.24,0.24
					c-0.17-0.17-0.34-0.27-0.58-0.27c-0.24,0-0.43,0.17-0.43,0.38c0,0.15,0.09,0.31,0.22,0.38c0.66,0.38,1.02,0.53,1.02,1.04
					c0,0.45-0.34,0.85-0.86,0.85c-0.32,0-0.64-0.15-0.85-0.41L42.86,20.73z"/>
				<path class="st6" d="M48.14,18.47h0.39v1.48c0,0.96-0.44,1.45-1.25,1.45c-0.82,0-1.26-0.49-1.26-1.45v-1.48h0.39v1.4
					c0,0.3,0,0.55,0.08,0.72c0.13,0.29,0.43,0.46,0.79,0.46c0.26,0,0.5-0.1,0.65-0.25c0.23-0.24,0.22-0.52,0.22-0.93V18.47z"/>
				<path class="st6" d="M50.35,17.36h0.37v3.96h-0.37V17.36z"/>
				<path class="st6" d="M52.89,17.4h0.37v1.07h0.59v0.32h-0.59v2.54h-0.37v-2.54h-0.51v-0.32h0.51V17.4z"/>
				<path class="st6" d="M55.9,17.59c0,0.17-0.14,0.31-0.31,0.31s-0.3-0.14-0.3-0.31c0-0.17,0.14-0.3,0.3-0.3
					C55.76,17.29,55.9,17.42,55.9,17.59z M55.41,18.47h0.37v2.86h-0.37V18.47z"/>
				<path class="st6" d="M57.98,18.98c0.3-0.39,0.65-0.59,1.07-0.59c0.62,0,1.06,0.43,1.06,1.33v1.61h-0.37v-1.56
					c0-0.67-0.21-1.04-0.76-1.04c-0.31,0-0.56,0.13-0.75,0.39c-0.22,0.28-0.25,0.56-0.25,1.01v1.2h-0.37v-2.86h0.37V18.98z"/>
				<path class="st6" d="M64.81,20.74c0,0.47-0.03,0.86-0.26,1.17c-0.24,0.33-0.67,0.52-1.21,0.52c-0.82,0-1.22-0.33-1.48-0.89h0.4
					c0.22,0.38,0.55,0.55,1.06,0.55c0.47,0,0.82-0.17,1-0.49c0.11-0.2,0.12-0.4,0.12-0.62v-0.22c-0.29,0.36-0.7,0.54-1.15,0.54
					c-0.79,0-1.47-0.6-1.47-1.45c0-0.85,0.71-1.49,1.47-1.49c0.51,0,0.84,0.22,1.15,0.57v-0.5h0.37V20.74z M62.21,19.9
					c0,0.57,0.4,1.07,1.16,1.07c0.62,0,1.09-0.43,1.09-1.1c0-0.69-0.51-1.13-1.1-1.13C62.71,18.75,62.21,19.24,62.21,19.9z"/>
			</g>
		</g>
	</g>
	<g>
		<g class="st2">
			<path d="M32.69,15.17h-0.52v-2.09c0-0.32-0.03-0.58-0.04-0.76c-0.02-0.45-0.38-0.83-0.92-0.83c-0.36,0-0.72,0.18-0.95,0.48
				c-0.29,0.38-0.35,0.86-0.35,1.48v1.73h-0.52v-4.08h0.52v0.7c0.36-0.52,0.82-0.81,1.4-0.81c0.62,0,1.07,0.32,1.29,0.98
				c0.36-0.65,0.9-0.98,1.5-0.98c0.85,0,1.39,0.61,1.39,1.77v2.42h-0.52v-2.23c0-0.3-0.04-0.54-0.05-0.69
				c-0.02-0.36-0.37-0.76-0.92-0.76c-0.51,0-0.95,0.31-1.16,0.83c-0.13,0.33-0.15,0.69-0.15,1.07V15.17z"/>
			<path d="M39.57,11.08h0.55v2.12c0,1.38-0.62,2.07-1.79,2.07s-1.8-0.69-1.8-2.07v-2.12h0.55v1.99c0,0.43,0,0.78,0.12,1.03
				c0.19,0.42,0.62,0.65,1.13,0.65c0.38,0,0.71-0.14,0.92-0.36c0.32-0.35,0.32-0.74,0.32-1.32V11.08z"/>
			<path d="M41.8,11.81c0.42-0.55,0.93-0.84,1.53-0.84c0.89,0,1.51,0.62,1.51,1.9v2.29h-0.52v-2.22c0-0.96-0.3-1.49-1.09-1.49
				c-0.44,0-0.8,0.19-1.08,0.55c-0.31,0.4-0.35,0.8-0.35,1.45v1.71h-0.52v-4.08h0.52V11.81z"/>
			<path d="M46.59,9.83c0,0.24-0.2,0.44-0.44,0.44c-0.24,0-0.43-0.2-0.43-0.44c0-0.25,0.2-0.43,0.43-0.43
				C46.39,9.4,46.59,9.59,46.59,9.83z M45.9,11.08h0.52v4.08H45.9V11.08z"/>
			<path d="M51.48,14.34c-0.4,0.61-1.09,0.92-1.92,0.92c-1.35,0-2.25-0.97-2.25-2.11c0-1.2,0.94-2.18,2.28-2.18
				c0.78,0,1.5,0.32,1.88,0.95l-0.42,0.26c-0.36-0.48-0.86-0.71-1.48-0.71c-1.04,0-1.72,0.76-1.72,1.64c0,0.89,0.68,1.67,1.73,1.67
				c0.59,0,1.08-0.24,1.47-0.71L51.48,14.34z"/>
			<path d="M53.11,9.83c0,0.24-0.2,0.44-0.44,0.44c-0.24,0-0.43-0.2-0.43-0.44c0-0.25,0.2-0.43,0.43-0.43
				C52.91,9.4,53.11,9.59,53.11,9.83z M52.41,11.08h0.52v4.08h-0.52V11.08z"/>
			<path d="M54.55,11.83c0.41-0.57,0.97-0.85,1.62-0.85c1.19,0,2.12,0.98,2.12,2.14s-0.9,2.15-2.1,2.15c-0.64,0-1.19-0.26-1.64-0.8
				v2.19h-0.52v-5.58h0.52V11.83z M54.51,13.14c0,1.01,0.78,1.65,1.62,1.65c0.91,0,1.62-0.77,1.62-1.66c0-0.88-0.68-1.65-1.62-1.65
				C55.22,11.48,54.51,12.2,54.51,13.14z"/>
			<path d="M62.82,11.08h0.51v4.08h-0.51v-0.7c-0.45,0.54-1.01,0.8-1.65,0.8c-1.19,0-2.09-0.99-2.09-2.15s0.92-2.14,2.11-2.14
				c0.66,0,1.22,0.29,1.63,0.85V11.08z M59.62,13.13c0,0.88,0.69,1.66,1.61,1.66c0.84,0,1.63-0.63,1.63-1.65
				c0-0.95-0.71-1.66-1.62-1.66C60.3,11.48,59.62,12.25,59.62,13.13z"/>
			<path d="M64.44,9.51h0.52v5.66h-0.52V9.51z"/>
		</g>
		<g>
			<g>
				<path class="st6" d="M32.55,15.02h-0.52v-2.09c0-0.32-0.03-0.58-0.04-0.76c-0.02-0.45-0.38-0.83-0.92-0.83
					c-0.36,0-0.72,0.18-0.95,0.48c-0.29,0.38-0.35,0.86-0.35,1.48v1.73h-0.52v-4.08h0.52v0.7c0.36-0.52,0.82-0.81,1.4-0.81
					c0.62,0,1.07,0.32,1.29,0.98c0.36-0.65,0.9-0.98,1.5-0.98c0.85,0,1.39,0.61,1.39,1.77v2.42h-0.52v-2.23
					c0-0.3-0.04-0.54-0.05-0.69c-0.02-0.36-0.37-0.76-0.92-0.76c-0.51,0-0.95,0.31-1.16,0.83c-0.13,0.33-0.15,0.69-0.15,1.07V15.02z
					"/>
				<path class="st6" d="M39.43,10.94h0.55v2.12c0,1.38-0.62,2.07-1.79,2.07s-1.8-0.69-1.8-2.07v-2.12h0.55v1.99
					c0,0.43,0,0.78,0.12,1.03c0.19,0.42,0.62,0.65,1.13,0.65c0.38,0,0.71-0.14,0.92-0.36c0.32-0.35,0.32-0.74,0.32-1.32V10.94z"/>
				<path class="st6" d="M41.66,11.67c0.42-0.55,0.93-0.84,1.53-0.84c0.89,0,1.51,0.62,1.51,1.9v2.29h-0.52V12.8
					c0-0.96-0.3-1.49-1.09-1.49c-0.44,0-0.8,0.19-1.08,0.55c-0.31,0.4-0.35,0.8-0.35,1.45v1.71h-0.52v-4.08h0.52V11.67z"/>
				<path class="st6" d="M46.45,9.69c0,0.24-0.2,0.44-0.44,0.44c-0.24,0-0.43-0.2-0.43-0.44c0-0.25,0.2-0.43,0.43-0.43
					C46.25,9.26,46.45,9.45,46.45,9.69z M45.76,10.94h0.52v4.08h-0.52V10.94z"/>
				<path class="st6" d="M51.33,14.2c-0.4,0.61-1.09,0.92-1.92,0.92c-1.35,0-2.25-0.97-2.25-2.11c0-1.2,0.94-2.18,2.28-2.18
					c0.78,0,1.5,0.32,1.88,0.95l-0.42,0.26c-0.36-0.48-0.86-0.71-1.48-0.71c-1.04,0-1.72,0.76-1.72,1.64c0,0.89,0.68,1.67,1.73,1.67
					c0.59,0,1.08-0.24,1.47-0.71L51.33,14.2z"/>
				<path class="st6" d="M52.96,9.69c0,0.24-0.2,0.44-0.44,0.44c-0.24,0-0.43-0.2-0.43-0.44c0-0.25,0.2-0.43,0.43-0.43
					C52.77,9.26,52.96,9.45,52.96,9.69z M52.27,10.94h0.52v4.08h-0.52V10.94z"/>
				<path class="st6" d="M54.41,11.69c0.41-0.57,0.97-0.85,1.62-0.85c1.19,0,2.12,0.98,2.12,2.14s-0.9,2.15-2.1,2.15
					c-0.64,0-1.19-0.26-1.64-0.8v2.19h-0.52v-5.58h0.52V11.69z M54.37,13c0,1.01,0.78,1.65,1.62,1.65c0.91,0,1.62-0.77,1.62-1.66
					c0-0.88-0.68-1.65-1.62-1.65C55.08,11.34,54.37,12.06,54.37,13z"/>
				<path class="st6" d="M62.68,10.94h0.51v4.08h-0.51v-0.7c-0.45,0.54-1.01,0.8-1.65,0.8c-1.19,0-2.09-0.99-2.09-2.15
					s0.92-2.14,2.11-2.14c0.66,0,1.22,0.29,1.63,0.85V10.94z M59.48,12.99c0,0.88,0.69,1.66,1.61,1.66c0.84,0,1.63-0.63,1.63-1.65
					c0-0.95-0.71-1.66-1.62-1.66C60.16,11.34,59.48,12.11,59.48,12.99z"/>
				<path class="st6" d="M64.3,9.36h0.52v5.66H64.3V9.36z"/>
			</g>
		</g>
	</g>
</g>
</svg>
