<?xml version="1.0" encoding="utf-8"?>
<!-- Generator: Adobe Illustrator 25.4.1, SVG Export Plug-In . SVG Version: 6.00 Build 0)  -->
<svg version="1.1" id="Layer_1" xmlns="http://www.w3.org/2000/svg" xmlns:xlink="http://www.w3.org/1999/xlink" x="0px" y="0px"
	 viewBox="0 0 126.43 123.67" style="enable-background:new 0 0 126.43 123.67;" xml:space="preserve">
<style type="text/css">
	.st0{opacity:0.15;}
	.st1{fill:#6D6E71;}
	.st2{fill:none;}
	.st3{fill:#BE1E2D;}
	.st4{fill:#F7941D;}
	.st5{fill:#EF4136;}
	.st6{fill:#DCDAD9;}
</style>
<g>
	<g class="st0">
		<path d="M23.23,105.94c-0.76,1.15-2.07,1.75-3.63,1.75c-2.55,0-4.25-1.84-4.25-3.99c0-2.27,1.78-4.14,4.33-4.14
			c1.49,0,2.84,0.61,3.56,1.81l-0.8,0.5c-0.69-0.9-1.63-1.34-2.8-1.34c-1.97,0-3.26,1.44-3.26,3.1c0,1.69,1.28,3.16,3.28,3.16
			c1.12,0,2.05-0.45,2.78-1.36L23.23,105.94z"/>
		<path d="M35.76,103.65c0,2.2-1.7,4.05-4.04,4.05s-4.04-1.85-4.04-4.05c0-2.21,1.72-4.09,4.04-4.09S35.76,101.43,35.76,103.65z
			 M28.71,103.66c0,1.69,1.27,3.07,3.02,3.07c1.73,0,3.02-1.38,3.02-3.07c0-1.72-1.37-3.15-3.02-3.15
			C30.07,100.51,28.71,101.94,28.71,103.66z"/>
		<path d="M41.51,101.14c0.8-1.05,1.76-1.59,2.9-1.59c1.69,0,2.87,1.17,2.87,3.6v4.34h-0.99v-4.21c0-1.82-0.57-2.83-2.07-2.83
			c-0.83,0-1.52,0.36-2.04,1.05c-0.58,0.76-0.67,1.52-0.67,2.74v3.25h-0.99v-7.74h0.99V101.14z"/>
		<path d="M52.22,105.88c0.5,0.55,1.03,0.86,1.62,0.86c0.76,0,1.43-0.55,1.43-1.28c0-0.45-0.26-0.87-0.64-1.08
			c-1.78-0.99-2.68-1.41-2.68-2.77c0-1.22,0.95-2.05,2.13-2.05c0.85,0,1.49,0.41,2.14,1.05l-0.64,0.66
			c-0.47-0.45-0.93-0.74-1.56-0.74c-0.64,0-1.17,0.45-1.17,1.03c0,0.39,0.25,0.83,0.6,1.03c1.78,1.03,2.77,1.43,2.77,2.83
			c0,1.21-0.93,2.29-2.33,2.29c-0.86,0-1.73-0.39-2.29-1.11L52.22,105.88z"/>
		<path d="M66.52,99.76h1.05v4.01c0,2.61-1.18,3.92-3.4,3.92s-3.41-1.31-3.41-3.92v-4.01h1.05v3.77c0,0.82,0,1.49,0.22,1.95
			c0.36,0.79,1.17,1.24,2.14,1.24c0.71,0,1.34-0.26,1.75-0.68c0.61-0.66,0.6-1.4,0.6-2.51V99.76z"/>
		<path d="M72.53,96.77h0.99v10.73h-0.99V96.77z"/>
		<path d="M79.4,96.87h0.99v2.89h1.59v0.87h-1.59v6.86H79.4v-6.86h-1.37v-0.87h1.37V96.87z"/>
		<path d="M87.54,97.38c0,0.45-0.38,0.83-0.83,0.83c-0.45,0-0.82-0.38-0.82-0.83c0-0.47,0.38-0.82,0.82-0.82
			C87.17,96.57,87.54,96.93,87.54,97.38z M86.23,99.76h0.99v7.74h-0.99V99.76z"/>
		<path d="M93.19,101.14c0.8-1.05,1.76-1.59,2.9-1.59c1.69,0,2.87,1.17,2.87,3.6v4.34h-0.99v-4.21c0-1.82-0.57-2.83-2.07-2.83
			c-0.83,0-1.52,0.36-2.04,1.05c-0.58,0.76-0.67,1.52-0.67,2.74v3.25H92.2v-7.74h0.99V101.14z"/>
		<path d="M111.68,105.92c0,1.27-0.07,2.32-0.7,3.18c-0.66,0.89-1.81,1.41-3.28,1.41c-2.23,0-3.31-0.9-3.99-2.4h1.08
			c0.58,1.02,1.49,1.5,2.86,1.5c1.28,0,2.23-0.47,2.7-1.31c0.29-0.54,0.34-1.09,0.34-1.69v-0.58c-0.77,0.98-1.89,1.47-3.1,1.47
			c-2.14,0-3.96-1.63-3.96-3.92c0-2.3,1.91-4.02,3.96-4.02c1.37,0,2.29,0.58,3.1,1.54v-1.34h1.01V105.92z M104.63,103.63
			c0,1.54,1.09,2.9,3.13,2.9c1.69,0,2.96-1.17,2.96-2.97c0-1.87-1.38-3.05-2.99-3.05C106,100.51,104.63,101.84,104.63,103.63z"/>
	</g>
	<g>
		<g>
			<path class="st1" d="M22.75,105.45c-0.76,1.15-2.07,1.75-3.63,1.75c-2.55,0-4.25-1.84-4.25-3.99c0-2.27,1.78-4.14,4.33-4.14
				c1.49,0,2.84,0.61,3.56,1.81l-0.8,0.5c-0.69-0.9-1.63-1.34-2.8-1.34c-1.97,0-3.26,1.44-3.26,3.1c0,1.69,1.28,3.16,3.28,3.16
				c1.12,0,2.05-0.45,2.78-1.36L22.75,105.45z"/>
			<path class="st1" d="M35.28,103.17c0,2.2-1.7,4.05-4.04,4.05s-4.04-1.85-4.04-4.05c0-2.21,1.72-4.09,4.04-4.09
				S35.28,100.95,35.28,103.17z M28.23,103.18c0,1.69,1.27,3.07,3.02,3.07c1.73,0,3.02-1.38,3.02-3.07c0-1.72-1.37-3.15-3.02-3.15
				C29.58,100.03,28.23,101.46,28.23,103.18z"/>
			<path class="st1" d="M41.03,100.66c0.8-1.05,1.76-1.59,2.9-1.59c1.69,0,2.87,1.17,2.87,3.6v4.34h-0.99v-4.21
				c0-1.82-0.57-2.83-2.07-2.83c-0.83,0-1.52,0.36-2.04,1.05c-0.58,0.76-0.67,1.52-0.67,2.74v3.25h-0.99v-7.74h0.99V100.66z"/>
			<path class="st1" d="M51.74,105.4c0.5,0.55,1.03,0.86,1.62,0.86c0.76,0,1.43-0.55,1.43-1.28c0-0.45-0.26-0.87-0.64-1.08
				c-1.78-0.99-2.68-1.41-2.68-2.77c0-1.22,0.95-2.05,2.13-2.05c0.85,0,1.49,0.41,2.14,1.05l-0.64,0.66
				c-0.47-0.45-0.93-0.74-1.56-0.74c-0.64,0-1.17,0.45-1.17,1.03c0,0.39,0.25,0.83,0.6,1.03c1.78,1.03,2.77,1.43,2.77,2.83
				c0,1.21-0.93,2.29-2.33,2.29c-0.86,0-1.73-0.39-2.29-1.11L51.74,105.4z"/>
			<path class="st1" d="M66.04,99.28h1.05v4.01c0,2.61-1.18,3.92-3.4,3.92c-2.21,0-3.41-1.31-3.41-3.92v-4.01h1.05v3.77
				c0,0.82,0,1.49,0.22,1.95c0.36,0.79,1.17,1.24,2.14,1.24c0.71,0,1.34-0.26,1.75-0.68c0.61-0.66,0.6-1.4,0.6-2.51V99.28z"/>
			<path class="st1" d="M72.05,96.29h0.99v10.73h-0.99V96.29z"/>
			<path class="st1" d="M78.91,96.39h0.99v2.89h1.59v0.87h-1.59v6.86h-0.99v-6.86h-1.37v-0.87h1.37V96.39z"/>
			<path class="st1" d="M87.06,96.9c0,0.45-0.38,0.83-0.83,0.83c-0.45,0-0.82-0.38-0.82-0.83c0-0.47,0.38-0.82,0.82-0.82
				C86.68,96.08,87.06,96.45,87.06,96.9z M85.75,99.28h0.99v7.74h-0.99V99.28z"/>
			<path class="st1" d="M92.7,100.66c0.8-1.05,1.76-1.59,2.9-1.59c1.69,0,2.87,1.17,2.87,3.6v4.34h-0.99v-4.21
				c0-1.82-0.57-2.83-2.07-2.83c-0.83,0-1.52,0.36-2.04,1.05c-0.58,0.76-0.67,1.52-0.67,2.74v3.25h-0.99v-7.74h0.99V100.66z"/>
			<path class="st1" d="M111.2,105.44c0,1.27-0.07,2.32-0.7,3.18c-0.66,0.89-1.81,1.41-3.28,1.41c-2.23,0-3.31-0.9-3.99-2.4h1.08
				c0.58,1.02,1.49,1.5,2.86,1.5c1.28,0,2.23-0.47,2.7-1.31c0.29-0.54,0.34-1.09,0.34-1.69v-0.58c-0.77,0.98-1.89,1.47-3.1,1.47
				c-2.14,0-3.96-1.63-3.96-3.92c0-2.3,1.91-4.02,3.96-4.02c1.37,0,2.29,0.58,3.1,1.54v-1.34h1.01V105.44z M104.15,103.15
				c0,1.54,1.09,2.9,3.13,2.9c1.69,0,2.96-1.17,2.96-2.97c0-1.87-1.38-3.05-2.99-3.05C105.52,100.03,104.15,101.36,104.15,103.15z"
				/>
		</g>
	</g>
</g>
<g>
	<g class="st0">
		<path d="M24.08,90.34h-1.41v-5.66c0-0.85-0.08-1.56-0.1-2.06c-0.06-1.21-1.04-2.25-2.5-2.25c-0.98,0-1.96,0.48-2.58,1.29
			c-0.79,1.02-0.94,2.33-0.94,3.99v4.68h-1.41V79.29h1.41v1.89c0.98-1.41,2.2-2.18,3.79-2.18c1.68,0,2.89,0.87,3.49,2.66
			c0.98-1.77,2.43-2.66,4.06-2.66c2.29,0,3.76,1.64,3.76,4.78v6.55h-1.41V84.3c0-0.81-0.1-1.46-0.12-1.87
			c-0.06-0.98-1-2.06-2.5-2.06c-1.37,0-2.58,0.83-3.14,2.25c-0.35,0.89-0.4,1.87-0.4,2.89V90.34z"/>
		<path d="M42.69,79.29h1.5v5.72c0,3.72-1.68,5.59-4.85,5.59c-3.16,0-4.87-1.87-4.87-5.59v-5.72h1.5v5.39c0,1.17,0,2.12,0.31,2.79
			c0.52,1.12,1.66,1.77,3.06,1.77c1.02,0,1.91-0.37,2.5-0.98c0.87-0.94,0.85-2,0.85-3.58V79.29z"/>
		<path d="M48.72,81.27c1.14-1.5,2.52-2.27,4.14-2.27c2.41,0,4.1,1.66,4.1,5.14v6.2h-1.41v-6.01c0-2.6-0.81-4.03-2.95-4.03
			c-1.19,0-2.16,0.52-2.91,1.5c-0.83,1.08-0.96,2.16-0.96,3.91v4.64h-1.41V79.29h1.41V81.27z"/>
		<path d="M61.68,75.9c0,0.64-0.54,1.19-1.19,1.19c-0.64,0-1.16-0.54-1.16-1.19c0-0.67,0.54-1.16,1.16-1.16
			C61.14,74.74,61.68,75.26,61.68,75.9z M59.81,79.29h1.41v11.04h-1.41V79.29z"/>
		<path d="M74.88,88.11c-1.08,1.64-2.95,2.5-5.18,2.5c-3.64,0-6.07-2.62-6.07-5.7c0-3.24,2.54-5.91,6.18-5.91
			c2.12,0,4.06,0.87,5.07,2.58l-1.14,0.71c-0.98-1.29-2.33-1.91-3.99-1.91c-2.81,0-4.66,2.06-4.66,4.43c0,2.41,1.83,4.51,4.68,4.51
			c1.6,0,2.93-0.65,3.97-1.93L74.88,88.11z"/>
		<path d="M79.29,75.9c0,0.64-0.54,1.19-1.19,1.19c-0.64,0-1.16-0.54-1.16-1.19c0-0.67,0.54-1.16,1.16-1.16
			C78.75,74.74,79.29,75.26,79.29,75.9z M77.42,79.29h1.41v11.04h-1.41V79.29z"/>
		<path d="M83.2,81.31c1.1-1.54,2.62-2.31,4.39-2.31c3.22,0,5.72,2.64,5.72,5.78c0,3.14-2.43,5.82-5.68,5.82
			c-1.73,0-3.22-0.71-4.43-2.16v5.93h-1.41V79.29h1.41V81.31z M83.1,84.87c0,2.75,2.12,4.45,4.39,4.45c2.45,0,4.37-2.08,4.37-4.49
			c0-2.37-1.83-4.45-4.37-4.45C85.01,80.37,83.1,82.31,83.1,84.87z"/>
		<path d="M105.56,79.29h1.39v11.04h-1.39v-1.89c-1.21,1.46-2.72,2.16-4.45,2.16c-3.22,0-5.66-2.68-5.66-5.82
			c0-3.14,2.5-5.78,5.7-5.78c1.79,0,3.31,0.77,4.41,2.31V79.29z M96.9,84.82c0,2.39,1.87,4.49,4.35,4.49c2.27,0,4.41-1.71,4.41-4.45
			c0-2.56-1.91-4.49-4.39-4.49C98.74,80.37,96.9,82.45,96.9,84.82z"/>
		<path d="M109.94,75.03h1.41v15.31h-1.41V75.03z"/>
	</g>
	<g>
		<g>
			<path class="st1" d="M23.66,89.91h-1.41v-5.66c0-0.85-0.08-1.56-0.1-2.06c-0.06-1.21-1.04-2.25-2.5-2.25
				c-0.98,0-1.96,0.48-2.58,1.29c-0.79,1.02-0.94,2.33-0.94,3.99v4.68h-1.41V78.87h1.41v1.89c0.98-1.41,2.2-2.18,3.79-2.18
				c1.68,0,2.89,0.87,3.49,2.66c0.98-1.77,2.43-2.66,4.06-2.66c2.29,0,3.76,1.64,3.76,4.78v6.55h-1.41v-6.03
				c0-0.81-0.1-1.46-0.12-1.87c-0.06-0.98-1-2.06-2.5-2.06c-1.37,0-2.58,0.83-3.14,2.25c-0.35,0.89-0.4,1.87-0.4,2.89V89.91z"/>
			<path class="st1" d="M42.27,78.87h1.5v5.72c0,3.72-1.68,5.59-4.85,5.59c-3.16,0-4.87-1.87-4.87-5.59v-5.72h1.5v5.39
				c0,1.17,0,2.12,0.31,2.79c0.52,1.12,1.66,1.77,3.06,1.77c1.02,0,1.91-0.37,2.5-0.98c0.87-0.94,0.85-2,0.85-3.58V78.87z"/>
			<path class="st1" d="M48.3,80.85c1.14-1.5,2.52-2.27,4.14-2.27c2.41,0,4.1,1.66,4.1,5.14v6.2h-1.41V83.9
				c0-2.6-0.81-4.03-2.95-4.03c-1.19,0-2.16,0.52-2.91,1.5c-0.83,1.08-0.96,2.16-0.96,3.91v4.64h-1.41V78.87h1.41V80.85z"/>
			<path class="st1" d="M61.26,75.48c0,0.64-0.54,1.19-1.19,1.19c-0.64,0-1.16-0.54-1.16-1.19c0-0.67,0.54-1.16,1.16-1.16
				C60.72,74.32,61.26,74.84,61.26,75.48z M59.39,78.87h1.41v11.04h-1.41V78.87z"/>
			<path class="st1" d="M74.46,87.69c-1.08,1.64-2.95,2.5-5.18,2.5c-3.64,0-6.07-2.62-6.07-5.7c0-3.24,2.54-5.91,6.18-5.91
				c2.12,0,4.06,0.87,5.07,2.58l-1.14,0.71c-0.98-1.29-2.33-1.91-3.99-1.91c-2.81,0-4.66,2.06-4.66,4.43c0,2.41,1.83,4.51,4.68,4.51
				c1.6,0,2.93-0.65,3.97-1.93L74.46,87.69z"/>
			<path class="st1" d="M78.87,75.48c0,0.64-0.54,1.19-1.19,1.19c-0.64,0-1.16-0.54-1.16-1.19c0-0.67,0.54-1.16,1.16-1.16
				C78.33,74.32,78.87,74.84,78.87,75.48z M77,78.87h1.41v11.04H77V78.87z"/>
			<path class="st1" d="M82.78,80.89c1.1-1.54,2.62-2.31,4.39-2.31c3.22,0,5.72,2.64,5.72,5.78c0,3.14-2.43,5.82-5.68,5.82
				c-1.73,0-3.22-0.71-4.43-2.16v5.93h-1.41V78.87h1.41V80.89z M82.68,84.44c0,2.75,2.12,4.45,4.39,4.45c2.45,0,4.37-2.08,4.37-4.49
				c0-2.37-1.83-4.45-4.37-4.45C84.59,79.95,82.68,81.89,82.68,84.44z"/>
			<path class="st1" d="M105.13,78.87h1.39v11.04h-1.39v-1.89c-1.21,1.46-2.72,2.16-4.45,2.16c-3.22,0-5.66-2.68-5.66-5.82
				c0-3.14,2.5-5.78,5.7-5.78c1.79,0,3.31,0.77,4.41,2.31V78.87z M96.48,84.4c0,2.39,1.87,4.49,4.35,4.49
				c2.27,0,4.41-1.71,4.41-4.45c0-2.56-1.91-4.49-4.39-4.49C98.31,79.95,96.48,82.03,96.48,84.4z"/>
			<path class="st1" d="M109.52,74.61h1.41v15.31h-1.41V74.61z"/>
		</g>
	</g>
</g>
<g>
	<g>
		<path class="st2" d="M47.07,39.95c0-8.02,3.48-14.89,9.08-19.55c-3.6-0.86-7.8-1.17-12.82-1.17h-5.29v41.88h7.68
			c4.11,0,7.61-0.18,10.66-0.76C50.47,55.55,47.07,48.26,47.07,39.95z"/>
		<path class="st2" d="M71.3,40.82c0-5.29-1.45-10-4.35-13.77c-1.49-1.95-3.23-3.39-5.21-4.51c-5.69,3.67-9.5,9.99-9.5,17.82
			c0,7.86,3.87,14.33,9.91,18c1.7-0.93,3.23-2.13,4.58-3.77C69.7,50.96,71.3,46.26,71.3,40.82z"/>
		<path class="st3" d="M66.95,27.05c2.9,3.77,4.35,8.48,4.35,13.77c0,5.43-1.59,10.14-4.57,13.76c-1.35,1.64-2.88,2.84-4.58,3.77
			c1.78,1.08,3.77,1.86,5.9,2.41c5.65-4.52,8.69-11.53,8.69-20.03c0-8.81-3.33-16.13-9.11-20.77c-2.1,0.6-4.1,1.41-5.88,2.56
			C63.72,23.67,65.46,25.11,66.95,27.05z"/>
		<g>
			<g class="st0">
				<path d="M46.02,61.4h-7.68V19.52h5.29c5.01,0,9.22,0.31,12.82,1.17c1.78-1.48,3.75-2.74,5.93-3.71c-0.1-0.04-0.18-0.1-0.28-0.14
					c-5.14-2.1-10.43-2.39-16.15-2.39H33.12v52.02h18.19c4.38,0,8.2-0.76,11.5-2.1c-2.31-0.94-4.3-2.26-6.13-3.74
					C53.63,61.22,50.13,61.4,46.02,61.4z"/>
			</g>
			<g>
				<path class="st4" d="M45.72,61.11h-7.68V19.23h5.29c5.01,0,9.22,0.31,12.82,1.17c1.78-1.48,3.75-2.74,5.93-3.71
					c-0.1-0.04-0.18-0.1-0.28-0.14c-5.14-2.1-10.43-2.39-16.15-2.39H32.82v52.02h18.19c4.38,0,8.2-0.76,11.5-2.1
					c-2.31-0.94-4.3-2.26-6.13-3.74C53.33,60.93,49.83,61.11,45.72,61.11z"/>
			</g>
		</g>
		<g>
			<g class="st0">
				<path d="M74.16,19.32c7.11,0,13.32,2.83,17.68,8.56l3.93-2.97c-4.9-6.84-12.57-10.43-21.68-10.43c-4.29,0-8.21,0.93-11.71,2.49
					c2.04,0.85,3.89,1.97,5.54,3.29C69.91,19.71,71.98,19.32,74.16,19.32z"/>
			</g>
			<g>
				<path class="st5" d="M73.86,19.03c7.11,0,13.32,2.83,17.68,8.56l3.93-2.97c-4.9-6.84-12.57-10.43-21.68-10.43
					c-4.29,0-8.21,0.93-11.71,2.49c2.04,0.85,3.89,1.97,5.54,3.29C69.62,19.42,71.69,19.03,73.86,19.03z"/>
			</g>
		</g>
		<path class="st3" d="M52.24,40.37c0-7.84,3.81-14.15,9.5-17.82c-1.67-0.95-3.52-1.65-5.59-2.14c-5.6,4.66-9.08,11.53-9.08,19.55
			c0,8.32,3.4,15.6,9.32,20.4c2.14-0.41,4.05-1.05,5.76-1.98C56.11,54.69,52.24,48.23,52.24,40.37z"/>
		<g>
			<g class="st0">
				<path d="M74.43,61.93c-2.15,0-4.16-0.35-6.09-0.85c-1.64,1.31-3.44,2.46-5.53,3.3c3.31,1.35,7.08,2.11,11.28,2.11
					c9.05,0,16.57-3.39,21.68-9.81l-3.93-2.97C87.2,59.09,81.33,61.93,74.43,61.93z"/>
			</g>
			<g>
				<path class="st5" d="M74.13,61.63c-2.15,0-4.16-0.35-6.09-0.85c-1.64,1.31-3.44,2.46-5.53,3.3c3.31,1.35,7.08,2.11,11.28,2.11
					c9.05,0,16.57-3.39,21.68-9.81l-3.93-2.97C86.91,58.8,81.04,61.63,74.13,61.63z"/>
			</g>
		</g>
		<path class="st3" d="M62.15,58.36c-1.71,0.94-3.62,1.57-5.76,1.98c1.83,1.48,3.82,2.8,6.13,3.74c2.09-0.85,3.89-1.99,5.53-3.3
			C65.92,60.23,63.93,59.44,62.15,58.36z"/>
		<path class="st3" d="M61.74,22.54c1.84-1.14,3.81-1.92,5.88-2.56c-1.65-1.33-3.5-2.44-5.54-3.29c-2.18,0.97-4.15,2.23-5.93,3.71
			C58.22,20.89,60.07,21.6,61.74,22.54z"/>
	</g>
	<polygon class="st6" points="62.31,64.16 62.49,64.07 63.06,64.3 63.03,64.46 	"/>
</g>
</svg>
