<?xml version="1.0" encoding="utf-8"?>
<!-- Generator: Adobe Illustrator 25.2.3, SVG Export Plug-In . SVG Version: 6.00 Build 0)  -->
<svg version="1.1" id="Layer_1" xmlns="http://www.w3.org/2000/svg" xmlns:xlink="http://www.w3.org/1999/xlink" x="0px" y="0px"
	 viewBox="0 0 200 80.52" style="enable-background:new 0 0 200 80.52;" xml:space="preserve">
<style type="text/css">
	.st0{fill:none;}
	.st1{fill:#BE1E2D;}
	.st2{opacity:0.15;}
	.st3{fill:#F6921E;}
	.st4{fill:#EE4036;}
	.st5{font-family:'CenturyGothicPro';}
	.st6{font-size:13.6053px;}
	.st7{fill:#6D6E70;}
</style>
<g>
	<path class="st0" d="M25.27,39.54c0-6.41,2.78-11.9,7.26-15.63c-2.88-0.69-6.24-0.94-10.24-0.94h-4.23v33.47h6.14
		c3.28,0,6.08-0.14,8.52-0.61C27.99,52.01,25.27,46.19,25.27,39.54z"/>
	<path class="st0" d="M44.64,40.24c0-4.23-1.16-8-3.48-11.01c-1.19-1.56-2.58-2.71-4.16-3.61c-4.55,2.94-7.59,7.98-7.59,14.25
		c0,6.28,3.09,11.45,7.92,14.38c1.36-0.74,2.59-1.7,3.66-3.02C43.36,48.35,44.64,44.59,44.64,40.24z"/>
	<path class="st1" d="M41.16,29.24c2.32,3.01,3.48,6.78,3.48,11.01c0,4.34-1.27,8.1-3.65,11c-1.08,1.31-2.3,2.27-3.66,3.02
		c1.42,0.86,3.02,1.49,4.71,1.93c4.52-3.61,6.95-9.22,6.95-16.01c0-7.04-2.66-12.89-7.28-16.6c-1.68,0.48-3.28,1.12-4.7,2.05
		C38.58,26.53,39.97,27.68,41.16,29.24z"/>
	<g>
		<g class="st2">
			<path d="M24.43,56.69H18.3V23.22h4.23c4.01,0,7.37,0.24,10.24,0.94c1.42-1.18,3-2.19,4.74-2.97c-0.08-0.03-0.14-0.08-0.22-0.11
				c-4.11-1.68-8.34-1.91-12.91-1.91H14.12v41.58h14.54c3.5,0,6.56-0.61,9.19-1.68c-1.84-0.75-3.43-1.8-4.9-2.99
				C30.52,56.55,27.72,56.69,24.43,56.69z"/>
		</g>
		<g>
			<path class="st3" d="M24.2,56.46h-6.14V22.98h4.23c4.01,0,7.37,0.24,10.24,0.94c1.42-1.18,3-2.19,4.74-2.97
				c-0.08-0.03-0.14-0.08-0.22-0.11c-4.11-1.68-8.34-1.91-12.91-1.91H13.89v41.58h14.54c3.5,0,6.56-0.61,9.19-1.68
				c-1.84-0.75-3.43-1.8-4.9-2.99C30.28,56.32,27.48,56.46,24.2,56.46z"/>
		</g>
	</g>
	<g>
		<g class="st2">
			<path d="M46.92,23.06c5.68,0,10.65,2.26,14.13,6.84l3.15-2.37c-3.92-5.46-10.04-8.33-17.33-8.33c-3.43,0-6.56,0.75-9.36,1.99
				c1.63,0.68,3.11,1.57,4.43,2.63C43.53,23.37,45.19,23.06,46.92,23.06z"/>
		</g>
		<g>
			<path class="st4" d="M46.69,22.82c5.68,0,10.65,2.26,14.13,6.84l3.15-2.37c-3.92-5.46-10.04-8.33-17.33-8.33
				c-3.43,0-6.56,0.75-9.36,1.99c1.63,0.68,3.11,1.57,4.43,2.63C43.3,23.13,44.95,22.82,46.69,22.82z"/>
		</g>
	</g>
	<path class="st1" d="M29.41,39.88c0-6.26,3.04-11.31,7.59-14.25c-1.33-0.76-2.82-1.32-4.47-1.71c-4.48,3.72-7.26,9.22-7.26,15.63
		c0,6.65,2.72,12.47,7.45,16.3c1.71-0.33,3.24-0.84,4.6-1.58C32.5,51.33,29.41,46.16,29.41,39.88z"/>
	<g>
		<g class="st2">
			<path d="M47.14,57.11c-1.72,0-3.32-0.28-4.87-0.68c-1.31,1.05-2.75,1.96-4.42,2.64c2.65,1.08,5.66,1.69,9.01,1.69
				c7.23,0,13.25-2.71,17.33-7.84l-3.15-2.37C57.35,54.85,52.66,57.11,47.14,57.11z"/>
		</g>
		<g>
			<path class="st4" d="M46.91,56.88c-1.72,0-3.32-0.28-4.87-0.68c-1.31,1.05-2.75,1.96-4.42,2.64c2.65,1.08,5.66,1.69,9.01,1.69
				c7.23,0,13.25-2.71,17.33-7.84l-3.15-2.37C57.11,54.61,52.43,56.88,46.91,56.88z"/>
		</g>
	</g>
	<path class="st1" d="M37.33,54.26c-1.37,0.75-2.89,1.25-4.6,1.58c1.46,1.18,3.05,2.23,4.9,2.99c1.67-0.68,3.11-1.59,4.42-2.64
		C40.34,55.75,38.75,55.13,37.33,54.26z"/>
	<path class="st1" d="M37,25.63c1.43-0.92,3.03-1.57,4.7-2.05c-1.32-1.06-2.8-1.95-4.43-2.63c-1.75,0.78-3.32,1.78-4.74,2.97
		C34.18,24.32,35.67,24.88,37,25.63z"/>
</g>
<g>
	<g class="st2">
		<text transform="matrix(1 0 0 1 52.7999 45.0519)" class="st5 st6">Municipal Consulting</text>
	</g>
	<g>
		<text transform="matrix(1 0 0 1 52.5494 44.8014)" class="st7 st5 st6">Municipal Consulting</text>
	</g>
</g>
</svg>
