<?xml version="1.0" encoding="utf-8"?>
<!-- Generator: Adobe Illustrator 25.2.3, SVG Export Plug-In . SVG Version: 6.00 Build 0)  -->
<svg version="1.1" id="Layer_1" xmlns="http://www.w3.org/2000/svg" xmlns:xlink="http://www.w3.org/1999/xlink" x="0px" y="0px"
	 viewBox="0 0 153.01 153.01" style="enable-background:new 0 0 153.01 153.01;" xml:space="preserve">
<style type="text/css">
	.st0{fill:#FFFFFF;}
	.st1{fill:#0E3757;}
</style>
<g>
	<g>
		<path class="st0" d="M146.5,42.63v67.1c0,20.21-16.44,36.66-36.65,36.66h-67.1c-20.21,0-36.65-16.45-36.65-36.66v-67.1
			c0-20.21,16.44-36.66,36.65-36.66h67.1C130.06,5.97,146.5,22.42,146.5,42.63z"/>
	</g>
	<path class="st1" d="M107.25,51.67V31.37H89.32c-14.23,0-25.76,11.53-25.76,25.76V75.7H45.33v21.18h18.23v49.51h22.25V96.55h16.66
		l3.18-21.03H85.81V60.55c0-4.91,3.98-8.89,8.89-8.89H107.25z"/>
</g>
</svg>
