<?xml version="1.0" encoding="utf-8"?>
<!-- Generator: Adobe Illustrator 25.2.3, SVG Export Plug-In . SVG Version: 6.00 Build 0)  -->
<svg version="1.1" id="Layer_1" xmlns="http://www.w3.org/2000/svg" xmlns:xlink="http://www.w3.org/1999/xlink" x="0px" y="0px"
	 viewBox="0 0 153.01 153.01" style="enable-background:new 0 0 153.01 153.01;" xml:space="preserve">
<style type="text/css">
	.st0{fill:#FFFFFF;}
	.st1{fill:#0E3757;}
</style>
<g>
	<path class="st0" d="M95.48,148.94H57.98c-28.42,0-51.47-23.04-51.47-51.47v-37.5c0-28.42,23.04-51.47,51.47-51.47h37.5
		c28.42,0,51.47,23.04,51.47,51.47v37.49C146.94,125.9,123.9,148.94,95.48,148.94z"/>
	<g>
		<g>
			<path class="st1" d="M76.73,105.32c-14.66,0-26.59-11.93-26.59-26.59c0-14.66,11.93-26.59,26.59-26.59
				c14.66,0,26.59,11.93,26.59,26.59C103.32,93.39,91.39,105.32,76.73,105.32z M76.73,61C66.95,61,59,68.95,59,78.73
				c0,9.78,7.96,17.74,17.74,17.74c9.78,0,17.74-7.96,17.74-17.74C94.47,68.95,86.51,61,76.73,61z"/>
		</g>
		<g>
			<path class="st1" d="M101.46,130.47H52c-14.9,0-27.01-12.12-27.01-27.01V54c0-14.9,12.12-27.01,27.01-27.01h49.46
				c14.9,0,27.01,12.12,27.01,27.01v49.46C128.47,118.35,116.36,130.47,101.46,130.47z M52,35.84c-10.02,0-18.16,8.15-18.16,18.16
				v49.46c0,10.02,8.15,18.16,18.16,18.16h49.46c10.02,0,18.16-8.15,18.16-18.16V54c0-10.02-8.15-18.16-18.16-18.16H52z"/>
		</g>
		<g>
			<circle class="st1" cx="104.06" cy="50.95" r="6.11"/>
		</g>
	</g>
</g>
</svg>
