<?xml version="1.0" encoding="utf-8"?>
<!-- Generator: Adobe Illustrator 25.2.3, SVG Export Plug-In . SVG Version: 6.00 Build 0)  -->
<svg version="1.1" id="Layer_1" xmlns="http://www.w3.org/2000/svg" xmlns:xlink="http://www.w3.org/1999/xlink" x="0px" y="0px"
	 viewBox="0 0 153.01 153.01" style="enable-background:new 0 0 153.01 153.01;" xml:space="preserve">
<style type="text/css">
	.st0{fill:#FFFFFF;}
	.st1{fill:#0E3757;}
</style>
<g>
	<g>
		<path class="st0" d="M146.64,43.28v67.04c0,20.19-16.43,36.62-36.62,36.62H42.99c-20.19,0-36.62-16.43-36.62-36.62V43.28
			c0-20.19,16.43-36.62,36.62-36.62h67.04C130.22,6.66,146.64,23.09,146.64,43.28z"/>
	</g>
	<g>
		<path class="st1" d="M31.93,62.1h18.45v60.9H31.93V62.1z"/>
		<path class="st1" d="M62.59,80.99c0-6.41,0-14.18-0.15-19.8h17.89c0.4,2.02,0.65,6.56,0.71,8.92c2.68-5.22,8.45-10.72,21.99-10.72
			c14.77,0,19.57,10.67,19.57,29.84v33.77h-18.45V91.34c0-9.29-3.72-15.85-9.72-15.85c-10.4,0-13.39,6.64-13.39,20.42v27.08H62.59
			V80.99z"/>
		<circle class="st1" cx="41.16" cy="41.36" r="10.75"/>
	</g>
</g>
</svg>
